<svg width="50" height="13" viewBox="0 0 50 13" fill="none" xmlns="http://www.w3.org/2000/svg">
<g clip-path="url(#clip0_3964_3690)">
<path d="M11.6743 3.85462C11.8273 3.47587 11.9618 3.14581 12.0943 2.81468C12.3833 2.09272 12.6731 1.37077 12.9567 0.647037C12.9984 0.540804 13.055 0.500301 13.1824 0.501367C13.8509 0.506696 14.5195 0.507407 15.1876 0.501367C15.3366 0.499946 15.3779 0.547555 15.3779 0.676526C15.3744 2.30483 15.3744 3.93278 15.3779 5.56109C15.3779 5.69112 15.3355 5.73873 15.1872 5.73518C14.8337 5.72701 14.4794 5.72488 14.1258 5.73589C13.9528 5.74122 13.9025 5.6929 13.9036 5.53622C13.9107 4.42912 13.9072 3.32203 13.9072 2.21459C13.9072 2.15063 13.9072 2.08633 13.9072 2.02237C13.8914 2.01704 13.8757 2.01207 13.8604 2.00674C13.8281 2.06252 13.7892 2.11582 13.7652 2.17444C13.3165 3.27798 12.8647 4.3808 12.4266 5.48754C12.3542 5.67016 12.2665 5.75436 12.0392 5.73767C11.7529 5.7167 11.4627 5.72488 11.1749 5.73589C11.0231 5.74157 10.9582 5.68899 10.9078 5.56393C10.4572 4.44227 9.99982 3.32274 9.54325 2.20286C9.51533 2.13429 9.47915 2.06856 9.40129 2.0071C9.39814 2.06785 9.39264 2.12825 9.39264 2.18901C9.39224 3.30214 9.38831 4.41527 9.39657 5.5284C9.39775 5.69503 9.34348 5.74264 9.16298 5.73625C8.80944 5.72416 8.45513 5.72807 8.10159 5.73518C7.9612 5.73802 7.92188 5.69006 7.92188 5.56926C7.92502 3.93527 7.92502 2.30092 7.92188 0.666933C7.92188 0.545423 7.96395 0.501012 8.10277 0.502078C8.78428 0.507052 9.46578 0.508473 10.1473 0.501012C10.2936 0.499235 10.3357 0.564964 10.3766 0.667999C10.7667 1.64612 11.1599 2.62317 11.5536 3.59987C11.5819 3.66986 11.6184 3.73737 11.6747 3.85497L11.6743 3.85462Z" fill="#006FCF"/>
<path d="M47.0759 3.67849C47.0759 3.30153 47.0747 2.92456 47.0759 2.5476C47.0778 1.90878 47.079 1.26961 47.0908 0.630796C47.0916 0.587805 47.1793 0.510707 47.2285 0.509286C47.628 0.499338 48.0279 0.505733 48.4275 0.502535C48.5482 0.501469 48.5663 0.560803 48.5655 0.649626C48.5628 0.898331 48.5647 1.14704 48.5647 1.39574C48.5647 2.76966 48.5616 4.14322 48.5687 5.51713C48.5695 5.68803 48.5183 5.74096 48.3272 5.73599C47.8557 5.72427 47.3834 5.72746 46.9115 5.73492C46.7758 5.73706 46.6984 5.69442 46.6256 5.59458C45.9087 4.61114 45.1867 3.63088 44.4651 2.64992C44.412 2.5778 44.353 2.50958 44.2488 2.44812C44.2453 2.5142 44.2386 2.57993 44.2386 2.64601C44.2378 3.61134 44.2354 4.57632 44.2413 5.54165C44.2421 5.68554 44.2008 5.74025 44.0329 5.73528C43.6664 5.72498 43.2987 5.72782 42.9318 5.73421C42.793 5.7367 42.734 5.7065 42.7344 5.56723C42.7391 3.93288 42.7383 2.29854 42.7348 0.664193C42.7348 0.53913 42.7808 0.499693 42.9168 0.501114C43.4477 0.506443 43.9786 0.507865 44.5095 0.500048C44.6479 0.497916 44.7038 0.566843 44.7675 0.653179C45.4675 1.60359 46.1698 2.55257 46.8714 3.50191C46.9178 3.56444 46.9654 3.62627 47.0122 3.6888C47.033 3.68524 47.0543 3.68169 47.0751 3.67849H47.0759Z" fill="#006FCF"/>
<path d="M26.4026 3.86025C27.0369 4.48663 27.6504 5.0924 28.2788 5.7131C28.2383 5.72127 28.212 5.73157 28.1856 5.73157C27.6547 5.73264 27.1239 5.7369 26.593 5.72731C26.5088 5.72589 26.4026 5.67792 26.346 5.62037C25.8761 5.1425 25.4069 4.66356 24.9563 4.17077C24.7718 3.96932 24.5854 3.84852 24.2779 3.87801C24.1013 3.89471 24.0592 3.94445 24.0616 4.09154C24.0691 4.56515 24.0573 5.03911 24.0683 5.51271C24.0722 5.67792 24.0294 5.74365 23.8312 5.73619C23.4646 5.72198 23.0973 5.72873 22.7301 5.73406C22.6022 5.73584 22.5586 5.69604 22.5586 5.57986C22.5617 3.93948 22.5613 2.29909 22.5586 0.659065C22.5586 0.546082 22.5952 0.501316 22.7265 0.502026C23.749 0.505579 24.7718 0.49421 25.7939 0.508066C26.355 0.515883 26.8958 0.602574 27.3555 0.943655C28.3009 1.645 28.1054 3.16814 26.998 3.64103C26.8171 3.71849 26.6268 3.77853 26.4026 3.8606V3.86025ZM25.0082 2.7759C25.0082 2.78087 25.0086 2.78585 25.0089 2.79117C25.3279 2.77554 25.6507 2.78123 25.9653 2.73895C26.2961 2.69418 26.4691 2.47177 26.4522 2.18931C26.4365 1.93279 26.2115 1.70078 25.9119 1.68835C25.3503 1.6649 24.7875 1.66774 24.2252 1.65992C24.1123 1.65815 24.0612 1.70398 24.0628 1.81057C24.0675 2.07668 24.0699 2.34315 24.062 2.60891C24.0581 2.74499 24.123 2.78194 24.2622 2.77803C24.5107 2.77128 24.7596 2.77625 25.0086 2.77625L25.0082 2.7759Z" fill="#006FCF"/>
<path d="M28.1119 10.6934V12.0776C28.1119 12.3562 27.9552 12.4955 27.6419 12.4955C27.3796 12.4955 27.1169 12.4852 26.8558 12.4987C26.6588 12.509 26.5971 12.4525 26.5983 12.2698C26.6061 11.0796 26.6014 9.88974 26.601 8.69951C26.601 8.29697 26.6069 7.89406 26.5979 7.49187C26.5943 7.34229 26.6364 7.28474 26.8161 7.28616C27.8976 7.29362 28.9794 7.27799 30.0604 7.29504C30.7007 7.30499 31.2744 7.49791 31.6618 7.98964C32.2929 8.79118 32.0456 10.1569 30.6995 10.5364C30.6196 10.5588 30.5422 10.5868 30.4238 10.6252C31.0562 11.2491 31.6688 11.8534 32.3039 12.4802C32.2273 12.4866 32.1742 12.4951 32.1207 12.4951C31.6488 12.4962 31.1765 12.488 30.705 12.4994C30.5272 12.5036 30.4128 12.4439 30.3031 12.3281C29.8733 11.8737 29.4116 11.4417 29.0112 10.967C28.769 10.6796 28.4945 10.6263 28.1119 10.6934ZM28.1123 9.52557C28.745 9.52557 29.3522 9.53765 29.9582 9.52024C30.2614 9.51171 30.4647 9.27935 30.4663 9.00826C30.4682 8.6718 30.237 8.45258 29.8178 8.43979C29.2952 8.4238 28.7714 8.43624 28.2479 8.4334C28.1465 8.43269 28.1099 8.46999 28.1107 8.55988C28.1138 8.87254 28.1119 9.1852 28.1119 9.52521L28.1123 9.52557Z" fill="#006FCF"/>
<path d="M16.6208 3.11709C16.6208 2.31165 16.6251 1.5062 16.6172 0.701105C16.6157 0.545487 16.6644 0.499299 16.8382 0.50001C18.3196 0.505694 19.801 0.505694 21.282 0.50001C21.4515 0.499299 21.5152 0.537671 21.5065 0.697907C21.4928 0.951942 21.4928 1.2074 21.5065 1.46143C21.5152 1.62344 21.4456 1.66111 21.2792 1.66004C20.3224 1.65435 19.3653 1.6572 18.4085 1.65755C18.1238 1.65755 18.1234 1.65826 18.123 1.90874C18.123 2.05086 18.1348 2.19404 18.1198 2.33474C18.101 2.51345 18.1879 2.55467 18.3692 2.5536C19.2866 2.54756 20.2045 2.55076 21.1219 2.55076C21.323 2.55076 21.4237 2.6397 21.4239 2.81758C21.4239 3.05456 21.4153 3.29154 21.4271 3.52817C21.4346 3.67348 21.374 3.70866 21.2222 3.70759C20.2654 3.70226 19.3082 3.70901 18.3515 3.70155C18.1721 3.70013 18.1053 3.74454 18.1194 3.9094C18.1336 4.07425 18.1309 4.24124 18.1202 4.40645C18.1112 4.5475 18.1694 4.59049 18.3235 4.58943C19.3 4.58445 20.2768 4.59191 21.2533 4.58267C21.4511 4.5809 21.5195 4.62602 21.5065 4.80935C21.4888 5.06303 21.4979 5.31848 21.5038 5.57287C21.5065 5.68337 21.4731 5.73276 21.339 5.7324C19.8183 5.7292 18.2976 5.72885 16.7769 5.7324C16.6157 5.73276 16.6184 5.65175 16.6188 5.54942C16.6204 4.73829 16.6196 3.9268 16.6196 3.11567L16.6208 3.11709Z" fill="#006FCF"/>
<path d="M34.3671 9.31539C34.4729 9.31539 34.5495 9.31539 34.6266 9.31539C35.5571 9.31539 36.4875 9.32036 37.4179 9.31148C37.6075 9.3097 37.6551 9.36868 37.648 9.52572C37.637 9.77407 37.6378 10.0231 37.648 10.2715C37.6539 10.4193 37.5957 10.4644 37.4333 10.4633C36.4899 10.4577 35.546 10.4651 34.6026 10.4569C34.4095 10.4552 34.3521 10.5109 34.3639 10.6794C34.3785 10.8904 34.3675 11.1029 34.3675 11.3413H34.614C35.5771 11.3413 36.5406 11.3466 37.5037 11.337C37.7085 11.3349 37.764 11.3938 37.753 11.5701C37.7372 11.8181 37.7435 12.0675 37.7514 12.3158C37.7553 12.4412 37.7184 12.4981 37.5666 12.4977C36.0596 12.4942 34.5523 12.4949 33.0454 12.4974C32.9105 12.4974 32.8633 12.4558 32.8633 12.3318C32.8668 10.7039 32.8668 9.07592 32.8633 7.44762C32.8633 7.31935 32.9164 7.28773 33.0485 7.28809C34.5554 7.29129 36.0628 7.29129 37.5697 7.28809C37.7058 7.28809 37.7553 7.32611 37.7518 7.45117C37.7439 7.72332 37.7424 7.99583 37.7522 8.26799C37.7573 8.40619 37.6956 8.43675 37.556 8.43639C36.5732 8.43249 35.5901 8.43853 34.6074 8.43071C34.4206 8.42929 34.351 8.47263 34.3639 8.64708C34.3797 8.85848 34.3679 9.07166 34.3679 9.31645L34.3671 9.31539Z" fill="#006FCF"/>
<path d="M9.43157 11.3411H12.2598C12.6075 11.3411 12.7813 11.4996 12.7813 11.8165C12.7813 11.9764 12.7711 12.1369 12.784 12.2958C12.797 12.4535 12.731 12.4993 12.5599 12.4983C11.6094 12.4922 10.6593 12.4954 9.70881 12.4954C9.18461 12.4954 8.66001 12.4912 8.13581 12.4979C7.97379 12.5001 7.92148 12.4517 7.92188 12.3043C7.9266 10.6937 7.9262 9.08321 7.92227 7.47231C7.92227 7.33872 7.95727 7.28543 8.12008 7.28614C9.60775 7.29147 11.0958 7.29147 12.5835 7.28614C12.7428 7.28543 12.7888 7.33304 12.7837 7.47018C12.7746 7.72457 12.7722 7.97967 12.7844 8.23371C12.7919 8.3879 12.7404 8.438 12.5642 8.43658C11.6008 8.42912 10.6373 8.43906 9.67382 8.42841C9.46775 8.42627 9.41427 8.48419 9.42764 8.65935C9.44376 8.86968 9.43157 9.08179 9.43157 9.31486C9.53146 9.31486 9.60814 9.31486 9.68443 9.31486C10.6216 9.31486 11.5591 9.31735 12.4962 9.31237C12.6464 9.31166 12.7089 9.34435 12.7022 9.49037C12.6905 9.75045 12.6908 10.0116 12.7022 10.2717C12.7089 10.4202 12.6527 10.4639 12.4903 10.4628C11.5532 10.4568 10.6157 10.4649 9.67853 10.4561C9.47994 10.4543 9.41191 10.5022 9.42725 10.6845C9.44534 10.8948 9.43157 11.1073 9.43157 11.3404V11.3411Z" fill="#006FCF"/>
<path d="M7.53764 5.73139C6.99377 5.73139 6.47743 5.7353 5.96109 5.7257C5.90722 5.72464 5.83289 5.65465 5.80536 5.601C5.67205 5.33808 5.54582 5.07161 5.42863 4.8023C5.38262 4.69642 5.31498 4.66338 5.19307 4.66374C4.39398 4.66764 3.59489 4.66835 2.79541 4.66338C2.66839 4.66267 2.60547 4.70708 2.56143 4.80692C2.44267 5.07587 2.3239 5.34483 2.19059 5.60775C2.16267 5.66246 2.07301 5.72499 2.01048 5.72641C1.53897 5.73636 1.06746 5.73174 0.59556 5.73068C0.571572 5.73068 0.547977 5.72144 0.5 5.71149C0.665559 5.3665 0.823646 5.03146 0.986453 4.6982C1.64515 3.35271 2.30621 2.00793 2.96136 0.661012C3.01603 0.548739 3.07698 0.497933 3.22091 0.500064C3.75809 0.508236 4.29528 0.505394 4.83246 0.501485C4.94178 0.500775 5.01532 0.520671 5.06369 0.620153C5.87379 2.28647 6.68743 3.95137 7.49949 5.61663C7.51208 5.64257 7.51837 5.6717 7.53803 5.73103L7.53764 5.73139ZM4.02904 1.7777C4.00702 1.77876 3.98461 1.77983 3.96258 1.78125C3.69439 2.36037 3.42619 2.93986 3.14698 3.54208H4.84622C4.56583 2.9363 4.29724 2.35718 4.02904 1.77805V1.7777Z" fill="#006FCF"/>
<path d="M42.3642 5.73212C41.829 5.73212 41.3185 5.73674 40.8085 5.72608C40.7479 5.72501 40.6638 5.65324 40.6347 5.59604C40.5025 5.33881 40.3814 5.0766 40.2674 4.81262C40.2194 4.70142 40.1494 4.66304 40.0177 4.66375C39.2249 4.66873 38.4317 4.66873 37.6385 4.66375C37.5071 4.66304 37.4371 4.69964 37.3896 4.81227C37.2747 5.08264 37.1512 5.35018 37.0191 5.61381C36.9932 5.66497 36.9118 5.72608 36.8551 5.72679C36.3577 5.73567 35.8602 5.73176 35.3281 5.73176C35.384 5.60919 35.4296 5.50331 35.4799 5.39992C36.2515 3.82065 37.0246 2.24208 37.7934 0.661741C37.8473 0.551245 37.9067 0.497596 38.0526 0.500083C38.5898 0.50932 39.1273 0.505767 39.6649 0.501859C39.7762 0.501149 39.8454 0.525664 39.8934 0.62479C40.707 2.29715 41.5238 3.96809 42.3394 5.63974C42.3492 5.66035 42.3516 5.6838 42.3646 5.73212H42.3642ZM38.8623 1.78233C38.8395 1.78269 38.8167 1.78304 38.7939 1.78375C38.5257 2.36253 38.2575 2.9413 37.9786 3.54316H39.6763C39.3971 2.93917 39.1297 2.36075 38.8623 1.78233Z" fill="#006FCF"/>
<path d="M43.6546 7.28967C43.462 7.66734 43.2933 8.01198 43.1069 8.34915C43.0805 8.39676 42.9696 8.4298 42.8976 8.43016C42.1375 8.43584 41.3769 8.43371 40.6168 8.43406C40.5448 8.43406 40.4713 8.43122 40.4013 8.4433C40.0941 8.49553 39.9345 8.66607 39.9534 8.91477C39.9711 9.14856 40.1807 9.31164 40.4835 9.31412C40.9621 9.31839 41.4418 9.29494 41.9184 9.32265C42.2393 9.34148 42.5689 9.39513 42.8709 9.49212C43.4077 9.66444 43.6881 10.0553 43.7593 10.5509C43.8143 10.9353 43.7746 11.3219 43.552 11.6697C43.2276 12.1764 42.7148 12.4531 42.0891 12.4744C40.9892 12.5114 39.8873 12.4904 38.7862 12.4972C38.6478 12.4979 38.6041 12.4492 38.6077 12.3281C38.6151 12.0616 38.6183 11.7948 38.6069 11.5287C38.6002 11.3773 38.6631 11.3379 38.8228 11.3389C39.8059 11.3443 40.789 11.3425 41.7725 11.3407C42.0384 11.3404 42.2354 11.1968 42.2653 10.9922C42.3019 10.7378 42.1686 10.5566 41.889 10.4926C41.8013 10.4727 41.7088 10.4631 41.618 10.4628C41.1331 10.4596 40.6478 10.4631 40.163 10.4592C39.2431 10.4518 38.5675 9.9366 38.4551 9.16099C38.3336 8.32392 38.8511 7.59842 39.7363 7.38986C39.9801 7.3323 40.2377 7.29713 40.4894 7.29429C41.4725 7.28363 42.4556 7.29002 43.4391 7.28967C43.497 7.28967 43.5552 7.28967 43.6554 7.28967H43.6546Z" fill="#006FCF"/>
<path d="M49.3692 7.28988C49.1796 7.66471 49.0117 8.01041 48.8265 8.34865C48.8001 8.39661 48.6892 8.43001 48.6173 8.43037C47.8308 8.43605 47.0443 8.43285 46.2578 8.43499C46.0234 8.4357 45.8095 8.4929 45.7033 8.70288C45.5515 9.0031 45.7957 9.30901 46.1925 9.31398C46.6774 9.32037 47.1642 9.29408 47.6467 9.32322C47.9739 9.34311 48.3109 9.39747 48.6165 9.50122C49.1057 9.66749 49.3782 10.0246 49.4647 10.4889C49.6696 11.5921 48.902 12.4565 47.6652 12.4835C46.6239 12.5066 45.5814 12.4914 44.5392 12.4974C44.3989 12.4981 44.3383 12.4622 44.343 12.3258C44.3524 12.0536 44.3524 11.7808 44.343 11.509C44.3383 11.3729 44.3953 11.3384 44.5381 11.3391C45.5212 11.3434 46.5043 11.3423 47.4875 11.3406C47.7678 11.3402 47.9594 11.1938 47.9948 10.9611C48.029 10.7387 47.8713 10.5486 47.596 10.49C47.5079 10.4712 47.4151 10.463 47.3247 10.4623C46.8461 10.4591 46.3679 10.4626 45.8893 10.4591C44.995 10.4523 44.3139 9.94853 44.1849 9.24043C44.0213 8.33977 44.5742 7.60396 45.4209 7.39682C45.6639 7.33749 45.9207 7.29769 46.172 7.29485C47.1748 7.28348 48.1776 7.28988 49.1804 7.28988C49.2319 7.28988 49.2838 7.28988 49.3696 7.28988H49.3692Z" fill="#006FCF"/>
<path d="M13.1589 7.29C13.8085 7.29 14.4098 7.28218 15.0107 7.29817C15.1031 7.30066 15.2065 7.40156 15.2801 7.47652C15.6832 7.88937 16.0788 8.30755 16.4748 8.72573C16.5208 8.77441 16.5515 8.83516 16.6045 8.91297C16.7886 8.72573 16.9235 8.59108 17.0548 8.45393C17.3973 8.0958 17.7371 7.73518 18.0824 7.37917C18.1213 7.33867 18.1866 7.29462 18.2405 7.2939C18.8284 7.28786 19.4163 7.29 20.0349 7.29C19.9912 7.34933 19.9688 7.38983 19.9366 7.42252C19.1882 8.18356 18.4414 8.9453 17.6876 9.70172C17.5881 9.80156 17.5818 9.86196 17.6832 9.96464C18.4501 10.742 19.2106 11.5251 19.9728 12.3064C20.0192 12.354 20.0644 12.4023 20.1383 12.4801C20.0369 12.4872 19.9759 12.4947 19.9149 12.4947C19.4104 12.4957 18.9059 12.4911 18.4013 12.4979C18.2554 12.5 18.1591 12.4535 18.0667 12.3543C17.6321 11.8882 17.1897 11.4277 16.7504 10.9655C16.7123 10.9253 16.6734 10.8859 16.6144 10.8244C16.4791 10.9605 16.3568 11.0795 16.2392 11.2025C15.8759 11.5837 15.5121 11.9646 15.1546 12.3501C15.0587 12.4535 14.9549 12.5004 14.8015 12.4982C14.2584 12.4908 13.7153 12.4954 13.1172 12.4954C13.3335 12.2716 13.5175 12.0779 13.7051 11.8871C14.3308 11.2494 14.9552 10.6109 15.5856 9.97672C15.6718 9.89003 15.6623 9.83673 15.5813 9.75466C14.8561 9.02276 14.1349 8.2873 13.4129 7.55291C13.3394 7.4783 13.2678 7.40191 13.1604 7.29H13.1589Z" fill="#006FCF"/>
<path d="M20.4372 9.89032C20.4372 9.08523 20.4411 8.28014 20.4336 7.47505C20.4321 7.3244 20.4875 7.28532 20.6476 7.28639C21.7483 7.29207 22.8498 7.27324 23.9501 7.29491C24.8412 7.31232 25.5656 7.74365 25.8074 8.53879C26.155 9.68212 25.2667 10.7647 23.9552 10.7775C23.359 10.7832 22.7625 10.7853 22.1663 10.7764C21.9823 10.7736 21.9315 10.8294 21.9355 10.9903C21.9461 11.4341 21.9347 11.8782 21.9417 12.3223C21.9441 12.4548 21.8934 12.4992 21.7491 12.4971C21.3822 12.4911 21.0149 12.4896 20.6483 12.4978C20.4887 12.5014 20.4324 12.457 20.4336 12.3063C20.4411 11.5012 20.4372 10.6961 20.4372 9.89103V9.89032ZM22.8997 9.63451C23.1549 9.63451 23.4098 9.63593 23.665 9.63416C24.0767 9.63096 24.3555 9.40215 24.3673 9.06143C24.3791 8.71502 24.1074 8.44855 23.6949 8.43824C23.1589 8.42474 22.6221 8.4354 22.0857 8.43256C21.9756 8.43185 21.9362 8.47342 21.9374 8.57041C21.941 8.87774 21.9421 9.18507 21.9366 9.4924C21.9347 9.59969 21.9748 9.63913 22.0951 9.63629C22.3633 9.6306 22.6315 9.63451 22.8997 9.63451Z" fill="#006FCF"/>
<path d="M35.127 4.58782C34.9276 4.97153 34.7471 5.32292 34.5603 5.67181C34.5446 5.70095 34.4887 5.72759 34.4502 5.72901C33.8053 5.75104 33.1674 5.72369 32.5775 5.44798C31.8005 5.08416 31.397 4.47803 31.2601 3.72161C31.1603 3.16878 31.1835 2.61417 31.395 2.07945C31.732 1.22817 32.4151 0.705892 33.388 0.590422C34.1879 0.495559 35.0059 0.526469 35.8164 0.509771C35.8565 0.50906 35.9332 0.584737 35.9343 0.626662C35.9442 0.94607 35.9363 1.26583 35.9418 1.58524C35.9438 1.70462 35.873 1.71812 35.7672 1.71776C35.243 1.71563 34.7192 1.71634 34.195 1.71705C33.3239 1.71847 32.7875 2.15016 32.7293 2.93571C32.7097 3.20182 32.7415 3.48321 32.821 3.74009C32.9716 4.22826 33.3715 4.49118 33.9197 4.5498C34.2367 4.58391 34.5587 4.57751 34.8788 4.58817C34.9485 4.59066 35.0181 4.58817 35.127 4.58817V4.58782Z" fill="#006FCF"/>
<path d="M30.3353 5.73168C29.863 5.73168 29.4182 5.73487 28.9742 5.7267C28.9294 5.72599 28.8759 5.6592 28.8464 5.61265C28.8263 5.58139 28.8413 5.53165 28.8413 5.49043C28.8413 3.91009 28.8413 2.32975 28.8413 0.749413C28.8413 0.585742 28.9303 0.503906 29.1083 0.503906C29.4292 0.503906 29.7505 0.503906 30.0714 0.503906C30.3341 0.503906 30.3353 0.503906 30.3353 0.736623C30.3353 2.08602 30.3353 3.43542 30.3353 4.78482V5.73168Z" fill="#006FCF"/>
</g>
<defs>
<clipPath id="clip0_3964_3690">
<rect width="49" height="12" fill="white" transform="translate(0.5 0.5)"/>
</clipPath>
</defs>
</svg>
