<svg width="32" height="32" viewBox="0 0 32 32" fill="none" xmlns="http://www.w3.org/2000/svg">
<g clip-path="url(#clip0_1137_193255)">
<path fill-rule="evenodd" clip-rule="evenodd" d="M31.0799 12.27L28.2699 7.02999C27.9999 6.52999 27.5099 6.19999 26.9599 6.12999C26.8899 6.06999 26.8099 6.02999 26.7099 5.99999L16.9899 3.06999C16.6799 2.97999 16.3399 2.96999 16.0299 3.05999L5.29995 5.98999C5.14995 6.02999 5.02995 6.11999 4.93995 6.22999C4.55995 6.37999 4.21995 6.63999 4.01995 7.02999L1.20995 12.27C0.679947 13.25 1.19995 14.47 2.25995 14.78L4.32995 15.38C4.27995 15.48 4.23995 15.59 4.23995 15.71V22.88C4.23995 24.11 5.05995 25.19 6.24995 25.53L15.9799 28.27C16.2199 28.34 16.4699 28.37 16.7199 28.37C17.0099 28.37 17.2899 28.33 17.5699 28.24L25.8399 25.56C26.9799 25.19 27.7399 24.14 27.7399 22.94V15.71C27.7399 15.62 27.7199 15.53 27.6899 15.45L30.0199 14.77C31.0899 14.46 31.5999 13.24 31.0699 12.26L31.0799 12.27ZM16.4199 4.50999C16.4199 4.50999 16.5099 4.49999 16.5599 4.50999L23.8499 6.69999L17.2199 8.16999C16.7499 8.26999 16.3799 8.54999 16.1499 8.89999C15.9099 8.53999 15.5399 8.26999 15.0799 8.16999L8.42995 6.68999L16.4199 4.50999ZM2.52995 12.98L5.33995 7.73999C5.38995 7.63999 5.50995 7.58999 5.60995 7.60999L14.7399 9.63999C14.9099 9.67999 14.9899 9.86999 14.8999 10.02L11.3599 15.68C11.2999 15.77 11.1899 15.82 11.0799 15.79L2.67995 13.33C2.52995 13.29 2.44995 13.11 2.52995 12.97V12.98ZM26.2499 22.95C26.2499 23.49 25.8999 23.97 25.3799 24.14L17.1099 26.82C16.8699 26.9 16.6199 26.9 16.3899 26.83L6.65995 24.09C6.11995 23.94 5.74995 23.44 5.74995 22.89V15.79L10.6599 17.22C11.4099 17.44 12.2199 17.13 12.6299 16.47L16.1399 10.86L19.6499 16.47C20.0699 17.13 20.8699 17.44 21.6199 17.22L26.2499 15.87V22.94V22.95ZM29.6099 13.34L21.2099 15.78C21.0999 15.81 20.9899 15.77 20.9299 15.67L17.3899 10.01C17.2999 9.85999 17.3799 9.66999 17.5499 9.62999L26.6799 7.59999C26.7899 7.57999 26.8999 7.62999 26.9499 7.72999L29.7599 12.97C29.8399 13.11 29.7599 13.28 29.6099 13.33V13.34Z" fill="#B614DD"/>
</g>
<defs>
<clipPath id="clip0_1137_193255">
<rect width="30.29" height="25.37" fill="white" transform="translate(1 3)"/>
</clipPath>
</defs>
</svg>
