<svg width="129" height="129" viewBox="0 0 129 129" fill="none" xmlns="http://www.w3.org/2000/svg">
<path d="M114.73 99.8541L105.095 45.9159C104.168 40.635 99.5722 36.765 94.1703 36.765H88.6878V27.2109C88.6878 16.6491 80.1012 8.0625 69.5394 8.0625H61.4769C50.915 8.0625 42.3284 16.6491 42.3284 27.2109V36.765H36.8459C31.4844 36.765 26.8887 40.635 25.9212 45.9159L16.2865 99.8541C15.0772 106.667 20.3178 112.875 27.2112 112.875H103.805C110.698 112.875 115.939 106.627 114.73 99.8541ZM103.805 106.828H27.2112C24.0669 106.828 21.6884 104.006 22.2528 100.902L31.8875 46.9641C32.3309 44.5453 34.3869 42.8119 36.8459 42.8119H41.7237C40.9981 43.6987 40.5547 44.8275 40.5547 46.0772C40.5547 48.8991 42.7719 51.1969 45.5534 51.1969C48.335 51.1969 50.5522 48.8587 50.5522 46.0772C50.5522 44.8275 50.0684 43.7391 49.3831 42.8119H81.7137C80.9881 43.6987 80.5447 44.8275 80.5447 46.0772C80.5447 48.8991 82.7619 51.1969 85.5434 51.1969C88.325 51.1969 90.5422 48.8587 90.5422 46.0772C90.5422 44.8275 90.0987 43.7391 89.3731 42.8119H94.2106C96.6697 42.8119 98.7256 44.5453 99.1691 46.9641L108.804 100.902C109.368 104.006 106.99 106.828 103.845 106.828H103.805ZM61.4769 14.1094H69.5394C76.7956 14.1094 82.6409 19.995 82.6409 27.2109V36.765H48.3753V27.2109C48.3753 19.995 54.2609 14.1094 61.4769 14.1094Z" fill="#B614DD" stroke="white"/>
</svg>
