<svg width="32" height="32" viewBox="0 0 32 32" fill="none" xmlns="http://www.w3.org/2000/svg">
<g clip-path="url(#clip0_1137_193294)">
<path fill-rule="evenodd" clip-rule="evenodd" d="M21.7044 4.02323L21.7213 4.06333C22.0104 4.7509 22.4546 5.35422 23.0117 5.83066L24.1106 4.79152C23.6713 4.45182 23.3228 4.00214 23.1041 3.48194L23.0872 3.44184C22.534 2.12604 21.1742 1.33765 19.7574 1.51119C18.931 1.61242 18.0976 1.38656 17.4354 0.881986C16.2925 0.0113024 14.7084 0.0113025 13.5656 0.881986C12.9033 1.38656 12.07 1.61242 11.2435 1.51119C9.82675 1.33765 8.46703 2.12604 7.91379 3.44184L7.89692 3.48194C7.57277 4.25289 6.96353 4.86896 6.19625 5.20169C4.8807 5.77217 4.0954 7.13831 4.26451 8.56222L4.26957 8.60481C4.36868 9.43931 4.14587 10.2802 3.64655 10.9561C2.78513 12.1222 2.78513 13.7138 3.64655 14.8799C4.14587 15.5559 4.36868 16.3968 4.26957 17.2313L4.26451 17.2739C4.0954 18.6978 4.8807 20.0639 6.19625 20.6344C6.96353 20.9671 7.57277 21.5832 7.89692 22.3541L7.91379 22.3942C8.46703 23.71 9.82675 24.4984 11.2435 24.3249C12.07 24.2237 12.9033 24.4495 13.5656 24.9541C14.7084 25.8248 16.2925 25.8248 17.4354 24.9541C18.0976 24.4495 18.931 24.2237 19.7574 24.3249C21.1742 24.4984 22.5339 23.71 23.0872 22.3942L23.1041 22.3541C23.4282 21.5832 24.0374 20.9671 24.8047 20.6344C26.1203 20.0639 26.9056 18.6978 26.7365 17.2739L26.7314 17.2313C26.6323 16.3968 26.8551 15.5559 27.3544 14.8799C28.2158 13.7138 28.2158 12.1222 27.3544 10.9561C26.8551 10.2802 26.6323 9.43931 26.7314 8.60481L26.7365 8.56222C26.7931 8.08566 26.7428 7.61556 26.6014 7.1796L25.2371 8.46977C25.1052 9.66959 25.4301 10.8757 26.1479 11.8474C26.618 12.4838 26.618 13.3523 26.1479 13.9887C25.4218 14.9717 25.0977 16.1946 25.2419 17.4082L25.2469 17.4508C25.3379 18.2166 24.9155 18.9514 24.208 19.2582C23.0861 19.7447 22.1953 20.6455 21.7213 21.7727L21.7044 21.8129C21.4113 22.5102 20.6907 22.928 19.9398 22.836C18.7249 22.6872 17.4998 23.0192 16.5263 23.7609C15.9205 24.2225 15.0805 24.2225 14.4747 23.7609C13.5011 23.0192 12.2761 22.6872 11.0612 22.836C10.3103 22.928 9.58973 22.5102 9.29653 21.8129L9.27967 21.7727C8.80571 20.6455 7.91491 19.7447 6.79302 19.2582C6.08546 18.9514 5.66309 18.2166 5.75404 17.4508L5.7591 17.4082C5.90323 16.1946 5.57921 14.9717 4.85306 13.9887C4.38297 13.3523 4.38297 12.4838 4.85306 11.8474C5.57921 10.8644 5.90323 9.6415 5.7591 8.42791L5.75404 8.38532C5.66309 7.61947 6.08546 6.8847 6.79302 6.57786C7.91491 6.09136 8.80571 5.19058 9.27967 4.06333L9.29653 4.02323C9.58973 3.32591 10.3103 2.9081 11.0612 3.00007C12.2761 3.14888 13.5011 2.81685 14.4747 2.07515C15.0805 1.61358 15.9205 1.61358 16.5263 2.07515C17.4998 2.81685 18.7249 3.14888 19.9398 3.00007C20.6907 2.9081 21.4113 3.32591 21.7044 4.02323Z" fill="#509BE1"/>
<path d="M21.5234 24.0529L23.7382 29.5695L20.4245 28.1536L19.0303 31.5189L16.9617 27.3191" stroke="#509BE1" stroke-width="1.2" stroke-linecap="round" stroke-linejoin="round"/>
<path fill-rule="evenodd" clip-rule="evenodd" d="M21.2888 7.45986C19.8557 5.97254 17.8571 5.0495 15.6462 5.0495C11.2863 5.0495 7.75195 8.63885 7.75195 13.0665C7.75195 17.4942 11.2863 21.0836 15.6462 21.0836C20.006 21.0836 23.5404 17.4942 23.5404 13.0665C23.5404 12.159 23.3919 11.2868 23.1183 10.4734L21.8867 11.638C21.9873 12.0972 22.0404 12.5752 22.0404 13.0665C22.0404 16.6877 19.1559 19.5836 15.6462 19.5836C12.1365 19.5836 9.25195 16.6877 9.25195 13.0665C9.25195 9.44536 12.1365 6.5495 15.6462 6.5495C17.421 6.5495 19.036 7.29007 20.1989 8.49051L21.2888 7.45986Z" fill="#509BE1"/>
<path d="M26.4644 4.75256L16.0315 15.4419L13.3184 12.729" stroke="#509BE1" stroke-width="1.2" stroke-linecap="round" stroke-linejoin="round"/>
<path d="M9.38281 24.0529L7.16805 29.5695L10.4817 28.1536L11.8759 31.5189L13.7465 27.1706" stroke="#509BE1" stroke-width="1.2" stroke-linecap="round" stroke-linejoin="round"/>
</g>
<defs>
<clipPath id="clip0_1137_193294">
<rect width="32" height="32" fill="white"/>
</clipPath>
</defs>
</svg>
