<svg width="32" height="32" viewBox="0 0 32 32" fill="none" xmlns="http://www.w3.org/2000/svg">
<path d="M28.13 16.6276C28.13 9.63819 22.4918 4 15.5608 4H14.9937C8.3296 4.3086 3 9.81335 3 16.5525C3 23.2916 8.63819 29.1133 15.5775 29.1133C16.4449 29.1133 17.2873 28.7463 17.9629 28.0708L27.0874 18.9546C27.7463 18.2957 28.1133 17.4699 28.13 16.6192V16.6276ZM15.1021 27.7371V28.2042H14.635C11.5907 27.9456 8.82169 26.5611 6.81162 24.3092C4.80155 22.0406 3.76733 19.1297 3.8841 16.1188C4.0092 13.1162 5.27696 10.2971 7.46218 8.1786C9.6474 6.08513 12.5082 4.9258 15.5358 4.9258C18.5634 4.9258 21.2574 5.99339 23.4426 8.01179C25.5695 9.96347 26.8873 12.6241 27.1542 15.5266V15.9186L27.1625 16.1021H25.5027H25.5194C23.5844 16.1104 22.2249 16.2022 21.0906 16.5942C19.8312 17.0279 18.6635 17.7619 17.7127 18.7043C16.7535 19.6635 16.0196 20.8312 15.5942 22.0739C15.1188 23.4167 15.0854 25.1015 15.0854 27.7205L15.1021 27.7371ZM26.4702 18.279L17.3457 27.3952C17.1622 27.5787 16.9537 27.7371 16.7452 27.8622L16.7118 27.8956L16.0446 28.2376V27.4702C16.0446 24.8513 16.0863 23.4918 16.4866 22.3492C16.8786 21.2232 17.5292 20.1806 18.3883 19.3215C19.2473 18.4708 20.2899 17.8119 21.4159 17.4199C22.5335 17.0196 23.9014 16.9779 26.5453 16.9779H27.3293L26.9373 17.6534C26.7872 17.9037 26.637 18.1038 26.4619 18.2706L26.4702 18.279Z" fill="black" stroke="black" stroke-width="0.4"/>
<path d="M21.9628 14.2838C21.6124 13.7667 21.2288 13.283 20.8201 12.7909L20.7784 12.7408C20.5699 12.5073 20.3864 12.2821 20.1779 12.0819C19.9694 11.8734 19.6524 11.8317 19.4189 12.0069C19.2854 12.0986 19.2104 12.207 19.127 12.3071C19.0352 12.4406 18.9602 12.599 18.8768 12.7575C18.7433 13.0328 18.6182 13.308 18.4931 13.5916C18.2846 14.067 18.0761 14.5424 17.8509 14.9594C17.3421 15.8852 16.7749 16.8194 15.8158 17.203C15.5239 17.3365 15.2903 17.3865 15.1235 17.3782C15.0068 17.3782 14.9233 17.3281 14.8066 17.2197C14.6648 17.0779 14.5313 16.9194 14.3979 16.761C14.2644 16.6025 14.1393 16.444 14.0059 16.3106C13.714 15.9936 13.3887 15.7017 12.9967 15.4432C12.7381 15.2597 12.4462 15.0595 12.1043 14.9928C12.0542 14.9928 11.9875 14.9761 11.9374 14.9761C11.7539 14.9761 11.5871 15.0261 11.437 15.1346C11.2702 15.2513 11.1367 15.4098 11.045 15.5266C10.9116 15.7017 10.7948 15.8852 10.678 16.0687L10.653 16.1104C10.5613 16.2522 10.4528 16.4023 10.3527 16.5441C10.1192 16.8861 9.85231 17.1863 9.60209 17.4699C9.46864 17.6284 9.32686 17.7869 9.19341 17.9453C8.8014 18.4207 8.4094 18.9462 8.16752 19.555C7.85058 20.3557 8.03407 21.0063 8.67629 21.4233C8.72634 21.4483 8.88481 21.3983 8.93485 21.3149C8.98489 21.2398 8.95987 21.1397 8.89315 21.0897C8.43442 20.7728 8.32599 20.3224 8.59289 19.7302C8.90983 19.0046 9.4603 18.3957 9.98576 17.8452C10.2777 17.5533 10.5529 17.228 10.7948 16.8944C10.9116 16.7359 11.0283 16.5608 11.1451 16.4107C11.2619 16.2355 11.3786 16.0687 11.4954 15.9269C11.5454 15.8602 11.6122 15.7935 11.6622 15.7267C11.7957 15.5933 11.9124 15.5933 12.1376 15.7017C12.7298 16.0353 13.2886 16.5608 13.8307 17.2531C13.9725 17.4366 14.0893 17.595 14.2394 17.7535C14.7899 18.3373 15.4738 18.1372 15.724 18.0537C15.8908 18.0037 16.0493 17.9453 16.1994 17.8786C16.7916 17.6451 17.3254 17.178 17.8509 16.469C18.4264 15.6934 18.8434 14.7926 19.2688 13.9419C19.3855 13.7083 19.494 13.4665 19.594 13.2413L19.7025 13.0161L19.8609 13.2162C20.278 13.7334 20.7033 14.2838 21.0953 14.876C21.896 16.077 22.4048 17.0362 22.7384 17.987C22.8969 18.4458 23.0303 18.9879 22.9219 19.48C22.8051 19.9971 22.263 20.2723 21.3205 20.314H20.7951C19.6691 20.3557 18.5014 20.3307 17.3504 20.264L16.7249 20.2223C15.2653 20.1305 14.0142 20.0388 12.4379 20.631C12.3711 20.656 12.3294 20.8061 12.3628 20.9062C12.3878 20.9813 12.4712 21.0397 12.563 21.0146C12.7632 20.9729 12.9466 20.9396 13.1552 20.9062C13.7223 20.8145 14.3061 20.7894 14.8983 20.8311C15.4238 20.8728 15.9576 20.9479 16.4497 21.0146C16.7249 21.0563 17.0168 21.0897 17.2921 21.1231C18.5515 21.2815 19.8609 21.3566 21.3205 21.3733H21.3706C22.8135 21.3733 23.756 20.7894 24.0229 19.7552C24.4399 17.912 22.6967 15.3931 21.9544 14.3255L21.9794 14.3005L21.9628 14.2838Z" fill="black"/>
<path d="M12.5878 9.57984C11.9872 9.20452 11.2449 9.44639 10.7195 9.71329C10.7028 9.71329 10.6861 9.73831 10.6778 9.74665C10.6611 9.74665 10.6444 9.74665 10.6277 9.75499C10.1607 10.0135 9.88543 10.3138 9.79368 10.6724C9.71027 10.981 9.79368 11.348 10.0022 11.6149C10.3358 12.0403 10.8779 12.2405 11.4117 12.2405C11.7454 12.2405 12.0706 12.1654 12.3459 12.0403C12.888 11.7817 13.23 11.2313 13.1966 10.6724C13.1799 10.2221 12.9464 9.81337 12.5794 9.58818V9.56316L12.5878 9.57984ZM10.7612 10.1053C10.7612 10.1053 10.7945 10.097 10.8029 10.0803C10.8196 10.0803 10.8362 10.0803 10.8446 10.0719C11.3367 9.82172 11.8037 9.78835 12.104 9.97184C12.2708 10.0719 12.3626 10.2221 12.3876 10.4056C12.4126 10.6141 12.3125 10.8309 12.1624 10.981C12.0456 11.0895 11.8788 11.1812 11.662 11.2313C11.32 11.3063 11.0364 11.3147 10.7945 11.2563C10.5443 11.1979 10.3442 11.0561 10.2858 10.8976C10.1607 10.5724 10.536 10.2471 10.7528 10.1303H10.7612V10.1053Z" fill="black"/>
<path opacity="0.2" d="M26.4725 18.2789L17.348 27.3951C17.1645 27.5786 16.956 27.7371 16.7475 27.8622L16.7141 27.8955L16.0469 28.2375V27.4702C16.0469 24.8512 16.0886 23.4917 16.4889 22.3491C16.8809 21.2231 17.5315 20.1805 18.3906 19.3215C19.2496 18.4707 20.2922 17.8118 21.4182 17.4198C22.5358 17.0195 23.9036 16.9778 26.5476 16.9778H27.3316L26.9396 17.6534C26.7895 17.9036 26.6393 18.1038 26.4642 18.2706L26.4725 18.2789Z" fill="black"/>
<path d="M22.7546 17.9872C22.9131 18.4459 23.0466 18.988 22.9381 19.4801C22.8214 19.9972 22.2792 20.2725 21.3368 20.3142H20.8113C19.7604 20.3475 18.6678 20.3308 17.5919 20.2725C17.4 20.5394 17.2249 20.8063 17.0664 21.0898C17.1415 21.0982 17.2165 21.1065 17.2833 21.1149C18.5427 21.2733 19.8521 21.3484 21.3117 21.3651H21.3618C22.8047 21.3651 23.7472 20.7812 24.0141 19.747C24.2059 18.9213 23.9557 17.9538 23.5553 17.0447C23.13 17.0697 22.763 17.1114 22.421 17.1698C22.5461 17.445 22.6629 17.7203 22.7546 17.9955V17.9872Z" fill="#282828"/>
</svg>
