<svg width="24" height="24" viewBox="0 0 24 24" fill="none" xmlns="http://www.w3.org/2000/svg">
<path fill-rule="evenodd" clip-rule="evenodd" d="M1.70704 0.292911C1.31654 -0.097637 0.683418 -0.097637 0.292917 0.292911C-0.0975833 0.683459 -0.0975833 1.31666 0.292917 1.70721L10.5852 12.0008L0.292895 22.2929C-0.0976318 22.6835 -0.0976318 23.3166 0.292895 23.7072C0.683422 24.0977 1.31659 24.0977 1.70712 23.7072L11.9993 13.4151L22.2915 23.7085C22.682 24.099 23.3151 24.099 23.7056 23.7085C24.0961 23.3179 24.0961 22.6847 23.7056 22.2942L13.4136 12.0009L23.7072 1.70739C24.0977 1.31687 24.0977 0.683708 23.7072 0.293186C23.3167 -0.0973353 22.6835 -0.0973336 22.293 0.293188L11.9994 10.5866L1.70704 0.292911Z" fill="white"/>
</svg>
