<svg width="200" height="264" viewBox="0 0 200 264" fill="none" xmlns="http://www.w3.org/2000/svg">
<path d="M5.76 257C5.65333 257 5.56267 256.968 5.488 256.904C5.424 256.829 5.392 256.739 5.392 256.632V246.184C5.392 246.067 5.424 245.976 5.488 245.912C5.56267 245.837 5.65333 245.8 5.76 245.8H6.56C6.688 245.8 6.784 245.832 6.848 245.896C6.912 245.96 6.94933 246.013 6.96 246.056L10.352 252.52L13.76 246.056C13.7813 246.013 13.8187 245.96 13.872 245.896C13.936 245.832 14.032 245.8 14.16 245.8H14.944C15.0613 245.8 15.152 245.837 15.216 245.912C15.2907 245.976 15.328 246.067 15.328 246.184V256.632C15.328 256.739 15.2907 256.829 15.216 256.904C15.152 256.968 15.0613 257 14.944 257H14.16C14.0533 257 13.9627 256.968 13.888 256.904C13.824 256.829 13.792 256.739 13.792 256.632V248.76L11.12 253.976C11.0773 254.083 11.0133 254.168 10.928 254.232C10.8427 254.285 10.736 254.312 10.608 254.312H10.112C9.97333 254.312 9.86133 254.285 9.776 254.232C9.70133 254.168 9.63733 254.083 9.584 253.976L6.912 248.76V256.632C6.912 256.739 6.87467 256.829 6.8 256.904C6.736 256.968 6.65067 257 6.544 257H5.76ZM20.2071 257.16C19.6738 257.16 19.1885 257.053 18.7511 256.84C18.3138 256.627 17.9618 256.339 17.6951 255.976C17.4285 255.613 17.2951 255.203 17.2951 254.744C17.2951 254.008 17.5938 253.421 18.1911 252.984C18.7885 252.547 19.5671 252.259 20.5271 252.12L22.9111 251.784V251.32C22.9111 250.808 22.7618 250.408 22.4631 250.12C22.1751 249.832 21.7005 249.688 21.0391 249.688C20.5591 249.688 20.1698 249.784 19.8711 249.976C19.5831 250.168 19.3805 250.413 19.2631 250.712C19.1991 250.872 19.0871 250.952 18.9271 250.952H18.2071C18.0898 250.952 17.9991 250.92 17.9351 250.856C17.8818 250.781 17.8551 250.696 17.8551 250.6C17.8551 250.44 17.9138 250.243 18.0311 250.008C18.1591 249.773 18.3511 249.544 18.6071 249.32C18.8631 249.096 19.1885 248.909 19.5831 248.76C19.9885 248.6 20.4791 248.52 21.0551 248.52C21.6951 248.52 22.2338 248.605 22.6711 248.776C23.1085 248.936 23.4498 249.155 23.6951 249.432C23.9511 249.709 24.1325 250.024 24.2391 250.376C24.3565 250.728 24.4151 251.085 24.4151 251.448V256.632C24.4151 256.739 24.3778 256.829 24.3031 256.904C24.2391 256.968 24.1538 257 24.0471 257H23.3111C23.1938 257 23.1031 256.968 23.0391 256.904C22.9751 256.829 22.9431 256.739 22.9431 256.632V255.944C22.8045 256.136 22.6178 256.328 22.3831 256.52C22.1485 256.701 21.8551 256.856 21.5031 256.984C21.1511 257.101 20.7191 257.16 20.2071 257.16ZM20.5431 255.96C20.9805 255.96 21.3805 255.869 21.7431 255.688C22.1058 255.496 22.3885 255.203 22.5911 254.808C22.8045 254.413 22.9111 253.917 22.9111 253.32V252.872L21.0551 253.144C20.2978 253.251 19.7271 253.432 19.3431 253.688C18.9591 253.933 18.7671 254.248 18.7671 254.632C18.7671 254.931 18.8525 255.181 19.0231 255.384C19.2045 255.576 19.4285 255.72 19.6951 255.816C19.9725 255.912 20.2551 255.96 20.5431 255.96ZM26.3313 257C26.2459 257 26.1659 256.968 26.0913 256.904C26.0273 256.84 25.9953 256.76 25.9953 256.664C25.9953 256.632 26.0006 256.595 26.0113 256.552C26.0326 256.499 26.0646 256.44 26.1073 256.376L28.8913 252.744L26.2833 249.304C26.2406 249.24 26.2086 249.187 26.1873 249.144C26.1766 249.101 26.1713 249.059 26.1713 249.016C26.1713 248.92 26.2033 248.84 26.2673 248.776C26.3313 248.712 26.4113 248.68 26.5073 248.68H27.3233C27.4406 248.68 27.5259 248.712 27.5793 248.776C27.6433 248.829 27.6966 248.883 27.7393 248.936L29.8673 251.704L31.9953 248.952C32.0379 248.899 32.0859 248.84 32.1393 248.776C32.2033 248.712 32.2939 248.68 32.4113 248.68H33.1953C33.2913 248.68 33.3713 248.712 33.4353 248.776C33.4993 248.84 33.5312 248.92 33.5312 249.016C33.5312 249.059 33.5206 249.101 33.4993 249.144C33.4886 249.187 33.4619 249.24 33.4193 249.304L30.7793 252.776L33.5633 256.376C33.6059 256.44 33.6326 256.493 33.6433 256.536C33.6646 256.579 33.6753 256.621 33.6753 256.664C33.6753 256.76 33.6433 256.84 33.5793 256.904C33.5153 256.968 33.4353 257 33.3393 257H32.4913C32.3846 257 32.2993 256.973 32.2353 256.92C32.1713 256.867 32.1179 256.813 32.0753 256.76L29.8193 253.832L27.5633 256.76C27.5206 256.803 27.4673 256.856 27.4033 256.92C27.3499 256.973 27.2646 257 27.1473 257H26.3313ZM35.7083 257C35.6016 257 35.5109 256.968 35.4363 256.904C35.3723 256.829 35.3403 256.739 35.3403 256.632V249.048C35.3403 248.941 35.3723 248.856 35.4363 248.792C35.5109 248.717 35.6016 248.68 35.7083 248.68H36.4763C36.5829 248.68 36.6683 248.717 36.7323 248.792C36.7963 248.856 36.8283 248.941 36.8283 249.048V256.632C36.8283 256.739 36.7963 256.829 36.7323 256.904C36.6683 256.968 36.5829 257 36.4763 257H35.7083ZM35.5803 247.128C35.4736 247.128 35.3829 247.096 35.3083 247.032C35.2443 246.957 35.2122 246.867 35.2122 246.76V245.896C35.2122 245.789 35.2443 245.704 35.3083 245.64C35.3829 245.565 35.4736 245.528 35.5803 245.528H36.5883C36.6949 245.528 36.7803 245.565 36.8443 245.64C36.9189 245.704 36.9563 245.789 36.9563 245.896V246.76C36.9563 246.867 36.9189 246.957 36.8443 247.032C36.7803 247.096 36.6949 247.128 36.5883 247.128H35.5803ZM39.7395 257C39.6328 257 39.5422 256.968 39.4675 256.904C39.4035 256.829 39.3715 256.739 39.3715 256.632V249.048C39.3715 248.941 39.4035 248.856 39.4675 248.792C39.5422 248.717 39.6328 248.68 39.7395 248.68H40.4595C40.5662 248.68 40.6515 248.717 40.7155 248.792C40.7902 248.856 40.8275 248.941 40.8275 249.048V249.608C41.0728 249.277 41.3822 249.016 41.7555 248.824C42.1288 248.621 42.5768 248.52 43.0995 248.52C44.3048 248.509 45.1582 249 45.6595 249.992C45.9048 249.544 46.2622 249.187 46.7315 248.92C47.2008 248.653 47.7342 248.52 48.3315 248.52C48.8862 248.52 49.3875 248.648 49.8355 248.904C50.2942 249.16 50.6515 249.549 50.9075 250.072C51.1742 250.584 51.3075 251.229 51.3075 252.008V256.632C51.3075 256.739 51.2702 256.829 51.1955 256.904C51.1315 256.968 51.0462 257 50.9395 257H50.1875C50.0808 257 49.9902 256.968 49.9155 256.904C49.8515 256.829 49.8195 256.739 49.8195 256.632V252.152C49.8195 251.555 49.7342 251.085 49.5635 250.744C49.3928 250.403 49.1635 250.163 48.8755 250.024C48.5875 249.885 48.2728 249.816 47.9315 249.816C47.6542 249.816 47.3715 249.885 47.0835 250.024C46.7955 250.163 46.5555 250.403 46.3635 250.744C46.1822 251.085 46.0915 251.555 46.0915 252.152V256.632C46.0915 256.739 46.0542 256.829 45.9795 256.904C45.9155 256.968 45.8302 257 45.7235 257H44.9715C44.8648 257 44.7742 256.968 44.6995 256.904C44.6355 256.829 44.6035 256.739 44.6035 256.632V252.152C44.6035 251.555 44.5128 251.085 44.3315 250.744C44.1502 250.403 43.9155 250.163 43.6275 250.024C43.3395 249.885 43.0355 249.816 42.7155 249.816C42.4382 249.816 42.1555 249.885 41.8675 250.024C41.5795 250.163 41.3395 250.403 41.1475 250.744C40.9662 251.085 40.8755 251.549 40.8755 252.136V256.632C40.8755 256.739 40.8382 256.829 40.7635 256.904C40.6995 256.968 40.6142 257 40.5075 257H39.7395ZM56.6943 257.16C56.0116 257.16 55.4303 257.011 54.9503 256.712C54.4809 256.403 54.1236 255.976 53.8783 255.432C53.6329 254.888 53.5103 254.264 53.5103 253.56V249.048C53.5103 248.941 53.5423 248.856 53.6063 248.792C53.6809 248.717 53.7716 248.68 53.8783 248.68H54.6783C54.7849 248.68 54.8703 248.717 54.9343 248.792C55.0089 248.856 55.0463 248.941 55.0463 249.048V253.48C55.0463 255.069 55.7396 255.864 57.1263 255.864C57.7876 255.864 58.3156 255.656 58.7103 255.24C59.1156 254.813 59.3183 254.227 59.3183 253.48V249.048C59.3183 248.941 59.3503 248.856 59.4143 248.792C59.4889 248.717 59.5796 248.68 59.6863 248.68H60.4703C60.5876 248.68 60.6783 248.717 60.7423 248.792C60.8063 248.856 60.8383 248.941 60.8383 249.048V256.632C60.8383 256.739 60.8063 256.829 60.7423 256.904C60.6783 256.968 60.5876 257 60.4703 257H59.7343C59.6276 257 59.5369 256.968 59.4623 256.904C59.3983 256.829 59.3663 256.739 59.3663 256.632V255.928C59.0783 256.301 58.7263 256.6 58.3103 256.824C57.9049 257.048 57.3663 257.16 56.6943 257.16ZM63.5833 257C63.4766 257 63.3859 256.968 63.3113 256.904C63.2473 256.829 63.2153 256.739 63.2153 256.632V249.048C63.2153 248.941 63.2473 248.856 63.3113 248.792C63.3859 248.717 63.4766 248.68 63.5833 248.68H64.3033C64.4099 248.68 64.4953 248.717 64.5593 248.792C64.6339 248.856 64.6713 248.941 64.6713 249.048V249.608C64.9166 249.277 65.2259 249.016 65.5993 248.824C65.9726 248.621 66.4206 248.52 66.9433 248.52C68.1486 248.509 69.0019 249 69.5033 249.992C69.7486 249.544 70.1059 249.187 70.5753 248.92C71.0446 248.653 71.5779 248.52 72.1753 248.52C72.7299 248.52 73.2313 248.648 73.6793 248.904C74.1379 249.16 74.4953 249.549 74.7513 250.072C75.0179 250.584 75.1513 251.229 75.1513 252.008V256.632C75.1513 256.739 75.1139 256.829 75.0393 256.904C74.9753 256.968 74.8899 257 74.7833 257H74.0313C73.9246 257 73.8339 256.968 73.7593 256.904C73.6953 256.829 73.6633 256.739 73.6633 256.632V252.152C73.6633 251.555 73.5779 251.085 73.4073 250.744C73.2366 250.403 73.0073 250.163 72.7193 250.024C72.4313 249.885 72.1166 249.816 71.7753 249.816C71.4979 249.816 71.2153 249.885 70.9273 250.024C70.6393 250.163 70.3993 250.403 70.2073 250.744C70.0259 251.085 69.9353 251.555 69.9353 252.152V256.632C69.9353 256.739 69.8979 256.829 69.8233 256.904C69.7593 256.968 69.6739 257 69.5673 257H68.8153C68.7086 257 68.6179 256.968 68.5433 256.904C68.4793 256.829 68.4473 256.739 68.4473 256.632V252.152C68.4473 251.555 68.3566 251.085 68.1753 250.744C67.9939 250.403 67.7593 250.163 67.4713 250.024C67.1833 249.885 66.8793 249.816 66.5593 249.816C66.2819 249.816 65.9993 249.885 65.7113 250.024C65.4233 250.163 65.1833 250.403 64.9913 250.744C64.8099 251.085 64.7193 251.549 64.7193 252.136V256.632C64.7193 256.739 64.6819 256.829 64.6073 256.904C64.5433 256.968 64.4579 257 64.3513 257H63.5833ZM82.259 257C82.1523 257 82.0617 256.968 81.987 256.904C81.923 256.829 81.891 256.739 81.891 256.632V249.96H80.531C80.4243 249.96 80.3337 249.928 80.259 249.864C80.195 249.789 80.163 249.699 80.163 249.592V249.048C80.163 248.941 80.195 248.856 80.259 248.792C80.3337 248.717 80.4243 248.68 80.531 248.68H81.891V247.88C81.891 247.336 81.9817 246.861 82.163 246.456C82.3443 246.04 82.6323 245.72 83.027 245.496C83.4323 245.272 83.971 245.16 84.643 245.16H87.107C87.2137 245.16 87.299 245.197 87.363 245.272C87.4377 245.336 87.475 245.421 87.475 245.528V246.072C87.475 246.179 87.4377 246.269 87.363 246.344C87.299 246.408 87.2137 246.44 87.107 246.44H84.675C84.1737 246.44 83.8323 246.573 83.651 246.84C83.4697 247.096 83.379 247.469 83.379 247.96V248.68H87.107C87.2137 248.68 87.299 248.717 87.363 248.792C87.4377 248.856 87.475 248.941 87.475 249.048V256.632C87.475 256.739 87.4377 256.829 87.363 256.904C87.299 256.968 87.2137 257 87.107 257H86.371C86.2537 257 86.163 256.968 86.099 256.904C86.035 256.829 86.003 256.739 86.003 256.632V249.96H83.379V256.632C83.379 256.739 83.3417 256.829 83.267 256.904C83.203 256.968 83.1177 257 83.011 257H82.259ZM90.2243 257C90.1176 257 90.0269 256.968 89.9523 256.904C89.8883 256.829 89.8563 256.739 89.8563 256.632V246.008C89.8563 245.901 89.8883 245.816 89.9523 245.752C90.0269 245.677 90.1176 245.64 90.2243 245.64H90.9763C91.0936 245.64 91.1843 245.677 91.2483 245.752C91.3123 245.816 91.3443 245.901 91.3443 246.008V256.632C91.3443 256.739 91.3123 256.829 91.2483 256.904C91.1843 256.968 91.0936 257 90.9763 257H90.2243ZM97.0429 257.16C95.9442 257.16 95.0695 256.824 94.4189 256.152C93.7682 255.469 93.4109 254.541 93.3469 253.368C93.3362 253.229 93.3309 253.053 93.3309 252.84C93.3309 252.616 93.3362 252.435 93.3469 252.296C93.3895 251.539 93.5655 250.877 93.8749 250.312C94.1842 249.736 94.6055 249.293 95.1389 248.984C95.6829 248.675 96.3175 248.52 97.0429 248.52C97.8535 248.52 98.5309 248.691 99.0749 249.032C99.6295 249.373 100.051 249.859 100.339 250.488C100.627 251.117 100.771 251.853 100.771 252.696V252.968C100.771 253.085 100.734 253.176 100.659 253.24C100.595 253.304 100.51 253.336 100.403 253.336H94.8669C94.8669 253.347 94.8669 253.368 94.8669 253.4C94.8669 253.432 94.8669 253.459 94.8669 253.48C94.8882 253.917 94.9842 254.328 95.1549 254.712C95.3255 255.085 95.5709 255.389 95.8909 255.624C96.2109 255.859 96.5949 255.976 97.0429 255.976C97.4269 255.976 97.7469 255.917 98.0029 255.8C98.2589 255.683 98.4669 255.555 98.6269 255.416C98.7869 255.267 98.8935 255.155 98.9469 255.08C99.0429 254.941 99.1175 254.861 99.1709 254.84C99.2242 254.808 99.3095 254.792 99.4269 254.792H100.195C100.302 254.792 100.387 254.824 100.451 254.888C100.526 254.941 100.558 255.021 100.547 255.128C100.536 255.288 100.451 255.485 100.291 255.72C100.131 255.944 99.9015 256.168 99.6029 256.392C99.3042 256.616 98.9415 256.803 98.5149 256.952C98.0882 257.091 97.5975 257.16 97.0429 257.16ZM94.8669 252.232H99.2509V252.184C99.2509 251.704 99.1602 251.277 98.9789 250.904C98.8082 250.531 98.5575 250.237 98.2269 250.024C97.8962 249.8 97.5015 249.688 97.0429 249.688C96.5842 249.688 96.1895 249.8 95.8589 250.024C95.5389 250.237 95.2935 250.531 95.1229 250.904C94.9522 251.277 94.8669 251.704 94.8669 252.184V252.232ZM109.486 257.16C108.889 257.16 108.377 257.085 107.95 256.936C107.523 256.787 107.177 256.605 106.91 256.392C106.643 256.179 106.441 255.965 106.302 255.752C106.174 255.539 106.105 255.368 106.094 255.24C106.083 255.123 106.121 255.032 106.206 254.968C106.291 254.904 106.377 254.872 106.462 254.872H107.166C107.23 254.872 107.278 254.883 107.31 254.904C107.353 254.915 107.406 254.957 107.47 255.032C107.609 255.181 107.763 255.331 107.934 255.48C108.105 255.629 108.313 255.752 108.558 255.848C108.814 255.944 109.129 255.992 109.502 255.992C110.046 255.992 110.494 255.891 110.846 255.688C111.198 255.475 111.374 255.165 111.374 254.76C111.374 254.493 111.299 254.28 111.15 254.12C111.011 253.96 110.755 253.816 110.382 253.688C110.019 253.56 109.518 253.427 108.878 253.288C108.238 253.139 107.731 252.957 107.358 252.744C106.985 252.52 106.718 252.259 106.558 251.96C106.398 251.651 106.318 251.304 106.318 250.92C106.318 250.525 106.435 250.147 106.67 249.784C106.905 249.411 107.246 249.107 107.694 248.872C108.153 248.637 108.723 248.52 109.406 248.52C109.961 248.52 110.435 248.589 110.83 248.728C111.225 248.867 111.55 249.043 111.806 249.256C112.062 249.459 112.254 249.661 112.382 249.864C112.51 250.067 112.579 250.237 112.59 250.376C112.601 250.483 112.569 250.573 112.494 250.648C112.419 250.712 112.334 250.744 112.238 250.744H111.566C111.491 250.744 111.427 250.728 111.374 250.696C111.331 250.664 111.289 250.627 111.246 250.584C111.139 250.445 111.011 250.307 110.862 250.168C110.723 250.029 110.537 249.917 110.302 249.832C110.078 249.736 109.779 249.688 109.406 249.688C108.873 249.688 108.473 249.8 108.206 250.024C107.939 250.248 107.806 250.531 107.806 250.872C107.806 251.075 107.865 251.256 107.982 251.416C108.099 251.576 108.323 251.72 108.654 251.848C108.985 251.976 109.475 252.115 110.126 252.264C110.83 252.403 111.385 252.589 111.79 252.824C112.195 253.059 112.483 253.331 112.654 253.64C112.825 253.949 112.91 254.307 112.91 254.712C112.91 255.16 112.777 255.571 112.51 255.944C112.254 256.317 111.87 256.616 111.358 256.84C110.857 257.053 110.233 257.16 109.486 257.16ZM115.13 257C115.023 257 114.933 256.968 114.858 256.904C114.794 256.829 114.762 256.739 114.762 256.632V249.048C114.762 248.941 114.794 248.856 114.858 248.792C114.933 248.717 115.023 248.68 115.13 248.68H115.898C116.005 248.68 116.09 248.717 116.154 248.792C116.218 248.856 116.25 248.941 116.25 249.048V256.632C116.25 256.739 116.218 256.829 116.154 256.904C116.09 256.968 116.005 257 115.898 257H115.13ZM115.002 247.128C114.895 247.128 114.805 247.096 114.73 247.032C114.666 246.957 114.634 246.867 114.634 246.76V245.896C114.634 245.789 114.666 245.704 114.73 245.64C114.805 245.565 114.895 245.528 115.002 245.528H116.01C116.117 245.528 116.202 245.565 116.266 245.64C116.341 245.704 116.378 245.789 116.378 245.896V246.76C116.378 246.867 116.341 246.957 116.266 247.032C116.202 247.096 116.117 247.128 116.01 247.128H115.002ZM118.555 257C118.449 257 118.358 256.968 118.283 256.904C118.219 256.829 118.187 256.739 118.187 256.632V256.072C118.187 255.976 118.209 255.885 118.251 255.8C118.305 255.715 118.358 255.635 118.411 255.56L122.827 249.944H118.699C118.593 249.944 118.502 249.912 118.427 249.848C118.363 249.784 118.331 249.693 118.331 249.576V249.048C118.331 248.941 118.363 248.856 118.427 248.792C118.502 248.717 118.593 248.68 118.699 248.68H124.395C124.502 248.68 124.587 248.717 124.651 248.792C124.726 248.856 124.763 248.941 124.763 249.048V249.64C124.763 249.736 124.737 249.821 124.683 249.896C124.641 249.971 124.593 250.051 124.539 250.136L120.171 255.736H124.715C124.822 255.736 124.907 255.768 124.971 255.832C125.046 255.896 125.083 255.987 125.083 256.104V256.632C125.083 256.739 125.046 256.829 124.971 256.904C124.907 256.968 124.822 257 124.715 257H118.555ZM130.074 257.16C128.975 257.16 128.101 256.824 127.45 256.152C126.799 255.469 126.442 254.541 126.378 253.368C126.367 253.229 126.362 253.053 126.362 252.84C126.362 252.616 126.367 252.435 126.378 252.296C126.421 251.539 126.597 250.877 126.906 250.312C127.215 249.736 127.637 249.293 128.17 248.984C128.714 248.675 129.349 248.52 130.074 248.52C130.885 248.52 131.562 248.691 132.106 249.032C132.661 249.373 133.082 249.859 133.37 250.488C133.658 251.117 133.802 251.853 133.802 252.696V252.968C133.802 253.085 133.765 253.176 133.69 253.24C133.626 253.304 133.541 253.336 133.434 253.336H127.898C127.898 253.347 127.898 253.368 127.898 253.4C127.898 253.432 127.898 253.459 127.898 253.48C127.919 253.917 128.015 254.328 128.186 254.712C128.357 255.085 128.602 255.389 128.922 255.624C129.242 255.859 129.626 255.976 130.074 255.976C130.458 255.976 130.778 255.917 131.034 255.8C131.29 255.683 131.498 255.555 131.658 255.416C131.818 255.267 131.925 255.155 131.978 255.08C132.074 254.941 132.149 254.861 132.202 254.84C132.255 254.808 132.341 254.792 132.458 254.792H133.226C133.333 254.792 133.418 254.824 133.482 254.888C133.557 254.941 133.589 255.021 133.578 255.128C133.567 255.288 133.482 255.485 133.322 255.72C133.162 255.944 132.933 256.168 132.634 256.392C132.335 256.616 131.973 256.803 131.546 256.952C131.119 257.091 130.629 257.16 130.074 257.16ZM127.898 252.232H132.282V252.184C132.282 251.704 132.191 251.277 132.01 250.904C131.839 250.531 131.589 250.237 131.258 250.024C130.927 249.8 130.533 249.688 130.074 249.688C129.615 249.688 129.221 249.8 128.89 250.024C128.57 250.237 128.325 250.531 128.154 250.904C127.983 251.277 127.898 251.704 127.898 252.184V252.232ZM140.005 257C139.898 257 139.808 256.968 139.733 256.904C139.669 256.829 139.637 256.739 139.637 256.632V249.048C139.637 248.941 139.669 248.856 139.733 248.792C139.808 248.717 139.898 248.68 140.005 248.68H140.773C140.88 248.68 140.965 248.717 141.029 248.792C141.093 248.856 141.125 248.941 141.125 249.048V256.632C141.125 256.739 141.093 256.829 141.029 256.904C140.965 256.968 140.88 257 140.773 257H140.005ZM139.877 247.128C139.77 247.128 139.68 247.096 139.605 247.032C139.541 246.957 139.509 246.867 139.509 246.76V245.896C139.509 245.789 139.541 245.704 139.605 245.64C139.68 245.565 139.77 245.528 139.877 245.528H140.885C140.992 245.528 141.077 245.565 141.141 245.64C141.216 245.704 141.253 245.789 141.253 245.896V246.76C141.253 246.867 141.216 246.957 141.141 247.032C141.077 247.096 140.992 247.128 140.885 247.128H139.877ZM146.486 257.16C145.889 257.16 145.377 257.085 144.95 256.936C144.523 256.787 144.177 256.605 143.91 256.392C143.643 256.179 143.441 255.965 143.302 255.752C143.174 255.539 143.105 255.368 143.094 255.24C143.083 255.123 143.121 255.032 143.206 254.968C143.291 254.904 143.377 254.872 143.462 254.872H144.166C144.23 254.872 144.278 254.883 144.31 254.904C144.353 254.915 144.406 254.957 144.47 255.032C144.609 255.181 144.763 255.331 144.934 255.48C145.105 255.629 145.313 255.752 145.558 255.848C145.814 255.944 146.129 255.992 146.502 255.992C147.046 255.992 147.494 255.891 147.846 255.688C148.198 255.475 148.374 255.165 148.374 254.76C148.374 254.493 148.299 254.28 148.15 254.12C148.011 253.96 147.755 253.816 147.382 253.688C147.019 253.56 146.518 253.427 145.878 253.288C145.238 253.139 144.731 252.957 144.358 252.744C143.985 252.52 143.718 252.259 143.558 251.96C143.398 251.651 143.318 251.304 143.318 250.92C143.318 250.525 143.435 250.147 143.67 249.784C143.905 249.411 144.246 249.107 144.694 248.872C145.153 248.637 145.723 248.52 146.406 248.52C146.961 248.52 147.435 248.589 147.83 248.728C148.225 248.867 148.55 249.043 148.806 249.256C149.062 249.459 149.254 249.661 149.382 249.864C149.51 250.067 149.579 250.237 149.59 250.376C149.601 250.483 149.569 250.573 149.494 250.648C149.419 250.712 149.334 250.744 149.238 250.744H148.566C148.491 250.744 148.427 250.728 148.374 250.696C148.331 250.664 148.289 250.627 148.246 250.584C148.139 250.445 148.011 250.307 147.862 250.168C147.723 250.029 147.537 249.917 147.302 249.832C147.078 249.736 146.779 249.688 146.406 249.688C145.873 249.688 145.473 249.8 145.206 250.024C144.939 250.248 144.806 250.531 144.806 250.872C144.806 251.075 144.865 251.256 144.982 251.416C145.099 251.576 145.323 251.72 145.654 251.848C145.985 251.976 146.475 252.115 147.126 252.264C147.83 252.403 148.385 252.589 148.79 252.824C149.195 253.059 149.483 253.331 149.654 253.64C149.825 253.949 149.91 254.307 149.91 254.712C149.91 255.16 149.777 255.571 149.51 255.944C149.254 256.317 148.87 256.616 148.358 256.84C147.857 257.053 147.233 257.16 146.486 257.16ZM155.652 257C155.545 257 155.455 256.968 155.38 256.904C155.316 256.829 155.284 256.739 155.284 256.632V256.12C155.284 256.024 155.311 255.917 155.364 255.8C155.417 255.683 155.524 255.555 155.684 255.416L159.076 252.024C159.62 251.565 160.047 251.176 160.356 250.856C160.676 250.525 160.9 250.211 161.028 249.912C161.167 249.613 161.236 249.304 161.236 248.984C161.236 248.376 161.065 247.896 160.724 247.544C160.383 247.181 159.876 247 159.204 247C158.777 247 158.409 247.091 158.1 247.272C157.791 247.443 157.545 247.683 157.364 247.992C157.193 248.291 157.081 248.632 157.028 249.016C157.007 249.155 156.948 249.251 156.852 249.304C156.767 249.357 156.687 249.384 156.612 249.384H155.78C155.684 249.384 155.604 249.357 155.54 249.304C155.476 249.24 155.444 249.165 155.444 249.08C155.455 248.675 155.54 248.269 155.7 247.864C155.86 247.448 156.095 247.075 156.404 246.744C156.724 246.413 157.113 246.147 157.572 245.944C158.041 245.731 158.585 245.624 159.204 245.624C160.047 245.624 160.735 245.779 161.268 246.088C161.812 246.387 162.212 246.787 162.468 247.288C162.724 247.789 162.852 248.339 162.852 248.936C162.852 249.405 162.772 249.837 162.612 250.232C162.452 250.616 162.217 250.995 161.908 251.368C161.609 251.731 161.236 252.104 160.788 252.488L157.716 255.608H162.708C162.825 255.608 162.916 255.64 162.98 255.704C163.055 255.768 163.092 255.859 163.092 255.976V256.632C163.092 256.739 163.055 256.829 162.98 256.904C162.916 256.968 162.825 257 162.708 257H155.652ZM168.963 257.16C168.227 257.16 167.603 257.048 167.091 256.824C166.589 256.589 166.179 256.269 165.859 255.864C165.539 255.459 165.304 254.995 165.155 254.472C165.016 253.949 164.936 253.395 164.915 252.808C164.904 252.52 164.893 252.216 164.883 251.896C164.883 251.576 164.883 251.256 164.883 250.936C164.893 250.605 164.904 250.291 164.915 249.992C164.925 249.405 165.005 248.851 165.155 248.328C165.315 247.795 165.549 247.331 165.859 246.936C166.179 246.531 166.595 246.216 167.107 245.992C167.619 245.757 168.237 245.64 168.963 245.64C169.699 245.64 170.317 245.757 170.819 245.992C171.331 246.216 171.747 246.531 172.067 246.936C172.387 247.331 172.621 247.795 172.771 248.328C172.931 248.851 173.016 249.405 173.027 249.992C173.037 250.291 173.043 250.605 173.043 250.936C173.053 251.256 173.053 251.576 173.043 251.896C173.043 252.216 173.037 252.52 173.027 252.808C173.016 253.395 172.931 253.949 172.771 254.472C172.621 254.995 172.387 255.459 172.067 255.864C171.757 256.269 171.347 256.589 170.835 256.824C170.333 257.048 169.709 257.16 168.963 257.16ZM168.963 255.8C169.795 255.8 170.408 255.528 170.803 254.984C171.208 254.429 171.416 253.677 171.427 252.728C171.448 252.419 171.459 252.12 171.459 251.832C171.459 251.533 171.459 251.24 171.459 250.952C171.459 250.653 171.448 250.36 171.427 250.072C171.416 249.144 171.208 248.403 170.803 247.848C170.408 247.283 169.795 247 168.963 247C168.141 247 167.528 247.283 167.123 247.848C166.728 248.403 166.52 249.144 166.499 250.072C166.499 250.36 166.493 250.653 166.483 250.952C166.483 251.24 166.483 251.533 166.483 251.832C166.493 252.12 166.499 252.419 166.499 252.728C166.52 253.677 166.733 254.429 167.139 254.984C167.544 255.528 168.152 255.8 168.963 255.8ZM175.807 257C175.7 257 175.61 256.968 175.535 256.904C175.471 256.829 175.439 256.739 175.439 256.632V246.184C175.439 246.067 175.471 245.976 175.535 245.912C175.61 245.837 175.7 245.8 175.807 245.8H176.607C176.735 245.8 176.831 245.832 176.895 245.896C176.959 245.96 176.996 246.013 177.007 246.056L180.399 252.52L183.807 246.056C183.828 246.013 183.866 245.96 183.919 245.896C183.983 245.832 184.079 245.8 184.207 245.8H184.991C185.108 245.8 185.199 245.837 185.263 245.912C185.338 245.976 185.375 246.067 185.375 246.184V256.632C185.375 256.739 185.338 256.829 185.263 256.904C185.199 256.968 185.108 257 184.991 257H184.207C184.1 257 184.01 256.968 183.935 256.904C183.871 256.829 183.839 256.739 183.839 256.632V248.76L181.167 253.976C181.124 254.083 181.06 254.168 180.975 254.232C180.89 254.285 180.783 254.312 180.655 254.312H180.159C180.02 254.312 179.908 254.285 179.823 254.232C179.748 254.168 179.684 254.083 179.631 253.976L176.959 248.76V256.632C176.959 256.739 176.922 256.829 176.847 256.904C176.783 256.968 176.698 257 176.591 257H175.807ZM188.51 257C188.393 257 188.302 256.968 188.238 256.904C188.174 256.829 188.142 256.739 188.142 256.632V246.184C188.142 246.067 188.174 245.976 188.238 245.912C188.302 245.837 188.393 245.8 188.51 245.8H192.894C193.694 245.8 194.345 245.933 194.846 246.2C195.358 246.456 195.731 246.808 195.966 247.256C196.211 247.704 196.334 248.205 196.334 248.76C196.334 249.197 196.259 249.576 196.11 249.896C195.971 250.205 195.795 250.461 195.582 250.664C195.369 250.856 195.161 251.005 194.958 251.112C195.374 251.315 195.742 251.645 196.062 252.104C196.393 252.563 196.558 253.117 196.558 253.768C196.558 254.355 196.425 254.893 196.158 255.384C195.891 255.875 195.491 256.269 194.958 256.568C194.435 256.856 193.785 257 193.006 257H188.51ZM189.71 255.704H192.798C193.491 255.704 194.025 255.517 194.398 255.144C194.771 254.771 194.958 254.312 194.958 253.768C194.958 253.203 194.771 252.739 194.398 252.376C194.025 252.003 193.491 251.816 192.798 251.816H189.71V255.704ZM189.71 250.536H192.654C193.337 250.536 193.854 250.381 194.206 250.072C194.558 249.752 194.734 249.32 194.734 248.776C194.734 248.232 194.558 247.816 194.206 247.528C193.854 247.24 193.337 247.096 192.654 247.096H189.71V250.536Z" fill="#9F9F9F"/>
<path d="M2.24723 224C2.10789 224 2.00023 223.962 1.92423 223.886C1.84823 223.797 1.81023 223.69 1.81023 223.563V211.156C1.81023 211.017 1.84823 210.909 1.92423 210.833C2.00023 210.744 2.10789 210.7 2.24723 210.7H6.56023C7.86489 210.7 8.91623 210.896 9.71423 211.289C10.5122 211.682 11.0949 212.264 11.4622 213.037C11.8296 213.797 12.0196 214.734 12.0322 215.849C12.0449 216.419 12.0512 216.919 12.0512 217.35C12.0512 217.781 12.0449 218.275 12.0322 218.832C12.0069 219.997 11.8106 220.966 11.4432 221.739C11.0886 222.499 10.5186 223.069 9.73323 223.449C8.96056 223.816 7.93456 224 6.65523 224H2.24723ZM3.67223 222.385H6.56023C7.43423 222.385 8.13089 222.265 8.65023 222.024C9.16956 221.783 9.54323 221.397 9.77123 220.865C10.0119 220.333 10.1386 219.63 10.1512 218.756C10.1766 218.376 10.1892 218.047 10.1892 217.768C10.1892 217.477 10.1892 217.192 10.1892 216.913C10.1892 216.622 10.1766 216.292 10.1512 215.925C10.1259 214.696 9.83456 213.791 9.27723 213.208C8.71989 212.613 7.78256 212.315 6.46523 212.315H3.67223V222.385ZM15.0998 224C14.9732 224 14.8655 223.962 14.7768 223.886C14.7008 223.797 14.6628 223.69 14.6628 223.563V214.576C14.6628 214.449 14.7008 214.342 14.7768 214.253C14.8655 214.164 14.9732 214.12 15.0998 214.12H15.9738C16.1005 214.12 16.2082 214.164 16.2968 214.253C16.3855 214.342 16.4298 214.449 16.4298 214.576V215.412C16.6832 214.981 17.0315 214.658 17.4748 214.443C17.9182 214.228 18.4502 214.12 19.0708 214.12H19.8308C19.9575 214.12 20.0588 214.164 20.1348 214.253C20.2108 214.329 20.2488 214.43 20.2488 214.557V215.336C20.2488 215.463 20.2108 215.564 20.1348 215.64C20.0588 215.716 19.9575 215.754 19.8308 215.754H18.6908C18.0068 215.754 17.4685 215.957 17.0758 216.362C16.6832 216.755 16.4868 217.293 16.4868 217.977V223.563C16.4868 223.69 16.4425 223.797 16.3538 223.886C16.2652 223.962 16.1575 224 16.0308 224H15.0998ZM24.4872 224.19C23.8538 224.19 23.2775 224.063 22.7582 223.81C22.2388 223.557 21.8208 223.215 21.5042 222.784C21.1875 222.353 21.0292 221.866 21.0292 221.321C21.0292 220.447 21.3838 219.75 22.0932 219.231C22.8025 218.712 23.7272 218.37 24.8672 218.205L27.6982 217.806V217.255C27.6982 216.647 27.5208 216.172 27.1662 215.83C26.8242 215.488 26.2605 215.317 25.4752 215.317C24.9052 215.317 24.4428 215.431 24.0882 215.659C23.7462 215.887 23.5055 216.178 23.3662 216.533C23.2902 216.723 23.1572 216.818 22.9672 216.818H22.1122C21.9728 216.818 21.8652 216.78 21.7892 216.704C21.7258 216.615 21.6942 216.514 21.6942 216.4C21.6942 216.21 21.7638 215.976 21.9032 215.697C22.0552 215.418 22.2832 215.146 22.5872 214.88C22.8912 214.614 23.2775 214.392 23.7462 214.215C24.2275 214.025 24.8102 213.93 25.4942 213.93C26.2542 213.93 26.8938 214.031 27.4132 214.234C27.9325 214.424 28.3378 214.684 28.6292 215.013C28.9332 215.342 29.1485 215.716 29.2752 216.134C29.4145 216.552 29.4842 216.976 29.4842 217.407V223.563C29.4842 223.69 29.4398 223.797 29.3512 223.886C29.2752 223.962 29.1738 224 29.0472 224H28.1732C28.0338 224 27.9262 223.962 27.8502 223.886C27.7742 223.797 27.7362 223.69 27.7362 223.563V222.746C27.5715 222.974 27.3498 223.202 27.0712 223.43C26.7925 223.645 26.4442 223.829 26.0262 223.981C25.6082 224.12 25.0952 224.19 24.4872 224.19ZM24.8862 222.765C25.4055 222.765 25.8805 222.657 26.3112 222.442C26.7418 222.214 27.0775 221.866 27.3182 221.397C27.5715 220.928 27.6982 220.339 27.6982 219.63V219.098L25.4942 219.421C24.5948 219.548 23.9172 219.763 23.4612 220.067C23.0052 220.358 22.7772 220.732 22.7772 221.188C22.7772 221.543 22.8785 221.84 23.0812 222.081C23.2965 222.309 23.5625 222.48 23.8792 222.594C24.2085 222.708 24.5442 222.765 24.8862 222.765ZM36.2626 228.18C35.4012 228.18 34.6919 228.066 34.1346 227.838C33.5899 227.61 33.1592 227.331 32.8426 227.002C32.5386 226.685 32.3169 226.362 32.1776 226.033C32.0509 225.716 31.9812 225.463 31.9686 225.273C31.9559 225.146 31.9939 225.039 32.0826 224.95C32.1839 224.861 32.2916 224.817 32.4056 224.817H33.3176C33.4316 224.817 33.5266 224.842 33.6026 224.893C33.6786 224.944 33.7419 225.051 33.7926 225.216C33.8686 225.406 33.9826 225.615 34.1346 225.843C34.2866 226.084 34.5209 226.286 34.8376 226.451C35.1542 226.628 35.5976 226.717 36.1676 226.717C36.7629 226.717 37.2632 226.635 37.6686 226.47C38.0739 226.318 38.3779 226.039 38.5806 225.634C38.7959 225.241 38.9036 224.697 38.9036 224V222.708C38.5996 223.101 38.2006 223.43 37.7066 223.696C37.2126 223.949 36.5919 224.076 35.8446 224.076C35.1352 224.076 34.5272 223.956 34.0206 223.715C33.5139 223.462 33.0959 223.126 32.7666 222.708C32.4499 222.277 32.2092 221.79 32.0446 221.245C31.8926 220.7 31.8039 220.13 31.7786 219.535C31.7659 219.18 31.7659 218.832 31.7786 218.49C31.8039 217.895 31.8926 217.325 32.0446 216.78C32.2092 216.235 32.4499 215.748 32.7666 215.317C33.0959 214.886 33.5139 214.551 34.0206 214.31C34.5272 214.057 35.1352 213.93 35.8446 213.93C36.6046 213.93 37.2316 214.076 37.7256 214.367C38.2322 214.646 38.6439 214.988 38.9606 215.393V214.576C38.9606 214.449 38.9986 214.342 39.0746 214.253C39.1632 214.164 39.2709 214.12 39.3976 214.12H40.2716C40.3982 214.12 40.5059 214.164 40.5946 214.253C40.6832 214.342 40.7276 214.449 40.7276 214.576V223.791C40.7276 224.64 40.5819 225.393 40.2906 226.052C40.0119 226.711 39.5432 227.23 38.8846 227.61C38.2386 227.99 37.3646 228.18 36.2626 228.18ZM36.2246 222.556C36.8579 222.556 37.3646 222.41 37.7446 222.119C38.1372 221.828 38.4222 221.46 38.5996 221.017C38.7896 220.574 38.8909 220.124 38.9036 219.668C38.9162 219.491 38.9226 219.275 38.9226 219.022C38.9226 218.756 38.9162 218.534 38.9036 218.357C38.8909 217.901 38.7896 217.451 38.5996 217.008C38.4222 216.565 38.1372 216.197 37.7446 215.906C37.3646 215.615 36.8579 215.469 36.2246 215.469C35.5912 215.469 35.0846 215.615 34.7046 215.906C34.3246 216.185 34.0522 216.558 33.8876 217.027C33.7229 217.483 33.6279 217.977 33.6026 218.509C33.5899 218.838 33.5899 219.174 33.6026 219.516C33.6279 220.048 33.7229 220.548 33.8876 221.017C34.0522 221.473 34.3246 221.847 34.7046 222.138C35.0846 222.417 35.5912 222.556 36.2246 222.556ZM50.9647 224.19C50.3314 224.19 49.755 224.063 49.2357 223.81C48.7164 223.557 48.2984 223.215 47.9817 222.784C47.665 222.353 47.5067 221.866 47.5067 221.321C47.5067 220.447 47.8614 219.75 48.5707 219.231C49.28 218.712 50.2047 218.37 51.3447 218.205L54.1757 217.806V217.255C54.1757 216.647 53.9984 216.172 53.6437 215.83C53.3017 215.488 52.738 215.317 51.9527 215.317C51.3827 215.317 50.9204 215.431 50.5657 215.659C50.2237 215.887 49.983 216.178 49.8437 216.533C49.7677 216.723 49.6347 216.818 49.4447 216.818H48.5897C48.4504 216.818 48.3427 216.78 48.2667 216.704C48.2034 216.615 48.1717 216.514 48.1717 216.4C48.1717 216.21 48.2414 215.976 48.3807 215.697C48.5327 215.418 48.7607 215.146 49.0647 214.88C49.3687 214.614 49.755 214.392 50.2237 214.215C50.705 214.025 51.2877 213.93 51.9717 213.93C52.7317 213.93 53.3714 214.031 53.8907 214.234C54.41 214.424 54.8154 214.684 55.1067 215.013C55.4107 215.342 55.626 215.716 55.7527 216.134C55.892 216.552 55.9617 216.976 55.9617 217.407V223.563C55.9617 223.69 55.9174 223.797 55.8287 223.886C55.7527 223.962 55.6514 224 55.5247 224H54.6507C54.5114 224 54.4037 223.962 54.3277 223.886C54.2517 223.797 54.2137 223.69 54.2137 223.563V222.746C54.049 222.974 53.8274 223.202 53.5487 223.43C53.27 223.645 52.9217 223.829 52.5037 223.981C52.0857 224.12 51.5727 224.19 50.9647 224.19ZM51.3637 222.765C51.883 222.765 52.358 222.657 52.7887 222.442C53.2194 222.214 53.555 221.866 53.7957 221.397C54.049 220.928 54.1757 220.339 54.1757 219.63V219.098L51.9717 219.421C51.0724 219.548 50.3947 219.763 49.9387 220.067C49.4827 220.358 49.2547 220.732 49.2547 221.188C49.2547 221.543 49.356 221.84 49.5587 222.081C49.774 222.309 50.04 222.48 50.3567 222.594C50.686 222.708 51.0217 222.765 51.3637 222.765ZM59.1301 224C59.0034 224 58.8958 223.962 58.8071 223.886C58.7311 223.797 58.6931 223.69 58.6931 223.563V214.557C58.6931 214.43 58.7311 214.329 58.8071 214.253C58.8958 214.164 59.0034 214.12 59.1301 214.12H60.0231C60.1498 214.12 60.2511 214.164 60.3271 214.253C60.4158 214.329 60.4601 214.43 60.4601 214.557V215.393C60.7894 214.962 61.2011 214.614 61.6951 214.348C62.2018 214.069 62.8478 213.93 63.6331 213.93C64.4564 213.93 65.1531 214.114 65.7231 214.481C66.3058 214.836 66.7428 215.336 67.0341 215.982C67.3254 216.615 67.4711 217.356 67.4711 218.205V223.563C67.4711 223.69 67.4331 223.797 67.3571 223.886C67.2811 223.962 67.1798 224 67.0531 224H66.1031C65.9764 224 65.8688 223.962 65.7801 223.886C65.7041 223.797 65.6661 223.69 65.6661 223.563V218.3C65.6661 217.413 65.4508 216.723 65.0201 216.229C64.5894 215.722 63.9561 215.469 63.1201 215.469C62.3348 215.469 61.7014 215.722 61.2201 216.229C60.7514 216.723 60.5171 217.413 60.5171 218.3V223.563C60.5171 223.69 60.4728 223.797 60.3841 223.886C60.3081 223.962 60.2068 224 60.0801 224H59.1301ZM73.8256 224.19C73.1289 224.19 72.5272 224.07 72.0206 223.829C71.5139 223.576 71.0959 223.24 70.7666 222.822C70.4499 222.391 70.2092 221.904 70.0446 221.359C69.8926 220.814 69.8039 220.238 69.7786 219.63C69.7659 219.427 69.7596 219.237 69.7596 219.06C69.7596 218.883 69.7659 218.693 69.7786 218.49C69.8039 217.895 69.8926 217.325 70.0446 216.78C70.2092 216.235 70.4499 215.748 70.7666 215.317C71.0959 214.886 71.5139 214.551 72.0206 214.31C72.5272 214.057 73.1289 213.93 73.8256 213.93C74.5729 213.93 75.1936 214.063 75.6876 214.329C76.1816 214.595 76.5869 214.924 76.9036 215.317V210.947C76.9036 210.82 76.9416 210.719 77.0176 210.643C77.1062 210.554 77.2139 210.51 77.3406 210.51H78.2526C78.3792 210.51 78.4806 210.554 78.5566 210.643C78.6452 210.719 78.6896 210.82 78.6896 210.947V223.563C78.6896 223.69 78.6452 223.797 78.5566 223.886C78.4806 223.962 78.3792 224 78.2526 224H77.3976C77.2582 224 77.1506 223.962 77.0746 223.886C76.9986 223.797 76.9606 223.69 76.9606 223.563V222.765C76.6439 223.17 76.2322 223.512 75.7256 223.791C75.2189 224.057 74.5856 224.19 73.8256 224.19ZM74.2246 222.651C74.8579 222.651 75.3646 222.505 75.7446 222.214C76.1246 221.923 76.4096 221.555 76.5996 221.112C76.7896 220.656 76.8909 220.194 76.9036 219.725C76.9162 219.522 76.9226 219.282 76.9226 219.003C76.9226 218.712 76.9162 218.465 76.9036 218.262C76.8909 217.819 76.7832 217.382 76.5806 216.951C76.3906 216.52 76.0992 216.166 75.7066 215.887C75.3266 215.608 74.8326 215.469 74.2246 215.469C73.5786 215.469 73.0656 215.615 72.6856 215.906C72.3056 216.185 72.0332 216.558 71.8686 217.027C71.7039 217.483 71.6089 217.977 71.5836 218.509C71.5709 218.876 71.5709 219.244 71.5836 219.611C71.6089 220.143 71.7039 220.643 71.8686 221.112C72.0332 221.568 72.3056 221.942 72.6856 222.233C73.0656 222.512 73.5786 222.651 74.2246 222.651ZM89.7826 224.19C89.0859 224.19 88.4843 224.07 87.9776 223.829C87.4709 223.576 87.0529 223.24 86.7236 222.822C86.4069 222.391 86.1663 221.904 86.0016 221.359C85.8496 220.814 85.7609 220.238 85.7356 219.63C85.7229 219.427 85.7166 219.237 85.7166 219.06C85.7166 218.883 85.7229 218.693 85.7356 218.49C85.7609 217.895 85.8496 217.325 86.0016 216.78C86.1663 216.235 86.4069 215.748 86.7236 215.317C87.0529 214.886 87.4709 214.551 87.9776 214.31C88.4843 214.057 89.0859 213.93 89.7826 213.93C90.5299 213.93 91.1506 214.063 91.6446 214.329C92.1386 214.595 92.5439 214.924 92.8606 215.317V210.947C92.8606 210.82 92.8986 210.719 92.9746 210.643C93.0633 210.554 93.1709 210.51 93.2976 210.51H94.2096C94.3363 210.51 94.4376 210.554 94.5136 210.643C94.6023 210.719 94.6466 210.82 94.6466 210.947V223.563C94.6466 223.69 94.6023 223.797 94.5136 223.886C94.4376 223.962 94.3363 224 94.2096 224H93.3546C93.2153 224 93.1076 223.962 93.0316 223.886C92.9556 223.797 92.9176 223.69 92.9176 223.563V222.765C92.6009 223.17 92.1893 223.512 91.6826 223.791C91.1759 224.057 90.5426 224.19 89.7826 224.19ZM90.1816 222.651C90.8149 222.651 91.3216 222.505 91.7016 222.214C92.0816 221.923 92.3666 221.555 92.5566 221.112C92.7466 220.656 92.8479 220.194 92.8606 219.725C92.8733 219.522 92.8796 219.282 92.8796 219.003C92.8796 218.712 92.8733 218.465 92.8606 218.262C92.8479 217.819 92.7403 217.382 92.5376 216.951C92.3476 216.52 92.0563 216.166 91.6636 215.887C91.2836 215.608 90.7896 215.469 90.1816 215.469C89.5356 215.469 89.0226 215.615 88.6426 215.906C88.2626 216.185 87.9903 216.558 87.8256 217.027C87.6609 217.483 87.5659 217.977 87.5406 218.509C87.5279 218.876 87.5279 219.244 87.5406 219.611C87.5659 220.143 87.6609 220.643 87.8256 221.112C87.9903 221.568 88.2626 221.942 88.6426 222.233C89.0226 222.512 89.5356 222.651 90.1816 222.651ZM97.9094 224C97.7827 224 97.6751 223.962 97.5864 223.886C97.5104 223.797 97.4724 223.69 97.4724 223.563V214.576C97.4724 214.449 97.5104 214.342 97.5864 214.253C97.6751 214.164 97.7827 214.12 97.9094 214.12H98.7834C98.9101 214.12 99.0177 214.164 99.1064 214.253C99.1951 214.342 99.2394 214.449 99.2394 214.576V215.412C99.4927 214.981 99.8411 214.658 100.284 214.443C100.728 214.228 101.26 214.12 101.88 214.12H102.64C102.767 214.12 102.868 214.164 102.944 214.253C103.02 214.329 103.058 214.43 103.058 214.557V215.336C103.058 215.463 103.02 215.564 102.944 215.64C102.868 215.716 102.767 215.754 102.64 215.754H101.5C100.816 215.754 100.278 215.957 99.8854 216.362C99.4927 216.755 99.2964 217.293 99.2964 217.977V223.563C99.2964 223.69 99.2521 223.797 99.1634 223.886C99.0747 223.962 98.9671 224 98.8404 224H97.9094ZM108.552 224.19C107.589 224.19 106.785 224.006 106.139 223.639C105.493 223.272 104.999 222.765 104.657 222.119C104.315 221.46 104.125 220.713 104.087 219.877C104.074 219.662 104.068 219.389 104.068 219.06C104.068 218.718 104.074 218.446 104.087 218.243C104.125 217.394 104.315 216.647 104.657 216.001C105.011 215.355 105.512 214.848 106.158 214.481C106.804 214.114 107.602 213.93 108.552 213.93C109.502 213.93 110.3 214.114 110.946 214.481C111.592 214.848 112.086 215.355 112.428 216.001C112.782 216.647 112.979 217.394 113.017 218.243C113.029 218.446 113.036 218.718 113.036 219.06C113.036 219.389 113.029 219.662 113.017 219.877C112.979 220.713 112.789 221.46 112.447 222.119C112.105 222.765 111.611 223.272 110.965 223.639C110.319 224.006 109.514 224.19 108.552 224.19ZM108.552 222.727C109.337 222.727 109.964 222.48 110.433 221.986C110.901 221.479 111.155 220.745 111.193 219.782C111.205 219.592 111.212 219.351 111.212 219.06C111.212 218.769 111.205 218.528 111.193 218.338C111.155 217.375 110.901 216.647 110.433 216.153C109.964 215.646 109.337 215.393 108.552 215.393C107.766 215.393 107.133 215.646 106.652 216.153C106.183 216.647 105.936 217.375 105.911 218.338C105.898 218.528 105.892 218.769 105.892 219.06C105.892 219.351 105.898 219.592 105.911 219.782C105.936 220.745 106.183 221.479 106.652 221.986C107.133 222.48 107.766 222.727 108.552 222.727ZM115.871 227.61C115.744 227.61 115.636 227.566 115.548 227.477C115.472 227.401 115.434 227.3 115.434 227.173V214.557C115.434 214.43 115.472 214.329 115.548 214.253C115.636 214.164 115.744 214.12 115.871 214.12H116.745C116.871 214.12 116.973 214.164 117.049 214.253C117.137 214.329 117.182 214.43 117.182 214.557V215.393C117.486 214.975 117.891 214.627 118.398 214.348C118.904 214.069 119.538 213.93 120.298 213.93C121.007 213.93 121.609 214.05 122.103 214.291C122.609 214.532 123.021 214.861 123.338 215.279C123.667 215.697 123.914 216.172 124.079 216.704C124.243 217.236 124.332 217.806 124.345 218.414C124.357 218.617 124.364 218.832 124.364 219.06C124.364 219.288 124.357 219.503 124.345 219.706C124.332 220.301 124.243 220.871 124.079 221.416C123.914 221.948 123.667 222.423 123.338 222.841C123.021 223.246 122.609 223.576 122.103 223.829C121.609 224.07 121.007 224.19 120.298 224.19C119.563 224.19 118.942 224.057 118.436 223.791C117.942 223.512 117.536 223.17 117.22 222.765V227.173C117.22 227.3 117.182 227.401 117.106 227.477C117.03 227.566 116.922 227.61 116.783 227.61H115.871ZM119.899 222.651C120.557 222.651 121.07 222.512 121.438 222.233C121.818 221.942 122.09 221.568 122.255 221.112C122.419 220.643 122.514 220.143 122.54 219.611C122.552 219.244 122.552 218.876 122.54 218.509C122.514 217.977 122.419 217.483 122.255 217.027C122.09 216.558 121.818 216.185 121.438 215.906C121.07 215.615 120.557 215.469 119.899 215.469C119.278 215.469 118.771 215.615 118.379 215.906C117.999 216.197 117.714 216.571 117.524 217.027C117.346 217.47 117.245 217.926 117.22 218.395C117.207 218.598 117.201 218.838 117.201 219.117C117.201 219.396 117.207 219.643 117.22 219.858C117.232 220.301 117.334 220.738 117.524 221.169C117.726 221.6 118.024 221.954 118.417 222.233C118.809 222.512 119.303 222.651 119.899 222.651ZM132.463 224C132.336 224 132.229 223.962 132.14 223.886C132.064 223.797 132.026 223.69 132.026 223.563V215.64H130.411C130.284 215.64 130.177 215.602 130.088 215.526C130.012 215.437 129.974 215.33 129.974 215.203V214.557C129.974 214.43 130.012 214.329 130.088 214.253C130.177 214.164 130.284 214.12 130.411 214.12H132.026V213.17C132.026 212.524 132.134 211.96 132.349 211.479C132.564 210.985 132.906 210.605 133.375 210.339C133.856 210.073 134.496 209.94 135.294 209.94H138.22C138.347 209.94 138.448 209.984 138.524 210.073C138.613 210.149 138.657 210.25 138.657 210.377V211.023C138.657 211.15 138.613 211.257 138.524 211.346C138.448 211.422 138.347 211.46 138.22 211.46H135.332C134.737 211.46 134.331 211.618 134.116 211.935C133.901 212.239 133.793 212.682 133.793 213.265V214.12H138.22C138.347 214.12 138.448 214.164 138.524 214.253C138.613 214.329 138.657 214.43 138.657 214.557V223.563C138.657 223.69 138.613 223.797 138.524 223.886C138.448 223.962 138.347 224 138.22 224H137.346C137.207 224 137.099 223.962 137.023 223.886C136.947 223.797 136.909 223.69 136.909 223.563V215.64H133.793V223.563C133.793 223.69 133.749 223.797 133.66 223.886C133.584 223.962 133.483 224 133.356 224H132.463ZM141.922 224C141.795 224 141.687 223.962 141.599 223.886C141.523 223.797 141.485 223.69 141.485 223.563V210.947C141.485 210.82 141.523 210.719 141.599 210.643C141.687 210.554 141.795 210.51 141.922 210.51H142.815C142.954 210.51 143.062 210.554 143.138 210.643C143.214 210.719 143.252 210.82 143.252 210.947V223.563C143.252 223.69 143.214 223.797 143.138 223.886C143.062 223.962 142.954 224 142.815 224H141.922ZM150.019 224.19C148.714 224.19 147.675 223.791 146.903 222.993C146.13 222.182 145.706 221.08 145.63 219.687C145.617 219.522 145.611 219.313 145.611 219.06C145.611 218.794 145.617 218.579 145.63 218.414C145.68 217.515 145.889 216.729 146.257 216.058C146.624 215.374 147.124 214.848 147.758 214.481C148.404 214.114 149.157 213.93 150.019 213.93C150.981 213.93 151.786 214.133 152.432 214.538C153.09 214.943 153.591 215.52 153.933 216.267C154.275 217.014 154.446 217.888 154.446 218.889V219.212C154.446 219.351 154.401 219.459 154.313 219.535C154.237 219.611 154.135 219.649 154.009 219.649H147.435C147.435 219.662 147.435 219.687 147.435 219.725C147.435 219.763 147.435 219.795 147.435 219.82C147.46 220.339 147.574 220.827 147.777 221.283C147.979 221.726 148.271 222.087 148.651 222.366C149.031 222.645 149.487 222.784 150.019 222.784C150.475 222.784 150.855 222.714 151.159 222.575C151.463 222.436 151.71 222.284 151.9 222.119C152.09 221.942 152.216 221.809 152.28 221.72C152.394 221.555 152.482 221.46 152.546 221.435C152.609 221.397 152.71 221.378 152.85 221.378H153.762C153.888 221.378 153.99 221.416 154.066 221.492C154.154 221.555 154.192 221.65 154.18 221.777C154.167 221.967 154.066 222.201 153.876 222.48C153.686 222.746 153.413 223.012 153.059 223.278C152.704 223.544 152.273 223.766 151.767 223.943C151.26 224.108 150.677 224.19 150.019 224.19ZM147.435 218.338H152.641V218.281C152.641 217.711 152.533 217.204 152.318 216.761C152.115 216.318 151.817 215.969 151.425 215.716C151.032 215.45 150.563 215.317 150.019 215.317C149.474 215.317 149.005 215.45 148.613 215.716C148.233 215.969 147.941 216.318 147.739 216.761C147.536 217.204 147.435 217.711 147.435 218.281V218.338ZM161.831 224C161.704 224 161.596 223.962 161.508 223.886C161.432 223.797 161.394 223.69 161.394 223.563V210.947C161.394 210.82 161.432 210.719 161.508 210.643C161.596 210.554 161.704 210.51 161.831 210.51H162.781C162.92 210.51 163.028 210.554 163.104 210.643C163.18 210.719 163.218 210.82 163.218 210.947V215.374C163.56 214.943 163.978 214.595 164.472 214.329C164.966 214.063 165.593 213.93 166.353 213.93C167.176 213.93 167.873 214.114 168.443 214.481C169.025 214.836 169.462 215.336 169.754 215.982C170.058 216.615 170.21 217.356 170.21 218.205V223.563C170.21 223.69 170.172 223.797 170.096 223.886C170.02 223.962 169.912 224 169.773 224H168.823C168.696 224 168.588 223.962 168.5 223.886C168.424 223.797 168.386 223.69 168.386 223.563V218.3C168.386 217.413 168.17 216.723 167.74 216.229C167.309 215.722 166.676 215.469 165.84 215.469C165.054 215.469 164.421 215.722 163.94 216.229C163.458 216.723 163.218 217.413 163.218 218.3V223.563C163.218 223.69 163.18 223.797 163.104 223.886C163.028 223.962 162.92 224 162.781 224H161.831ZM176.886 224.19C175.581 224.19 174.543 223.791 173.77 222.993C172.997 222.182 172.573 221.08 172.497 219.687C172.484 219.522 172.478 219.313 172.478 219.06C172.478 218.794 172.484 218.579 172.497 218.414C172.548 217.515 172.757 216.729 173.124 216.058C173.491 215.374 173.992 214.848 174.625 214.481C175.271 214.114 176.025 213.93 176.886 213.93C177.849 213.93 178.653 214.133 179.299 214.538C179.958 214.943 180.458 215.52 180.8 216.267C181.142 217.014 181.313 217.888 181.313 218.889V219.212C181.313 219.351 181.269 219.459 181.18 219.535C181.104 219.611 181.003 219.649 180.876 219.649H174.302C174.302 219.662 174.302 219.687 174.302 219.725C174.302 219.763 174.302 219.795 174.302 219.82C174.327 220.339 174.441 220.827 174.644 221.283C174.847 221.726 175.138 222.087 175.518 222.366C175.898 222.645 176.354 222.784 176.886 222.784C177.342 222.784 177.722 222.714 178.026 222.575C178.33 222.436 178.577 222.284 178.767 222.119C178.957 221.942 179.084 221.809 179.147 221.72C179.261 221.555 179.35 221.46 179.413 221.435C179.476 221.397 179.578 221.378 179.717 221.378H180.629C180.756 221.378 180.857 221.416 180.933 221.492C181.022 221.555 181.06 221.65 181.047 221.777C181.034 221.967 180.933 222.201 180.743 222.48C180.553 222.746 180.281 223.012 179.926 223.278C179.571 223.544 179.141 223.766 178.634 223.943C178.127 224.108 177.545 224.19 176.886 224.19ZM174.302 218.338H179.508V218.281C179.508 217.711 179.4 217.204 179.185 216.761C178.982 216.318 178.685 215.969 178.292 215.716C177.899 215.45 177.431 215.317 176.886 215.317C176.341 215.317 175.873 215.45 175.48 215.716C175.1 215.969 174.809 216.318 174.606 216.761C174.403 217.204 174.302 217.711 174.302 218.281V218.338ZM184.022 224C183.895 224 183.787 223.962 183.699 223.886C183.623 223.797 183.585 223.69 183.585 223.563V214.576C183.585 214.449 183.623 214.342 183.699 214.253C183.787 214.164 183.895 214.12 184.022 214.12H184.896C185.022 214.12 185.13 214.164 185.219 214.253C185.307 214.342 185.352 214.449 185.352 214.576V215.412C185.605 214.981 185.953 214.658 186.397 214.443C186.84 214.228 187.372 214.12 187.993 214.12H188.753C188.879 214.12 188.981 214.164 189.057 214.253C189.133 214.329 189.171 214.43 189.171 214.557V215.336C189.171 215.463 189.133 215.564 189.057 215.64C188.981 215.716 188.879 215.754 188.753 215.754H187.613C186.929 215.754 186.39 215.957 185.998 216.362C185.605 216.755 185.409 217.293 185.409 217.977V223.563C185.409 223.69 185.364 223.797 185.276 223.886C185.187 223.962 185.079 224 184.953 224H184.022ZM194.55 224.19C193.245 224.19 192.207 223.791 191.434 222.993C190.661 222.182 190.237 221.08 190.161 219.687C190.148 219.522 190.142 219.313 190.142 219.06C190.142 218.794 190.148 218.579 190.161 218.414C190.212 217.515 190.421 216.729 190.788 216.058C191.155 215.374 191.656 214.848 192.289 214.481C192.935 214.114 193.689 213.93 194.55 213.93C195.513 213.93 196.317 214.133 196.963 214.538C197.622 214.943 198.122 215.52 198.464 216.267C198.806 217.014 198.977 217.888 198.977 218.889V219.212C198.977 219.351 198.933 219.459 198.844 219.535C198.768 219.611 198.667 219.649 198.54 219.649H191.966C191.966 219.662 191.966 219.687 191.966 219.725C191.966 219.763 191.966 219.795 191.966 219.82C191.991 220.339 192.105 220.827 192.308 221.283C192.511 221.726 192.802 222.087 193.182 222.366C193.562 222.645 194.018 222.784 194.55 222.784C195.006 222.784 195.386 222.714 195.69 222.575C195.994 222.436 196.241 222.284 196.431 222.119C196.621 221.942 196.748 221.809 196.811 221.72C196.925 221.555 197.014 221.46 197.077 221.435C197.14 221.397 197.242 221.378 197.381 221.378H198.293C198.42 221.378 198.521 221.416 198.597 221.492C198.686 221.555 198.724 221.65 198.711 221.777C198.698 221.967 198.597 222.201 198.407 222.48C198.217 222.746 197.945 223.012 197.59 223.278C197.235 223.544 196.805 223.766 196.298 223.943C195.791 224.108 195.209 224.19 194.55 224.19ZM191.966 218.338H197.172V218.281C197.172 217.711 197.064 217.204 196.849 216.761C196.646 216.318 196.349 215.969 195.956 215.716C195.563 215.45 195.095 215.317 194.55 215.317C194.005 215.317 193.537 215.45 193.144 215.716C192.764 215.969 192.473 216.318 192.27 216.761C192.067 217.204 191.966 217.711 191.966 218.281V218.338Z" fill="black"/>
<path fill-rule="evenodd" clip-rule="evenodd" d="M108.276 184.499C68.0619 194.533 23.493 182.964 6.34041 150.259C-2.57697 133.26 -0.837169 113.408 15.4383 96.8735C22.665 89.8849 28.9979 82.0094 34.2891 73.4306C43.9862 57.3271 43.535 42.0354 53.7482 29.6463C84.1586 -7.28762 130.835 -7.72729 163.493 17.3666C196.93 43.0479 205.133 81.2188 194.838 113.692C184.618 145.934 156.176 172.549 108.269 184.508L108.276 184.499Z" fill="#F1F1F1"/>
<path d="M101.23 166.116C98.3632 165.279 102.102 163.622 104.48 158.803C106.859 153.983 105.479 150.586 109.168 152.251C111.999 153.523 112.761 156.365 115.146 153.488C118.68 149.232 115.959 145.965 121.677 141.747C127.381 137.521 134.995 152.526 130.028 157.384C121.042 166.158 115.233 159.437 109.556 162.826" fill="#B3CCFF"/>
<path d="M93.8839 136.342C93.0132 139.043 90.5497 142.444 97.0167 139.433C100.764 137.686 95.8497 130.268 93.8839 136.342Z" fill="#FFDD92"/>
<path d="M129.663 123.304C129.291 121.384 129.062 118.574 127.216 117.43C126.114 116.743 124.716 116.866 123.518 117.122C122.093 117.427 120.719 117.883 119.359 118.313C113.169 120.277 106.943 122.109 100.781 124.219C95.4751 125.979 90.1973 127.885 84.7619 129.243C84.0616 129.441 83.2471 129.703 82.9034 130.418C82.4431 131.349 82.8716 132.948 83.0882 133.96C85.6992 144.235 88.0556 154.741 90.3276 165.095C90.6302 166.51 90.9391 167.988 91.152 169.394C91.1644 169.522 91.2028 169.828 91.2226 169.943C91.2439 170.145 91.2639 170.424 91.275 170.628C91.3837 171.767 92.0026 172.813 92.975 173.426C94.8941 174.637 97.641 174.251 99.7484 173.883C106.403 172.591 112.658 169.768 119.246 168.309C122.39 167.652 125.641 167.393 128.856 166.837C130.835 166.481 132.745 166.068 134.575 165.152C138.006 163.446 139.133 160.48 138.476 156.845C138.416 156.501 138.33 156.098 138.24 155.762C138.085 155.181 137.826 154.136 137.671 153.556C135.571 145.842 133.054 137.835 131.148 130.069C130.609 127.812 130.085 125.572 129.663 123.304ZM135.135 149.147C135.635 151.339 136.118 153.71 136.495 155.934C136.547 156.248 136.609 156.603 136.627 156.915C136.898 159.681 136.231 161.716 133.512 162.816C131.895 163.467 130.183 163.719 128.451 163.942C125.657 164.276 122.93 164.45 120.089 164.851C113.572 165.8 107.385 168.266 101.034 169.837C99.7421 170.15 98.4853 170.432 97.1903 170.572C96.5285 170.629 95.9278 170.67 95.3066 170.552C95.1449 170.519 94.9545 170.461 94.8484 170.391C94.8355 170.384 94.8355 170.384 94.8355 170.384C94.8328 170.374 94.8226 170.376 94.7988 170.328C94.7804 170.3 94.7769 170.247 94.766 170.206L94.7578 170.175L94.7523 170.155L94.7489 170.101L94.7345 170.007L94.6817 169.606L94.6673 169.512C94.5092 168.473 94.2735 167.39 94.0236 166.376C93.7437 165.25 93.4094 164.083 93.0786 162.971C90.1101 153.197 85.8537 143.833 83.4299 133.891C83.2592 133.172 83.096 132.441 83.0605 131.697C83.0492 131.329 83.0705 130.919 83.2468 130.599C83.5594 130.013 84.2707 129.855 84.8848 129.701C96.7594 127.185 108.86 125.308 120.328 121.154C121.323 120.789 122.566 120.336 123.559 120.005C124.121 119.821 124.709 119.652 125.282 119.587C125.637 119.568 125.903 119.54 126.158 119.799C126.822 120.484 127.22 122.135 127.5 123.098C127.871 124.44 128.316 125.816 128.735 127.135C131.134 134.375 133.427 141.71 135.135 149.147Z" fill="black"/>
<path d="M120.61 142.011C120.01 141.604 119.42 141.194 118.779 140.842C118.34 140.588 117.847 140.666 117.511 141.04C117.327 141.253 117.226 141.487 117.131 141.742C117.009 142.102 116.923 142.475 116.845 142.834C116.503 144.618 116.269 146.515 115.846 148.277C115.265 150.595 114.507 153.102 112.523 154.584C112.053 154.95 111.453 155.362 110.91 155.453C110.535 155.52 110.213 155.421 109.87 155.24C109.11 154.81 108.353 154.183 107.575 153.726C106.763 153.223 105.888 152.813 104.995 152.495C104.308 152.253 103.579 151.979 102.81 152.043C102.38 152.071 101.947 152.286 101.676 152.62C101.427 152.916 101.252 153.28 101.112 153.612C100.758 154.493 100.509 155.357 100.165 156.235C99.8366 157.088 99.4618 157.931 99.0326 158.733C98.817 159.152 98.6116 159.567 98.4089 159.993C97.8212 161.264 97.2804 162.588 97.1122 163.998C96.9319 165.608 97.4702 166.883 99.0833 167.401L99.1395 167.244C97.6439 166.716 97.2043 165.524 97.4173 164.036C97.7095 162.233 98.5719 160.56 99.4562 158.969C99.916 158.158 100.332 157.304 100.691 156.444C101.053 155.593 101.347 154.696 101.704 153.868C101.793 153.67 101.892 153.469 101.999 153.298C102.358 152.721 102.836 152.67 103.46 152.797C105.194 153.239 106.807 154.161 108.229 155.232C108.613 155.522 108.984 155.805 109.413 156.061C110.503 156.708 111.497 156.464 112.518 155.83C112.837 155.635 113.13 155.426 113.418 155.196C114.697 154.22 115.537 152.75 116.132 151.302C117.191 148.692 117.558 145.864 118.124 143.125C118.203 142.809 118.272 142.495 118.377 142.194C118.48 142.254 118.573 142.316 118.669 142.389C120.176 143.405 121.625 144.534 123.004 145.726C125.04 147.496 126.993 149.407 128.517 151.63C129.179 152.632 129.812 153.773 129.861 154.972C129.929 156.777 128.012 157.651 126.518 158.106C126.215 158.198 125.667 158.356 125.364 158.448C122.82 159.184 120.239 159.821 117.643 160.364C113.619 161.202 110.572 161.571 107.095 164.042L107.19 164.191C107.603 163.982 108.017 163.773 108.439 163.594C109.696 163.028 111.004 162.612 112.354 162.349C114.139 162.002 116.045 161.818 117.852 161.553C120.895 161.13 123.914 160.496 126.895 159.719C129.278 159.114 131.701 157.722 131.657 154.949C131.532 151.019 126.845 146.935 123.995 144.576C122.887 143.661 121.765 142.815 120.61 142.011Z" fill="black"/>
<path d="M96.1909 139.457C97.1589 138.586 97.5595 137.147 97.1551 135.923C96.8762 135.004 96.1767 134.187 95.263 133.875C93.7573 133.35 92.292 134.322 91.2623 135.329C92.0958 134.527 93.3351 133.813 94.5057 134.187C95.8639 134.609 96.2723 136.378 95.6083 137.528C95.3527 138 94.9236 138.355 94.4571 138.611C93.7902 138.976 93.0478 139.262 92.2854 139.27C91.6127 139.286 90.8846 139.055 90.4912 138.484C89.8228 137.538 90.3419 136.296 91.081 135.509C90.4145 136.201 89.825 137.057 89.852 138.055C89.8589 138.773 90.2361 139.448 90.7939 139.899C92.3453 141.165 94.7667 140.745 96.1909 139.457Z" fill="black"/>
<path d="M63.7924 164.223C63.0617 162.89 65.0035 163.639 67.5937 162.761C70.184 161.882 70.91 160.163 71.6387 162.09C72.1996 163.567 71.4508 164.864 73.3448 164.687C76.148 164.427 76.3446 162.272 79.9201 162.812C83.4937 163.344 80.8339 171.484 77.2981 171.444C70.907 171.368 71.235 166.859 67.9723 166.035" fill="#B3CCFF"/>
<path d="M71.8663 150.866C70.5809 151.524 68.4705 151.862 71.8811 153.106C73.8584 153.826 74.7594 149.387 71.8663 150.866Z" fill="#FFDD92"/>
<path d="M89.4309 159.049C89.9879 158.224 90.917 157.13 90.6639 156.055C90.5149 155.411 89.9675 154.952 89.4443 154.613C88.8214 154.21 88.163 153.879 87.5192 153.545C84.5845 152.024 81.6847 150.443 78.7078 148.984C76.1649 147.708 73.5798 146.495 71.135 145.027C70.8115 144.847 70.4242 144.648 70.0434 144.781C69.5425 144.951 69.1211 145.681 68.8349 146.123C66.0771 150.76 63.1442 155.389 60.2357 159.933C59.8355 160.551 59.4145 161.194 58.9851 161.777C58.9436 161.827 58.8471 161.951 58.813 162C58.748 162.08 58.655 162.187 58.5854 162.265C58.2145 162.714 58.0608 163.313 58.1901 163.884C58.4449 165.01 59.5726 165.86 60.4635 166.486C63.3231 168.415 66.59 169.651 69.486 171.496C70.8539 172.391 72.117 173.468 73.474 174.425C74.3145 175.009 75.1505 175.548 76.1386 175.876C77.9871 176.497 79.4603 175.836 80.5319 174.291C80.6344 174.146 80.7483 173.97 80.8369 173.816C80.9899 173.551 81.273 173.083 81.4259 172.818C83.4464 169.286 85.422 165.499 87.5308 162.018C88.1492 161.012 88.7668 160.017 89.4309 159.049ZM82.1001 170.318C81.4912 171.287 80.8115 172.314 80.1468 173.251C80.0524 173.382 79.9472 173.532 79.8414 173.651C78.9437 174.744 77.9713 175.236 76.5968 174.653C75.7805 174.306 75.0736 173.78 74.3701 173.238C73.2446 172.352 72.2005 171.433 71.0337 170.555C68.3468 168.551 65.2329 167.212 62.3823 165.492C61.8045 165.14 61.2507 164.789 60.7344 164.373C60.4757 164.156 60.2448 163.954 60.0635 163.689C60.0172 163.618 59.9696 163.529 59.9566 163.466C59.9546 163.458 59.9546 163.458 59.9546 163.458C59.9573 163.454 59.9527 163.451 59.9614 163.425C59.9648 163.408 59.9829 163.388 59.9936 163.369L60.0017 163.355L60.0071 163.346L60.0251 163.325L60.0539 163.286L60.1792 163.123L60.208 163.084C60.5248 162.653 60.8299 162.179 61.1049 161.724C61.4094 161.218 61.7088 160.678 61.9901 160.158C64.4393 155.573 66.2773 150.671 68.9829 146.221C69.1801 145.901 69.3846 145.579 69.6396 145.298C69.768 145.162 69.9231 145.022 70.1018 144.97C70.4252 144.872 70.738 145.071 71.0143 145.237C76.193 148.605 81.2232 152.284 86.8453 154.916C87.3344 155.143 87.9451 155.427 88.4215 155.665C88.69 155.801 88.9623 155.952 89.1919 156.134C89.3266 156.256 89.4321 156.341 89.4306 156.526C89.4232 157.012 88.9725 157.749 88.7268 158.196C88.3772 158.813 88.042 159.468 87.7183 160.093C85.9758 163.563 84.1614 167.027 82.1001 170.318Z" fill="black"/>
<path d="M79.4408 162.523C79.3711 162.161 79.3061 161.801 79.2025 161.443C79.1356 161.194 78.9305 161.045 78.6747 161.058C78.5322 161.069 78.4115 161.117 78.2853 161.174C78.1118 161.26 77.9469 161.363 77.7893 161.464C77.0246 161.983 76.2575 162.582 75.471 163.064C74.4281 163.689 73.2527 164.318 72.0056 164.137C71.7047 164.1 71.3408 164.032 71.1124 163.87C70.9531 163.759 70.8732 163.607 70.8147 163.419C70.6961 162.991 70.649 162.492 70.5337 162.048C70.4226 161.575 70.2554 161.112 70.0482 160.677C69.8879 160.342 69.7243 159.981 69.4244 159.728C69.2599 159.583 69.0265 159.504 68.8087 159.527C68.6128 159.544 68.4188 159.612 68.2486 159.681C67.8043 159.871 67.4038 160.092 66.9641 160.284C66.5391 160.473 66.1009 160.641 65.6575 160.776C65.4294 160.849 65.206 160.924 64.9799 161.005C64.311 161.251 63.6398 161.532 63.0719 161.979C62.4277 162.494 62.1625 163.146 62.5567 163.913L62.6334 163.877C62.285 163.149 62.5559 162.562 63.1679 162.103C63.922 161.559 64.8343 161.268 65.725 161.013C66.1824 160.887 66.6392 160.729 67.0782 160.549C67.5145 160.373 67.9436 160.156 68.3698 159.987C68.4732 159.947 68.5813 159.91 68.6813 159.887C69.0179 159.809 69.2083 159.962 69.3869 160.233C69.8523 161.016 70.1007 161.928 70.2273 162.825C70.2609 163.068 70.2925 163.303 70.3547 163.55C70.5144 164.175 70.9601 164.445 71.5555 164.584C71.7404 164.629 71.9214 164.659 72.1078 164.68C72.919 164.789 73.7504 164.562 74.4856 164.255C75.8058 163.697 76.9557 162.811 78.1451 162.029C78.2873 161.944 78.4249 161.856 78.571 161.785C78.5867 161.844 78.5978 161.9 78.6062 161.961C78.7827 162.868 78.8979 163.796 78.9651 164.722C79.061 166.091 79.0762 167.482 78.8246 168.83C78.7022 169.429 78.5196 170.067 78.1054 170.516C77.4805 171.191 76.476 170.815 75.7744 170.441C75.6322 170.365 75.3785 170.225 75.2363 170.149C74.0558 169.499 72.8975 168.799 71.768 168.06C70.0184 166.913 68.7893 165.95 66.6487 165.588L66.629 165.676C66.8531 165.749 67.0772 165.823 67.2932 165.91C67.9494 166.159 68.5699 166.48 69.1502 166.871C69.9178 167.388 70.6695 168.008 71.4156 168.563C72.6627 169.506 73.9775 170.364 75.3298 171.158C76.4051 171.797 77.7779 172.168 78.7599 171.155C80.1294 169.695 79.9121 166.539 79.7358 164.664C79.6664 163.936 79.5669 163.228 79.4408 162.523Z" fill="black"/>
<path d="M71.5719 152.817C72.2337 152.852 72.8959 152.478 73.1908 151.892C73.4211 151.461 73.4634 150.915 73.2469 150.474C72.8939 149.744 72.017 149.566 71.2838 149.558C71.8724 149.569 72.5755 149.758 72.8621 150.314C73.1989 150.955 72.7094 151.738 72.0567 151.913C71.7946 151.991 71.5124 151.965 71.2524 151.889C70.8813 151.78 70.5111 151.616 70.2339 151.344C69.9859 151.108 69.8069 150.763 69.871 150.416C69.9708 149.835 70.6045 149.575 71.154 149.557C70.6652 149.566 70.1447 149.662 69.7955 150.031C69.5393 150.292 69.4324 150.671 69.4708 151.034C69.5736 152.048 70.5959 152.768 71.5719 152.817Z" fill="black"/>
<g clip-path="url(#clip0_1870_36487)">
<path d="M55.1458 38.4498C27.0166 58.9276 13.9126 94.6845 46.298 100.38C78.6834 106.075 172.693 129.088 182.426 85.6323C188.197 59.8631 117.972 -7.28308 55.1458 38.4515V38.4498Z" fill="#E473FF"/>
<path d="M85.2617 103.103C82.6902 102.899 80.1187 103.101 77.5505 103.255C70.659 103.686 62.7584 104.532 55.8636 104.994C54.142 105.131 52.469 105.375 50.7038 105.537C46.7275 105.92 42.7445 106.033 38.7263 105.498C26.8343 103.973 18.595 96.9671 15.2725 85.3712C13.3028 78.8863 13.5676 71.6699 16.4577 65.4598C20.61 56.2137 30.3529 49.5671 40.644 50.3779L37.1974 54.2381C37.1757 54.0965 37.1689 54.0308 37.1555 53.933L37.1254 53.6768C36.7649 50.0643 37.0063 46.4064 37.7138 42.8563C40.3758 29.1128 50.3199 18.8419 63.3032 14.422C71.1703 11.7384 79.609 10.201 87.9707 11.4299C101.935 13.4578 112.082 24.5294 115.112 38.0757C115.139 38.2004 115.188 38.46 115.213 38.5864L111.582 37.7015L111.686 37.5835L111.773 37.4891L111.941 37.3121C116.044 33.1821 121.642 30.5153 127.444 30.1361C133.172 29.7736 139.213 31.6212 143.91 34.8745C149.828 38.9691 152.358 46.3811 151.43 53.4037C151.41 53.5487 151.379 53.7661 151.348 53.9094L149.048 51.9826L149.352 51.8343C152.176 50.5228 155.144 49.6227 158.236 49.1659C165.052 48.1072 172.028 49.825 177.072 54.7168C183.905 61.2674 187.095 72.8954 185.665 82.1195C184.205 92.1696 176.408 99.5192 167.297 102.941C163.783 104.296 160.079 105.23 156.287 105.34L155.725 105.353L153.482 105.401C145.26 105.559 137.019 105.369 128.808 104.838C123.69 104.482 118.209 104.067 113.106 103.757C110.115 103.604 107.125 103.342 104.134 103.54V103.13C110.119 103.364 116.105 102.653 122.079 102.306C124.582 102.12 128.565 101.84 131.051 101.695C139.621 101.193 148.215 101.112 156.795 101.338C165.314 101.193 174.708 97.2014 178.857 89.3916C181.895 83.6838 181.154 76.9377 179.181 70.9804C177.796 66.7224 175.779 62.3362 172.718 59.1603C167.612 53.6683 159.435 52.6822 152.379 54.4556C151.139 54.7286 147.553 56.0047 146.262 56.411L148.113 53.1036C149.131 49.1743 148.748 44.7729 146.748 41.2161C144.972 38.0217 141.857 35.7292 138.484 34.4093C136.047 33.4164 133.416 32.791 130.813 32.7287C125.115 32.5281 119.598 35.1544 115.713 39.2523C115.428 39.5507 115.127 39.8912 114.869 40.2131L114.821 40.2772C114.809 40.2924 114.786 40.3244 114.792 40.3176L111.161 39.4327L111.061 39.0938C104.855 20.3472 89.9789 11.4805 70.5702 14.7642C59.2347 16.5881 48.8548 22.5454 45.0293 33.9609C43.0177 39.8777 42.7612 46.285 43.5609 52.4378L43.6179 52.8086L43.648 52.9839C43.6564 53.0311 43.6715 53.1087 43.6732 53.1104L49.2487 57.2656L40.2266 56.9723C38.1396 56.9049 35.9519 57.2504 33.8129 57.8708C27.4947 59.7571 21.3107 63.5634 18.0653 69.5307C14.2834 76.3982 16.0218 85.2582 20.5278 91.3638C24.8897 97.3868 32.1952 99.8277 39.3113 100.483C42.9591 100.859 46.7225 100.859 50.4339 100.79C52.35 100.767 54.385 100.691 56.343 100.832C64.4599 101.382 73.2892 102.407 81.4044 102.749C82.6902 102.786 83.9743 102.794 85.26 102.69V103.1L85.2617 103.103Z" fill="black"/>
<path d="M89.0587 107.786C89.0587 107.786 90.5574 112 98.6038 112C106.65 112 114.864 108.46 114.361 95.3118C113.859 82.1634 120.564 82.8377 127.772 82.8377C134.981 82.8377 131.628 77.612 123.414 70.5321C115.2 63.4522 111.679 51.4838 104.806 56.878C97.9333 62.2722 84.6901 76.432 81.8403 79.6349C78.9906 82.8377 85.1344 83.5591 93.377 83.5355C101.62 83.5119 95.1019 107.786 89.0587 107.786Z" fill="white"/>
<path d="M84.3636 103.015C84.3971 102.988 84.4155 102.923 84.4004 102.885C84.387 102.855 84.4021 102.899 84.4021 102.904C84.8011 104.226 86.1941 104.903 87.4028 105.318C89.111 105.825 90.9281 105.748 92.6665 105.451C96.326 104.78 99.9385 103.927 103.105 102.135C105.241 100.938 107.008 99.0151 107.842 96.6467C108.364 95.17 108.585 93.5888 108.521 92.0245C108.479 90.8529 108.221 89.6696 108.029 88.4963C107.423 85.3289 107.019 81.7097 108.989 78.8356C110.556 76.4049 113.505 75.1406 116.211 74.9939C118.341 74.8473 120.288 75.2063 122.276 75.6092C122.997 75.7542 123.912 75.9767 124.618 75.9919C124.873 75.9986 125.095 75.9801 125.297 75.9683C125.352 75.9683 125.377 75.9868 125.416 75.9902C125.449 75.9936 125.501 75.9649 125.53 75.8756C125.66 75.3193 125.313 74.4444 124.983 73.8763C124.571 73.1245 124.019 72.4081 123.429 71.7254C121.929 69.9975 120.152 68.499 118.301 67.1504C114.732 64.7045 111.582 61.5067 108.915 58.1792C107.566 56.5626 106.309 54.8297 104.78 53.4744C103.467 52.3214 102.399 52.35 100.896 53.2367C99.6284 54.029 98.403 54.8853 97.2446 55.8344C94.7133 57.8926 92.4402 60.2542 90.4353 62.835C88.1337 65.7884 86.107 69.0165 83.7349 71.9058C82.3385 73.6167 80.8717 75.2451 79.3077 76.774L79.2641 76.8162L79.2423 76.8364C79.2272 76.8499 79.2121 76.8617 79.1954 76.8735L79.1719 76.8887C79.1702 76.8887 79.1669 76.8904 79.1652 76.892C79.1602 76.8937 79.1535 76.8954 79.1451 76.8954C79.13 76.9022 79.1451 76.8819 79.1468 76.8667C79.182 76.6898 79.2758 76.2902 79.1786 75.8553C79.1283 75.6126 79.0194 75.3833 78.8735 75.1844C78.7947 75.0799 78.6975 74.9771 78.5818 74.9164C78.56 74.9046 78.5366 74.8995 78.5114 74.9012C78.5114 74.9063 78.5131 74.9147 78.5131 74.9248C78.5014 74.9417 78.5416 74.972 78.5701 75.0041C78.5885 75.0361 78.6556 75.0698 78.7009 75.1086C78.8232 75.1962 78.9523 75.2687 79.0981 75.3395C80.6152 76.0542 82.3402 76.3981 84.0249 76.6476C85.5269 76.8651 87.0675 76.9392 88.5913 76.9494C91.3388 76.9612 93.1258 78.9638 93.8668 81.4299C95.9689 88.5267 92.3262 97.3159 86.8446 101.887C86.2562 102.326 85.6158 102.695 84.9235 102.924C84.7944 102.973 84.6569 103.002 84.5228 103.037C84.4574 103.062 84.4239 103.046 84.3636 103.015ZM84.03 102.779C84.1842 102.732 84.3619 102.719 84.5211 102.71C84.7357 102.702 84.9654 102.638 85.1632 102.548C85.6845 102.324 86.0919 101.904 86.4439 101.464C87.0072 100.751 87.4313 99.9372 87.7749 99.0926C88.3684 97.616 88.7439 96.0516 89.049 94.4924C89.4345 92.5268 89.7631 90.5411 90.0145 88.5655C90.1973 86.7837 91.2014 80.5517 88.7036 80.3528C87.1195 80.341 85.4347 80.4084 83.8456 80.4708C80.4828 80.5146 74.7899 81.3338 73.4807 77.1584C73.0784 75.8031 73.5075 74.3315 74.2921 73.2037C75.7823 71.2011 77.5291 69.3991 79.3496 67.7202C82.1323 65.1512 85.3157 62.9969 88.2979 60.674C90.908 58.6495 93.3454 56.4176 95.6839 54.0846C96.8574 52.9215 98.0727 51.6168 99.2713 50.4806C100.974 48.9196 103.308 48.156 105.581 48.9163C111.453 50.8616 114.943 59.7536 119.052 64.1684C120.145 65.345 121.852 67.1015 122.965 68.2883C124.304 69.716 125.608 71.1 126.78 72.7115C127.447 73.6976 128.071 74.559 128.198 75.9076C128.383 78.7311 125.199 79.783 122.973 80.1454C121.83 80.3679 120.611 80.5888 119.532 80.8062C117.049 81.3338 115.619 81.5597 114.048 82.8274C112.149 84.481 111.016 87.3821 110.692 89.8972C110.466 91.8037 110.427 93.8012 110.166 95.7128C109.886 98.0037 109.4 100.333 108.367 102.412C104.708 109.745 95.6487 110.722 88.8796 107.385C88.4941 107.219 88.0851 106.945 87.7146 106.747L87.557 106.641L86.9351 106.22L86.35 105.756L85.8052 105.257C85.4683 104.905 85.1514 104.537 84.8564 104.155C84.5748 103.799 84.3082 103.432 84.0568 103.052C84.0031 102.988 83.9914 102.853 84.0266 102.778L84.03 102.779Z" fill="black"/>
</g>
<defs>
<clipPath id="clip0_1870_36487">
<rect width="172" height="101" fill="white" transform="translate(14 11)"/>
</clipPath>
</defs>
</svg>
