<svg width="25" height="24" viewBox="0 0 25 24" fill="none" xmlns="http://www.w3.org/2000/svg">
<g clip-path="url(#clip0_593_61088)">
<path fill-rule="evenodd" clip-rule="evenodd" d="M16.9415 7.35858L17.9866 8.04265L23.0092 12.0001L17.9866 15.9575L16.9415 16.6416C13.9476 18.6013 10.0772 18.6013 7.08335 16.6416L6.03829 15.9575L1.01563 12.0001L6.03829 8.04265L7.08334 7.35858C10.0772 5.39886 13.9476 5.39886 16.9415 7.35858ZM17.4892 6.52189L18.571 7.23L23.6281 11.2146C24.1363 11.615 24.1363 12.3852 23.6281 12.7856L18.571 16.7701L17.4892 17.4783C14.1627 19.6557 9.8622 19.6557 6.53567 17.4783L5.45388 16.7701L0.396736 12.7856C-0.111412 12.3852 -0.111412 11.615 0.396736 11.2146L5.45388 7.23L6.53567 6.52189C9.8622 4.34443 14.1627 4.34443 17.4892 6.52189ZM15.0182 11.7863C15.0182 13.273 13.7266 14.5725 12.0137 14.5725C10.3008 14.5725 9.0092 13.273 9.0092 11.7863C9.0092 10.2996 10.3008 9.00005 12.0137 9.00005C13.7266 9.00005 15.0182 10.2996 15.0182 11.7863ZM16.0182 11.7863C16.0182 13.8774 14.2253 15.5725 12.0137 15.5725C9.80207 15.5725 8.0092 13.8774 8.0092 11.7863C8.0092 9.6952 9.80207 8.00005 12.0137 8.00005C14.2253 8.00005 16.0182 9.6952 16.0182 11.7863Z" fill="#B614DD"/>
<path d="M5 4.80078L19.6992 19.5" stroke="#B614DD" stroke-linecap="round"/>
</g>
<defs>
<clipPath id="clip0_593_61088">
<rect width="24.0269" height="24" fill="white"/>
</clipPath>
</defs>
</svg>
