<svg width="24" height="24" viewBox="0 0 24 24" fill="none" xmlns="http://www.w3.org/2000/svg">
<path d="M1 3.69238H5.58333" stroke="white" stroke-width="1.5" stroke-linecap="round"/>
<path d="M12.916 3.69238L22.9993 3.69238" stroke="white" stroke-width="1.5" stroke-linecap="round"/>
<path d="M22.084 12L23.0007 12" stroke="white" stroke-width="1.5" stroke-linecap="round"/>
<path d="M1 12H14.75" stroke="white" stroke-width="1.5" stroke-linecap="round"/>
<path d="M9.25 20.3076L23 20.3076" stroke="white" stroke-width="1.5" stroke-linecap="round"/>
<path d="M1 20.3076H1.91667" stroke="white" stroke-width="1.5" stroke-linecap="round"/>
<path d="M12.1673 3.69231C12.1673 5.32224 10.8566 6.63462 9.25065 6.63462C7.64474 6.63462 6.33398 5.32224 6.33398 3.69231C6.33398 2.06238 7.64474 0.75 9.25065 0.75C10.8566 0.75 12.1673 2.06238 12.1673 3.69231Z" stroke="white" stroke-width="1.5"/>
<path d="M8.5013 20.3075C8.5013 21.9375 7.19055 23.2498 5.58464 23.2498C3.97872 23.2498 2.66797 21.9375 2.66797 20.3075C2.66797 18.6776 3.97872 17.3652 5.58464 17.3652C7.19055 17.3652 8.5013 18.6776 8.5013 20.3075Z" stroke="white" stroke-width="1.5"/>
<path d="M21.3333 11.9999C21.3333 13.6299 20.0226 14.9422 18.4167 14.9422C16.8108 14.9422 15.5 13.6299 15.5 11.9999C15.5 10.37 16.8108 9.05762 18.4167 9.05762C20.0226 9.05762 21.3333 10.37 21.3333 11.9999Z" stroke="white" stroke-width="1.5"/>
</svg>
