<svg width="24" height="24" viewBox="0 0 24 24" fill="none" xmlns="http://www.w3.org/2000/svg">
<path d="M21.375 6.95049H18.1771C18.6042 6.42574 18.875 5.78218 18.875 5.06931C18.875 3.37624 17.4271 2 15.6458 2C14.0938 2 12.75 2.80198 12 3.9802C11.25 2.80198 9.90625 2 8.35417 2C6.57292 2 5.125 3.37624 5.125 5.06931C5.125 5.78218 5.39583 6.42574 5.82292 6.95049H2.625C2.28125 6.95049 2 7.21782 2 7.54455V11.505C2 11.8317 2.28125 12.099 2.625 12.099H3.04167V19.4257C3.04167 20.8416 4.26042 22 5.75 22H18.25C19.7396 22 20.9583 20.8416 20.9583 19.4257V12.099H21.375C21.7188 12.099 22 11.8317 22 11.505V7.54455C22 7.21782 21.7188 6.95049 21.375 6.95049ZM15.6458 3.18812C16.7396 3.18812 17.625 4.0297 17.625 5.06931C17.625 6.10891 16.7396 6.95049 15.6458 6.95049H12.625V6.05941C12.625 4.47525 13.9792 3.18812 15.6458 3.18812ZM6.375 5.06931C6.375 4.0297 7.26042 3.18812 8.35417 3.18812C10.0208 3.18812 11.375 4.47525 11.375 6.05941V6.95049H8.35417C7.26042 6.95049 6.375 6.10891 6.375 5.06931ZM3.25 8.13861H20.75V10.9109H3.25V8.13861ZM4.29167 19.4257V12.099H11.375V20.8119H5.75C4.94792 20.8119 4.29167 20.1881 4.29167 19.4257ZM19.7083 19.4257C19.7083 20.1881 19.0521 20.8119 18.25 20.8119H12.625V12.099H19.7083V19.4257Z" fill="black"/>
</svg>
