<svg width="24" height="24" viewBox="0 0 24 24" fill="none" xmlns="http://www.w3.org/2000/svg">
<g clip-path="url(#clip0_340_88420)">
<path d="M23.719 10.3905L19.5356 6.98476C19.3951 6.87048 19.2156 6.80952 19.0361 6.80952H15.4146V3.7619C15.4146 3.34286 15.0634 3 14.6341 3H2.14634C1.71707 3 1.36585 3.34286 1.36585 3.7619V7H0.585366C0.265366 7 0 7.25905 0 7.57143C0 7.88381 0.265366 8.14286 0.585366 8.14286H6.04878C6.36878 8.14286 6.63415 7.88381 6.63415 7.57143C6.63415 7.25905 6.36878 7 6.04878 7H2.53659V4.14286H14.2439V15.5714H8.28098C8.29659 15.6248 8.30439 15.6781 8.31219 15.7238C8.03122 14.5429 6.94634 13.6667 5.65854 13.6667C4.37073 13.6667 3.28585 14.5505 3.00488 15.7238C3.02049 15.6705 3.02049 15.6171 3.0361 15.5714H2.53659V12.7143H8.39024C8.71024 12.7143 8.97561 12.4552 8.97561 12.1429C8.97561 11.8305 8.71024 11.5714 8.39024 11.5714H0.585366C0.265366 11.5714 0 11.8305 0 12.1429C0 12.4552 0.265366 12.7143 0.585366 12.7143H1.36585V15.9524C1.36585 16.3714 1.71707 16.7143 2.14634 16.7143H2.95805C2.94244 16.5924 2.93463 16.4629 2.92683 16.3333C2.92683 17.8038 4.15219 19 5.65854 19C7.16488 19 8.39024 17.8038 8.39024 16.3333C8.39024 16.1657 8.36683 16.0057 8.34341 15.8533C8.37463 16.0133 8.39024 16.1733 8.39024 16.3333C8.39024 16.4629 8.38244 16.5924 8.35902 16.7143H16.2185C16.2029 16.5924 16.1951 16.4629 16.1873 16.3333C16.1873 17.8038 17.4127 19 18.919 19C20.4254 19 21.6507 17.8038 21.6507 16.3333C21.6507 16.1657 21.6273 16.0057 21.6039 15.8533C21.6351 16.0133 21.6507 16.1733 21.6507 16.3333C21.6507 16.4629 21.6429 16.5924 21.6195 16.7143H23.2117C23.641 16.7143 23.9922 16.3714 23.9922 15.9524V10.9771C23.9922 10.7486 23.8907 10.5352 23.7112 10.3905H23.719ZM2.97366 15.8533C2.94244 16.0057 2.92683 16.1657 2.92683 16.3333C2.92683 16.1657 2.95024 16.0133 2.97366 15.8533ZM5.65854 17.8571C4.8 17.8571 4.09756 17.1714 4.09756 16.3333C4.09756 15.4952 4.8 14.8095 5.65854 14.8095C6.51707 14.8095 7.21951 15.4952 7.21951 16.3333C7.21951 17.1714 6.51707 17.8571 5.65854 17.8571ZM18.9268 17.8571C18.0683 17.8571 17.3659 17.1714 17.3659 16.3333C17.3659 15.4952 18.0683 14.8095 18.9268 14.8095C19.7854 14.8095 20.4878 15.4952 20.4878 16.3333C20.4878 17.1714 19.7854 17.8571 18.9268 17.8571ZM22.8293 15.5714H21.5493C21.5649 15.6248 21.5727 15.6781 21.5805 15.7238C21.2995 14.5429 20.2146 13.6667 18.9268 13.6667C17.639 13.6667 16.5541 14.5505 16.2732 15.7238C16.2888 15.6705 16.2888 15.6171 16.3044 15.5714H15.4146V7.95238H18.8956L22.8293 11.1524V15.5714ZM16.1951 16.3333C16.1951 16.1657 16.2185 16.0133 16.242 15.8533C16.2107 16.0057 16.1951 16.1657 16.1951 16.3333Z" fill="black"/>
<path d="M5.26808 10.4286C5.58808 10.4286 5.85344 10.1695 5.85344 9.85715C5.85344 9.54477 5.58808 9.28572 5.26808 9.28572H1.36564C1.04564 9.28572 0.780273 9.54477 0.780273 9.85715C0.780273 10.1695 1.04564 10.4286 1.36564 10.4286H5.26808Z" fill="black"/>
</g>
<defs>
<clipPath id="clip0_340_88420">
<rect width="24" height="16" fill="white" transform="translate(0 3)"/>
</clipPath>
</defs>
</svg>
