<svg width="32" height="32" viewBox="0 0 32 32" fill="none" xmlns="http://www.w3.org/2000/svg">
<path d="M27 20.3051V13C27 6.92487 22.0751 2 16 2V2C9.92487 2 5 6.92486 5 13V20.3051V20.3051C5 25.1072 8.89285 29 13.6949 29H15.5" stroke="#D7AD0D" stroke-width="1.5" stroke-linecap="round"/>
<path d="M1 15C1 13.8954 1.89543 13 3 13H5V21H3C1.89543 21 1 20.1046 1 19V15Z" fill="#D7AD0D"/>
<path d="M31 15C31 13.8954 30.1046 13 29 13H27V21H29C30.1046 21 31 20.1046 31 19V15Z" fill="#D7AD0D"/>
<rect x="12" y="27" width="7" height="4" rx="2" fill="#D7AD0D"/>
</svg>
