<svg width="693" height="528" viewBox="0 0 693 528" fill="none" xmlns="http://www.w3.org/2000/svg">
<g clip-path="url(#clip0_1137_191471)">
<path d="M339.39 119.945C336.028 121.315 332.003 121.452 328.342 120.36C324.948 119.462 321.645 117.398 318.43 116.563C316.147 115.917 313.969 116.615 312.154 118.049C308.113 121.132 302.847 121.069 298.181 120.711C290.863 120.029 283.924 118.222 276.821 116.878C270.019 115.722 262.69 114.084 256.182 117.266C256.84 116.626 257.55 116.043 258.329 115.538C269.151 109.231 286.907 114.604 298.638 115.481C302.269 115.749 306.356 116.079 309.376 114.068C312.301 111.994 316.289 111.264 319.661 112.629C323.155 113.921 325.99 116.394 329.257 117.954C332.356 119.556 335.907 120.176 339.395 119.939L339.39 119.945Z" fill="#EB97FF"/>
<path d="M125.006 214.245C122.096 220.421 118.445 226.198 114.615 231.765C111.985 235.782 108.728 239.579 107.145 243.943C106.519 245.813 106.766 247.614 107.587 249.395C107.913 250.057 108.465 251.217 108.686 252.042C110.875 260.513 106.45 269.598 105.256 277.854C104.946 280.128 104.725 282.68 106.098 284.666C106.524 285.348 107.197 285.831 107.908 286.315L107.287 286.147C104.777 285.422 103.415 282.848 102.983 280.422C101.747 272.87 104.33 265.103 104.283 257.75C104.262 255.854 104.099 254.258 103.388 252.724C102.268 250.603 101.337 247.951 101.573 245.424C102 240.551 105.209 236.707 108.06 233.13C113.516 226.628 119.15 220.473 125.011 214.245H125.006Z" fill="#EB97FF"/>
<path d="M323.865 492.556C326.201 490.797 328.636 488.927 330.804 486.979C331.898 485.986 332.977 484.999 333.997 483.948C335.36 482.646 336.507 481.039 338.127 479.847C338.811 479.364 339.727 479.08 340.568 479.169C342.099 479.306 343.536 480.199 344.788 480.918C346.056 481.653 349.212 483.639 350.512 484.432C351.611 485.088 353.105 486.049 354.21 486.611C361.859 490.282 370.856 488.822 378.984 487.378C387.843 485.729 396.224 483.192 405.373 482.084C408.566 481.753 411.765 481.58 415.006 482.236C416.673 482.583 418.404 483.187 419.946 484.264C420.94 485.009 421.882 485.865 423.108 486.207C431.688 488.397 444.441 473.445 449.581 467.348C445.325 474.952 439.464 483.176 431.988 487.966C428.421 490.277 423.471 491.479 419.477 489.221C418.809 488.833 418.146 488.344 417.494 487.924C416.552 487.352 415.411 486.979 414.153 486.784C408.761 486.086 402.874 487.514 397.445 488.664C385.681 491.191 373.686 494.919 361.402 493.307C357.861 492.798 354.226 491.616 351.164 489.552C349.054 488.087 346.829 486.464 344.782 484.936C343.514 484.017 342.231 482.982 340.894 482.263C340.663 482.147 340.489 482.063 340.253 482.011C340.158 481.974 340.116 482 340.042 481.974C339.974 482 339.916 481.969 339.821 482.016C339.779 482.032 339.732 482.042 339.684 482.053L339.521 482.137C338.064 483.024 336.791 484.348 335.339 485.45C331.825 488.265 327.889 490.592 323.849 492.551L323.865 492.556Z" fill="#EB97FF"/>
<path d="M227.095 11.8217C191.82 39.551 163.605 64.2499 186.291 80.0367C238.374 116.274 261.086 -14.8991 227.095 11.8217Z" fill="#474747"/>
<path d="M166.567 86.596C148.154 101.826 151.032 103.953 149.206 122.308C147.381 140.663 142.893 163.271 154.467 154.869C166.041 146.466 167.909 143.514 181.298 132.286C207.603 110.229 187.832 69.0079 166.567 86.596Z" fill="#B7B7B7"/>
<path d="M41.5248 179.878C46.4281 183.538 52.736 187.587 59.007 187.661C60.78 187.64 63.2053 186.925 64.0312 185.376C64.873 183.422 61.406 180.65 63.4946 178.78C64.5415 177.934 65.9936 177.913 67.2772 177.829C75.4423 177.388 96.202 182.577 102.142 178.591C104.593 176.579 99.8215 169.626 98.4958 167.363C97.3594 165.446 95.697 163.713 93.4768 163.377C92.3142 163.151 90.536 163.613 90.194 164.647C90.1046 165.089 90.2676 165.414 90.5886 165.84C91.0042 166.365 91.6986 166.906 92.5036 167.352C95.1446 168.786 98.1538 169.432 101.189 169.915C105.361 170.54 109.681 170.687 113.989 170.65C118.261 170.613 122.659 170.466 126.894 170.062C128.857 169.841 131.203 169.616 132.866 168.838C132.924 168.812 132.881 168.807 132.745 169.006C132.555 169.232 132.455 169.757 132.503 170.062C132.555 170.277 132.566 170.414 132.645 170.503C132.645 170.472 132.382 170.188 132.076 169.952C128.783 167.546 124.548 166.139 120.765 164.395C120.566 164.296 120.476 164.238 120.26 164.075C120.129 163.608 119.903 164.611 119.313 162.142C120.16 158.876 122.275 159.853 123.675 160.126C130.035 161.728 136.28 163.602 142.767 164.322C144.245 164.432 145.892 164.632 147.16 164.086C147.16 164.096 147.175 164.159 147.191 164.086C147.228 163.949 147.081 163.518 146.833 163.14C145.366 160.977 143.177 159.296 141.146 157.636C140.294 156.948 139.421 156.276 138.537 155.62L138.816 155.173C140.789 156.187 142.735 157.253 144.608 158.498C146.044 159.459 147.475 160.493 148.617 161.864C149.006 162.373 149.443 162.93 149.585 163.896C149.853 165.85 147.728 166.895 146.197 167.126C142.709 167.72 139.247 167.305 135.828 166.921C131.172 166.396 126.521 165.314 121.96 164.527L121.665 164.49C121.639 164.49 121.602 164.49 121.744 164.495C121.86 164.495 121.781 164.506 122.06 164.474C121.728 164.485 123.422 164.747 124.048 162.184C123.464 159.753 123.27 160.777 123.164 160.331C123.033 160.236 123.007 160.215 122.922 160.168C122.912 160.168 122.938 160.173 122.949 160.178L123.075 160.231L123.412 160.362C126.926 161.675 130.251 162.788 133.655 164.668C134.965 165.483 135.996 166.05 137.064 167.494C138.521 169.469 137.842 172.121 135.843 173.334C134.323 174.332 132.445 174.726 130.924 175.014C120.387 176.637 99.4585 176.516 90.2992 171.055C88.5736 170.015 86.6586 168.334 86.1536 166.081C85.4644 163.461 87.3741 160.724 89.7994 159.9C93.8767 158.303 98.359 160.551 100.648 163.928C102.568 166.911 104.172 169.736 105.451 173.15C107.997 180.235 103.41 182.908 96.9438 183.018C86.9112 183.317 77.2362 180.25 67.293 179.82C66.4776 179.846 65.4359 179.799 64.7046 180.193C64.7046 180.214 64.6468 180.219 64.6678 180.229C64.6678 180.235 64.652 180.224 64.652 180.24C64.652 180.256 64.652 180.266 64.6468 180.282C64.6573 180.938 65.0098 181.485 65.2676 182.204C65.7463 183.359 66.1146 184.819 65.4885 186.069C62.6897 190.381 56.3344 189.168 52.3782 187.451C48.2747 185.66 44.5815 183.149 41.1724 180.277L41.5143 179.878H41.5248Z" fill="black"/>
<path d="M179.099 50.9629C192.172 36.4366 203.021 20.0354 215.289 4.82111C218.198 1.02935 223.375 -2.19522 227.631 1.91689C231.13 5.69815 230.946 11.8584 230.951 16.522C230.514 27.4666 228.247 37.8546 225.248 48.2635C222.586 57.2545 219.066 66.2245 214.147 74.3385C212.111 77.7416 210.097 81.2603 207.798 84.5951C206.377 86.575 205.004 88.6285 202.731 90.2565C200.48 91.9581 197.218 92.1471 194.708 91.0653C193.914 90.7659 192.546 90.1987 191.752 90.0097C191.61 89.9782 191.583 89.9677 191.588 89.9519C191.588 89.9361 191.578 89.9151 191.462 89.9782C190.636 90.5558 190.152 91.5379 189.6 92.7301C188.763 94.647 188.137 96.9682 187.643 99.3368C186.896 102.929 186.438 106.736 186.096 110.444C185.875 112.944 185.723 116.242 185.091 118.747C183.118 127.722 175.921 129.839 168.698 133.232C159.528 137.485 151.395 143.399 143.977 150.268L138.495 155.32C138.789 148.273 139.01 140.657 139.394 133.678C139.747 126.515 140.189 119.346 140.857 112.193C141.383 107.209 141.683 101.658 145.103 97.6247C146.77 95.5555 148.685 93.9905 150.511 92.4465C154.183 89.4162 157.718 86.365 160.933 82.8673C162.537 81.1395 164.079 79.3434 165.563 77.5C166.299 76.5757 167.02 75.6304 167.72 74.6798C168.409 73.787 168.987 72.931 169.019 71.8229C169.15 68.2359 163.884 65.9304 165.184 62.1282C166.346 59.7123 168.819 58.8616 170.939 57.6064C174.096 55.9363 176.763 53.6939 179.094 50.9682L179.099 50.9629ZM179.872 51.6772C178.241 53.4313 176.479 55.1591 174.464 56.4878C172.528 57.869 170.261 58.8616 168.288 60.1115C160.601 65.1111 174.511 68.0049 168.845 75.4623L167.841 76.9538C164.789 81.4231 161.422 85.7032 157.692 89.642C156.035 91.4014 154.294 93.0872 152.594 94.7415C149.311 97.8715 146.355 100.996 145.902 105.586C144.897 119.682 145.013 133.951 144.913 148.094L139.705 145.825C145.36 140.195 151.584 134.917 158.418 130.663C160.717 129.235 163.09 127.912 165.478 126.698C168.782 124.939 172.239 123.663 174.953 121.499C177.242 119.498 177.515 117.109 177.784 113.721C177.899 111.316 178.052 108.186 178.273 105.833C179.115 98.0501 180.209 83.4397 189.605 81.0659C192.599 80.2782 195.582 81.5281 198.244 82.3316C198.301 82.3369 198.207 82.3001 198.012 82.3001C197.791 82.2738 197.291 82.4261 197.176 82.4787C199.59 79.753 201.369 76.0348 203.236 72.6999L206.814 65.9094C210.133 59.3132 212.559 52.2496 214.747 45.1178C217.883 34.462 220.766 23.3703 221.539 12.3521C221.597 10.7871 221.602 9.32185 221.339 7.96165C221.292 7.67806 221.187 7.54676 221.439 7.78834C221.697 8.0982 222.728 8.42906 223.117 8.29776C223.517 8.20323 223.333 8.14021 223.065 8.27676C221.623 8.90172 219.209 11.5066 217.967 12.5989C204.72 25.0718 192.325 38.427 179.867 51.6772H179.872Z" fill="black"/>
<path d="M199.996 83.8599C199.885 80.9189 198.028 78.9758 196.076 77.0011C194.035 75.079 192.204 72.742 189.926 70.9826C188.748 70.0636 187.517 69.197 186.238 68.3777C182.366 65.8412 178.263 63.793 173.875 62.1702L173.991 61.6555C177.147 61.9496 180.288 62.6428 183.35 63.6092C186.433 64.5965 189.416 65.8727 192.251 67.4797C193.677 68.2885 195.129 69.0972 196.534 70.0531C199.438 72.0697 201.7 75.1788 202.205 78.8497C202.447 80.7036 201.932 82.8726 200.48 84.0805L200.001 83.8599H199.996Z" fill="black"/>
<path d="M141.583 147.301C142.493 141.592 143.519 135.92 144.798 130.275C145.808 126.331 146.681 122.644 148.407 118.794C148.938 117.807 149.496 116.762 150.727 115.754C151.432 115.186 152.336 114.798 153.068 114.257C153.541 113.952 154.136 113.427 154.467 113.107C154.52 113.075 154.536 113.07 154.557 113.243C154.583 113.553 154.756 113.9 154.993 114.11C155.283 114.351 155.446 114.325 155.451 114.288C155.356 114.115 154.956 114.073 154.709 114.026C154.236 113.973 153.625 113.91 153.168 113.947C152.952 113.958 152.726 113.921 152.605 114.141C152.452 114.388 152.463 114.877 152.552 115.323L152.142 115.649C151.668 115.328 151.253 114.913 151.048 114.199C150.585 111.894 153.357 110.738 155.235 110.428C157.056 110.103 159.039 111.363 158.992 113.48C158.823 116.1 157.035 117.902 155.135 119.367C154.814 119.614 154.451 119.798 154.125 120.034C152.536 121.468 151.237 123.899 150.248 126.073C147.244 133.063 144.855 140.332 142.072 147.432L141.562 147.296L141.583 147.301Z" fill="black"/>
<path d="M177.363 73.451C180.903 75.5255 184.591 76.9855 187.827 79.6639C189.1 80.6932 189.989 82.6941 189.873 84.3799L186.212 83.9703C186.327 83.5344 186.375 83.1668 186.317 82.7781C185.964 81.1816 184.481 79.9895 183.25 78.7501C181.34 76.9697 179.315 75.2261 177.363 73.4458V73.451Z" fill="black"/>
<path d="M138.711 351.452C36.3586 335.088 -48.306 432.371 67.493 467.048C183.292 501.725 286.933 375.148 138.711 351.452Z" fill="#9CFFEC"/>
<path d="M208.655 396.186C208.555 399.007 208.45 401.921 207.861 404.678C207.671 406.301 207.056 408.292 206.677 409.888C205.914 412.22 205.088 414.683 204.073 416.91C203.762 417.598 202.978 419.152 202.673 419.809C202.405 420.318 201.411 422.067 201.116 422.629C187.148 445.737 161.569 459.806 135.649 465.41C126.453 467.4 116.909 468.345 107.503 468.33C106.771 468.33 106.082 468.351 105.246 468.33L109.712 465.326C102.826 482.772 81.666 486.133 65.0782 484.915C60.0908 484.741 47.5381 482.341 42.4771 481.616C45.0234 481.097 58.865 478.502 61.0009 478.066C62.2635 477.672 63.584 477.373 64.7835 476.822C65.1308 476.69 65.699 476.449 66.0146 476.323C66.1619 476.239 67.7349 475.404 67.9454 475.288C72.9591 472.305 76.547 466.954 77.1941 461.135L78.6357 462.999C70.8494 461.408 63.1789 459.318 55.7084 456.602C29.7298 447.139 2.19389 427.655 0.115815 397.757C-1.44143 376.098 12.7737 356.725 29.8665 344.992C46.6701 333.202 66.7722 326.59 87.0584 324.227C119.14 320.551 153.331 326.821 179.578 346.29C195.418 358.017 208.766 375.804 208.655 396.197V396.186ZM207.603 396.186C207.613 380.478 198.438 366.299 186.27 356.956C167.641 342.697 144.003 336.747 120.981 334.688C102.652 333.249 83.9755 334.809 66.2777 339.856C46.9541 345.412 27.578 355.464 16.025 372.359C2.59899 392.431 6.68675 415.045 23.0273 432.124C37.7948 447.48 58.4704 456.067 79.2617 459.528L80.8084 459.801C80.7085 462.059 80.4139 464.433 79.7036 466.56C77.7571 472.983 72.8749 478.371 66.8406 481.27C64.389 482.583 61.6533 483.371 58.986 484.106L58.8229 478.618C63.0579 478.891 67.4614 478.775 71.6912 478.355C81.3661 477.273 92.2931 474.752 98.4747 466.712C100.132 464.575 101.179 461.492 102.163 458.981C105.109 459.034 108.571 458.966 111.522 458.85C140.489 457.506 175.995 449.271 195.708 426.552C203.057 418.06 207.571 407.499 207.603 396.186Z" fill="black"/>
<path d="M94.3607 419.037C80.5086 418.459 74.1481 442.775 96.1442 442.775C118.14 442.775 122.896 420.224 94.3607 419.037Z" fill="#B7B7B7"/>
<path d="M93.5242 411.343C73.7167 399.164 81.4608 343.438 115.105 352.55C148.748 361.667 140.578 387.573 129.041 397.168C117.509 406.763 114.237 424.078 93.5242 411.343Z" fill="#FFE783"/>
<path d="M76.9574 420.192C76.9627 421.342 76.9785 422.445 77.2099 423.432C77.4467 424.551 77.8728 425.481 78.0675 426.704C78.299 428.049 78.2306 429.43 78.0675 430.685C77.9781 431.557 77.7097 433.022 77.694 433.873C77.5256 436.199 78.0991 437.806 80.214 438.799C81.7133 439.561 83.5652 440.044 85.3066 440.453C88.2211 441.089 91.3356 441.624 94.287 441.64C99.3481 441.672 107.082 439.975 104.914 433.332C104.172 431.116 103.478 428.758 103.683 426.169C103.778 424.887 104.167 423.621 104.488 422.54C104.73 421.663 104.935 420.943 104.825 420.103L104.809 419.961C104.819 419.872 104.767 419.993 104.767 420.019C104.756 420.103 104.746 420.171 104.735 420.245C104.762 420.323 104.704 420.318 104.704 420.35C104.656 420.371 104.572 420.334 104.43 420.281C101.242 419.178 97.6961 418.811 94.3344 417.96C90.215 417.13 85.9379 416.217 81.7765 415.88C80.4034 415.838 78.9566 415.681 77.8255 416.259C77.5098 416.453 77.3941 416.883 77.4362 417.267L76.8259 417.676C76.0631 416.962 75.9947 415.775 76.5313 414.883C78.0201 412.719 80.7506 412.083 83.0864 411.537C87.1953 410.781 91.404 410.917 95.5076 411.527C97.8434 411.858 100.153 412.446 102.41 413.433C104.951 414.604 109.249 416.899 108.781 420.339C108.329 422.624 106.513 424.294 106.029 426.494C105.251 429.945 107.987 432.723 108.334 436.094C108.734 438.862 107.539 441.913 105.551 443.893C99.7532 449.912 87.3636 449.733 79.9509 447.144C71.5755 444.072 69.2396 437.26 73.3326 429.419C73.7482 428.516 74.0955 427.671 74.2796 426.773C74.5111 425.738 74.4743 424.451 74.7741 423.343C75.0793 422.083 75.6211 420.99 76.2525 419.992L76.9574 420.203V420.192Z" fill="black"/>
<path d="M104.556 413.365C106.303 412.682 107.055 411.422 107.744 409.746C108.465 408.087 109.328 406.207 110.612 404.6C112.127 402.588 114.105 401.018 116.088 399.547C119.687 396.775 122.638 393.125 124.569 389.023C128.72 380.268 128.241 369.513 123.012 361.304C119.371 355.743 113.863 351.384 107.445 349.262C97.2436 345.806 85.3959 349.64 79.6615 358.873C77.1678 362.685 75.8789 366.871 75.116 371.209C74.9582 372.611 74.7267 374.082 74.7109 375.494C74.3216 380.51 75.9473 385.441 77.8359 390.058L78.3515 391.297C79.5089 393.702 79.914 396.47 79.6773 399.064C79.5247 401.055 79.1038 402.888 78.9092 404.563C78.6777 406.228 78.9407 407.793 80.4243 408.712L80.1508 409.394C79.6615 409.289 79.1617 409.127 78.6935 408.843C76.326 407.378 76.2261 404.201 75.9999 401.8C75.8157 399.39 75.5211 396.654 74.369 394.711L73.7324 393.666C73.0274 392.458 72.233 391.166 71.6175 389.9C69.1291 385.194 67.5718 379.27 68.161 373.719C68.1452 373.257 68.2715 372.653 68.3452 372.202C68.6398 370.211 69.1606 368.163 69.8919 366.293C76.5207 349.934 97.5172 341.243 114.131 346.673C130.803 352.229 139.8 372.07 132.939 388.261C130.104 395.357 124.474 401.275 117.582 404.547C114.352 406.044 111.995 408.108 109.807 411.017C108.665 412.588 106.755 414.142 104.688 414.09L104.546 413.37L104.556 413.365Z" fill="black"/>
<path d="M59.5069 427.329C57.0395 427.676 54.6615 428.001 52.2993 428.705C51.2156 429.02 50.2791 429.708 49.2059 429.966C48.1695 430.26 47.2225 430.47 45.8284 430.979L45.5653 430.806C45.5653 428.542 47.7065 426.689 49.8214 426.389C53.0674 425.969 56.3713 426.184 59.5121 427.009V427.324L59.5069 427.329Z" fill="black"/>
<path d="M43.24 405.435C41.2724 405.482 39.4731 406.002 37.7107 406.774C36.8689 407.141 36.185 407.84 35.2643 408.029C34.4542 408.234 33.5387 408.318 32.6812 408.313C32.5444 408.307 32.4076 408.334 32.3024 408.265H31.9868C31.9447 407.95 32.0131 407.808 32.0499 407.63C32.5392 406.128 33.8439 404.852 35.4064 404.563C37.0215 404.337 38.6366 404.074 40.2622 404.269C41.3302 404.4 42.3772 404.663 43.3083 405.125L43.24 405.429V405.435Z" fill="black"/>
<path d="M52.4676 374.234C50.4685 372.554 47.7117 372.244 45.2285 371.729C43.9449 371.509 42.5928 371.608 41.3565 371.13C40.1149 370.673 38.8891 370.112 37.6896 369.077L37.7264 368.762C39.7256 367.869 41.9667 367.743 43.9869 368.494C47.0962 369.891 50.8998 370.936 52.7201 374.056L52.4624 374.234H52.4676Z" fill="black"/>
<path d="M67.2562 353.721C66.2567 352.791 65.2939 351.94 64.2365 351.116C63.7735 350.738 63.0685 350.601 62.7844 350.034C62.4004 349.446 62.4056 348.69 62.1373 348.028V347.713C62.8686 347.056 64.1312 347.282 64.8941 347.686C65.8673 348.248 66.1199 349.567 66.6723 350.475C67.0932 351.468 67.4088 352.508 67.5403 353.574L67.2562 353.715V353.721Z" fill="black"/>
<path d="M141.041 351.704C143.482 349.976 146.223 348.658 148.896 347.329C150.653 346.542 152.841 346.594 154.493 347.713V348.028C153.452 348.842 152.542 349.414 151.395 349.903C150.353 350.391 149.164 350.312 148.054 350.549L144.64 351.268C143.487 351.51 142.341 351.772 141.162 351.993L141.041 351.704Z" fill="black"/>
<path d="M151.816 371.382C154.672 369.634 158.029 368.725 161.375 368.515C164.116 368.137 166.93 369.061 168.666 371.382L168.53 371.666C167.714 371.792 166.983 371.834 166.267 371.855C164.547 371.939 162.89 371.771 161.248 371.304C158.139 370.773 155.03 371.052 151.937 371.671L151.821 371.377L151.816 371.382Z" fill="black"/>
<path d="M146.812 394.984C149.417 394.107 152.142 393.655 154.914 393.797C155.956 393.881 157.071 393.802 158.097 394.112C159.144 394.417 160.081 395.005 160.891 395.756C161.422 396.276 161.906 396.864 162.196 397.641L162.001 397.888C160.107 397.825 158.76 397.678 157.161 397.258C156.282 396.969 155.451 396.528 154.546 396.286C152.684 395.814 150.774 395.535 148.848 395.388L146.865 395.294L146.818 394.984H146.812Z" fill="black"/>
<path d="M136.212 423.17C138.521 423.532 140.573 425.003 142.209 426.604C142.63 427.009 143.072 427.397 143.498 427.807C144.35 428.647 144.766 429.771 144.945 430.948C145.018 431.552 145.045 432.182 144.876 432.88L144.592 433.012C143.34 432.423 142.519 431.688 141.793 430.911C140.773 429.713 140.431 428.112 139.389 426.872C139.173 426.547 138.7 425.916 138.447 425.617C137.779 424.808 137.027 424.073 136.112 423.459L136.217 423.165L136.212 423.17Z" fill="black"/>
<path d="M258.271 425.045C188.784 420.108 140.646 421.868 142.135 454.234C143.619 486.601 134.007 512.066 200.19 515.517C266.368 518.967 297.549 528.142 292.104 480.319C286.659 432.497 296.213 427.739 258.276 425.045H258.271Z" fill="#FFE783"/>
<path d="M288.885 437.287C288.8 451.025 289.426 464.779 290.21 478.502C290.494 491.842 281.382 504.635 268.577 508.731C265.731 509.692 262.717 510.244 259.702 510.354C258.166 510.443 255.099 510.48 253.515 510.527C247.723 510.674 241.794 510.68 235.986 510.669L232.482 510.632L235.144 509.808C234.013 510.559 233.192 511.399 232.824 512.035C232.429 512.738 232.387 513.206 232.55 514.041C232.724 514.939 233.329 516.126 234.181 517.26C235.128 518.536 236.343 519.744 237.569 520.784C239.279 522.291 239.447 524.896 237.937 526.603C237.006 527.659 235.628 528.121 234.323 527.968C231.651 527.632 228.946 526.955 226.4 525.773C220.055 522.943 215.457 516.866 213.979 510.186C213.679 508.873 213.479 507.565 213.448 506.095L216.289 508.789C201.847 507.996 187.401 507.523 172.944 507.523C167.704 507.55 161.953 507.565 156.687 507.665C153.004 507.754 149.069 507.901 145.455 507.04C131.755 504.33 120.897 491.836 120.155 477.862C119.96 474.658 119.824 470.162 119.676 466.943C119.308 457.511 119.003 446.566 118.861 437.181C118.861 436.425 118.898 434.797 118.966 434.036C119.876 421.248 128.667 409.505 140.704 404.983C143.714 403.838 146.891 403.098 150.1 402.83C152.026 402.562 161.901 402.688 164.063 402.62C192.951 402.567 221.96 403.124 250.758 405.403C253.883 405.682 258.666 405.829 261.759 406.249C277.063 408.281 289.058 421.867 288.869 437.292L288.885 437.287ZM287.832 437.287C287.895 422.86 275.953 410.45 261.438 410.487C254.388 410.739 246.97 411.474 239.937 411.868C218.293 413.417 196.607 413.764 174.916 413.895C168.445 413.979 157.413 413.785 150.958 413.89C142.819 414.315 135.17 419.263 131.361 426.463C129.767 429.404 128.82 432.723 128.573 436.079C128.499 436.714 128.494 439.198 128.467 439.897C128.431 445.164 128.194 450.894 128.083 456.125L127.699 466.943L127.263 477.662C127.199 480.834 127.699 484.043 128.815 487.078C131.603 494.846 138.384 501.048 146.397 503.222C148.827 503.91 151.463 504.173 153.999 504.178C174.769 504.63 195.571 504.283 216.31 503.107C217.714 503.033 218.924 504.052 219.103 505.423C219.219 506.452 219.45 507.497 219.829 508.579C221.365 513.153 224.832 517.055 229.425 518.599C231.188 519.235 233.103 519.529 235.07 519.639L232.229 527.181C231.335 526.535 230.446 525.82 229.641 525.075C224.922 520.889 221.302 514.057 224.648 507.728C225.885 505.333 227.757 503.537 229.825 502.088C230.609 501.536 231.509 501.269 232.398 501.263H232.487L235.991 501.227C241.794 501.211 247.723 501.227 253.52 501.368L260.349 501.536C266.357 501.536 272.47 499.352 277.126 495.429C282.051 491.38 285.397 485.466 286.322 479.127C286.643 477.026 286.691 474.6 286.849 472.284C287.527 460.631 287.874 448.956 287.843 437.287H287.832Z" fill="black"/>
<path d="M159.781 454.56C172.386 459.27 184.775 467.883 194.24 477.389L185.196 478.177C189.589 471.302 195.213 465.347 200.716 459.37C214.268 444.797 230.088 430.218 249.512 424.262C253.41 423.112 257.461 422.461 261.486 422.419L261.564 423.517C242.388 426.893 227.405 442.113 215.031 456.167C208.692 463.404 203.163 471.539 197.991 479.642C196.229 482.289 192.52 487.835 190.741 490.508L185.801 485.141C181.135 479.905 170.26 468.419 165.794 463.267C163.569 460.725 161.296 458.21 159.139 455.458L159.781 454.56Z" fill="black"/>
<path d="M161.622 487.877C160.196 489.032 158.865 490.198 157.566 491.464C156.945 492.062 156.535 492.908 155.735 493.302C154.84 493.774 153.788 494.137 152.731 494.131C152.457 492.934 152.994 491.842 153.652 490.938C154.593 489.809 156.156 489.489 157.397 488.79C158.718 488.244 160.091 487.814 161.496 487.583L161.622 487.871V487.877Z" fill="black"/>
<path d="M220.687 425.349C220.997 423.48 221.639 421.657 222.512 419.966C222.949 419.116 223.223 418.107 224.043 417.519C224.648 417.046 225.411 416.684 226.211 416.558C226.532 416.532 226.789 416.463 227.247 416.6C227.274 417.199 227.105 417.834 226.942 418.37C226.653 419.221 226.305 420.014 225.585 420.57C224.859 421.09 224.254 421.731 223.659 422.387C222.707 423.375 221.86 424.399 220.971 425.47L220.682 425.344L220.687 425.349Z" fill="black"/>
<path d="M148.185 467.505C146.244 468.461 144.503 469.637 142.961 471.103C142.209 471.791 141.73 472.752 140.846 473.303C139.989 473.881 139.079 474.406 137.758 474.789L137.49 474.621C137.395 472.993 138.09 471.528 139.194 470.42C139.868 469.832 140.72 469.475 141.488 469.049C143.498 467.915 145.818 467.248 148.112 467.195L148.18 467.5L148.185 467.505Z" fill="black"/>
<path d="M152.783 441.21C150.811 440.133 148.696 438.972 146.649 438.095C145.655 437.654 144.524 437.554 143.608 436.966C142.598 436.362 141.793 435.721 140.804 434.944L140.767 434.629C142.456 433.437 144.818 433.684 146.444 434.776C148.391 436.215 150.29 437.749 151.863 439.592C152.247 440.044 152.626 440.506 152.989 440.968L152.783 441.204V441.21Z" fill="black"/>
<path d="M182.529 427.586C181.04 425.974 179.788 424.194 178.11 422.792C177.052 421.794 176.842 420.722 176.674 419.079L176.863 418.827C178.026 418.743 178.973 419.189 179.804 419.845C180.861 420.785 181.088 422.308 181.714 423.522C182.192 424.798 182.566 426.111 182.818 427.45L182.534 427.586H182.529Z" fill="black"/>
<path d="M260.675 435.16C263.148 434.346 265.71 433.778 268.325 433.673C268.988 433.637 269.661 433.584 270.345 433.563C271.75 433.542 273.096 434.099 274.206 434.976C274.764 435.443 275.295 435.995 275.569 436.772L275.364 437.013C273.275 437.029 271.765 437.213 269.919 436.656C268.177 436.052 266.357 435.932 264.511 435.722L262.627 435.58C261.996 435.554 261.359 435.517 260.717 435.475L260.675 435.165V435.16Z" fill="black"/>
<path d="M243.219 466.161C246.26 465.982 249.312 466.455 252.147 467.642C252.4 467.726 252.894 467.925 253.136 468.041C255.109 468.965 256.609 471.066 256.53 473.308L256.246 473.45C254.883 472.83 253.857 472.289 252.847 471.701C251.811 471.134 251.053 470.173 250.053 469.543C247.97 468.209 245.54 467.242 243.183 466.476L243.219 466.161Z" fill="black"/>
<path d="M219.061 490.277C220.834 490.03 222.66 490.045 224.406 490.502C225.08 490.676 225.853 490.765 226.474 491.133C227.126 491.553 227.589 492.172 227.873 492.913C228.052 493.417 228.163 493.984 227.984 494.62L227.7 494.751C226.574 494.541 225.874 494.41 225.195 494.147C224.475 493.916 224.064 493.212 223.428 492.824C222.765 492.383 222.049 492.02 221.334 491.642L220.197 491.101C219.808 490.938 219.419 490.765 219.019 490.581L219.061 490.266V490.277Z" fill="black"/>
<path d="M386.738 177.714C272.139 312.652 360.239 375.017 437.88 424.84C515.522 474.663 601.617 493.885 675.392 400.598C749.166 307.311 579.163 -48.857 386.733 177.719L386.738 177.714Z" fill="#DBEDFF"/>
<path d="M291.957 324.09C305.899 327.593 354.699 346.452 364.963 339.699C369.561 336.763 367.136 315.084 367.783 308.871C367.962 303.036 369.435 294.423 377.442 296.97C378.516 297.364 379.468 297.869 380.404 298.467C383.687 300.426 386.875 302.816 389.632 305.489C398.818 314.732 406.094 325.614 413.848 335.954C441.374 374.271 470.788 413.092 493.831 454.308C495.114 456.508 498.334 462.695 499.718 464.638C499.697 464.627 499.623 464.548 499.56 464.512C499.465 464.433 499.376 464.38 499.218 464.286C498.797 463.987 497.792 463.745 497.261 463.782C497.119 463.797 497.15 463.792 497.15 463.803C497.329 463.776 497.955 463.593 498.587 463.33C502.38 461.723 505.92 459.491 509.619 457.175C515.622 453.341 521.582 449.213 527.501 445.017C542.247 434.587 557.078 423.48 571.593 412.661C598.276 393.083 628.001 378.462 655.521 360.317C658.509 358.29 661.466 356.21 664.181 353.957C666.08 352.382 667.989 350.659 669.115 348.606C669.178 348.501 669.278 348.249 669.363 348.049L669.626 347.429L670.125 346.2C670.583 345.103 670.972 343.979 671.093 342.913C671.093 342.356 671.051 342.346 670.683 341.878C669.81 340.97 668.821 340.24 667.8 339.363C664.165 336.327 661.034 332.73 658.272 328.938C651.717 320.131 640.78 304.654 634.219 295.563C608.904 259.998 582.409 224.628 556.352 189.583C554.19 186.595 552.043 183.596 549.949 180.413C548.192 177.562 545.819 174.368 545.509 170.682C545.272 168.387 546.809 165.619 549.013 164.721C551.817 163.503 553.984 164.222 556.552 164.779C558.372 165.194 560.255 165.866 562.002 166.328C569.788 168.623 577.511 171.627 585.266 173.455C587.912 173.985 590.632 174.736 593.1 174.263C593.147 174.242 593.11 174.242 592.942 174.332C592.784 174.416 592.526 174.615 592.321 174.883C592.084 175.193 591.942 175.513 591.905 175.729L591.974 175.083C593.2 162.683 594.51 149.318 595.925 136.95C597.077 127.696 597.992 118.348 600.16 109.037C600.307 108.496 600.428 107.997 600.644 107.356L600.912 106.537C600.96 106.4 600.996 106.28 601.028 106.175C601.086 105.97 601.107 105.828 601.091 105.891C601.091 105.949 601.023 106.227 601.165 106.926C601.296 107.598 601.833 108.527 602.317 108.942C602.79 109.383 603.022 109.457 603.043 109.483C601.154 109.021 598.981 108.827 596.935 108.643C589.648 108.028 582.046 107.283 574.744 106.143C560.308 103.943 545.762 100.24 531.546 97.5985C517.689 94.9726 504.179 94.3581 490.29 96.5481C483.24 97.5932 476.159 99.2685 469.136 100.634L447.639 104.825C444.62 105.429 440.616 106.248 438.222 107.136C440.506 105.681 441.242 101.716 439.616 99.4261C439.548 99.3053 439.427 99.1687 439.39 99.1162C439.259 98.9639 439.385 99.1162 439.548 99.3053C440.537 100.492 441.379 101.789 442.11 102.971C451.459 118.243 453.6 138.588 444.162 154.344C439.964 161.586 434.035 167.405 427.332 172.21C413.801 182.094 396.661 186.537 380.441 180.86C368.888 177.052 357.424 167.73 351.674 159.123C352.737 160.504 355.278 160.982 356.693 159.989C356.898 159.847 356.893 159.826 356.867 159.837C356.793 159.884 356.583 160.094 356.367 160.341C356.146 160.593 355.909 160.887 355.667 161.202C346.44 174.589 337.57 188.658 327.658 201.657C323.439 207.334 318.998 213.342 315.579 219.523C312.091 225.746 309.302 232.316 307.84 239.275C306.309 246.338 306.046 253.68 304.852 260.87C304.268 264.504 303.368 268.096 302.5 271.668C299.88 282.297 297.092 292.895 294.651 303.561C293.846 307.112 293.099 310.678 292.467 314.254C292.02 316.911 291.568 319.59 291.584 322.268C291.594 322.699 291.626 323.124 291.704 323.502C291.747 323.686 291.799 323.865 291.857 323.975C291.92 324.101 291.962 324.106 291.936 324.096L291.957 324.09ZM291.578 325.388C288.927 324.847 290.894 315.814 291.073 314.007C293.872 298.005 298.239 281.761 301.374 265.807C303.184 256.826 302.805 247.678 304.289 238.592C305.493 231.192 308.04 224.003 311.338 217.291C314.49 210.679 318.599 204.251 322.618 198.127C326.595 192.046 330.436 185.886 334.145 179.646C338.974 171.737 343.099 163.671 348.102 155.793C350.096 152.626 353.41 149.491 357.498 151.665C358.408 152.112 359.371 153.283 359.624 153.719C360.565 154.916 361.775 156.213 362.922 157.332C373.27 167.483 388.064 174.116 402.442 170.272C414.243 167.174 426.327 158.156 432.346 147.611C439.611 134.954 436.407 118.516 427.679 107.288C425.496 104.226 425.622 99.321 428.837 96.3538C431.857 93.5651 435.56 92.8876 439.159 91.9108C448.213 89.7891 457.32 88.2241 466.279 86.3807C473.602 84.9523 480.762 83.2034 488.191 82.1583C503.258 79.8108 519.341 80.5671 534.182 83.6446C548.697 86.4753 562.47 90.288 576.917 92.7354C580.426 93.3288 583.94 93.8487 587.476 94.2951C592.973 95.0619 598.639 95.3455 604.242 96.3223C610.098 97.2466 614.901 101.065 613.98 107.619C613.786 109.121 613.37 110.15 612.944 111.411C612.355 113.207 611.981 115.15 611.566 117.203C608.972 131.225 607.346 145.852 605.584 160.115L604.29 170.986C604.074 172.809 603.853 174.615 603.606 176.49C603.39 178.397 602.901 180.193 601.649 181.842C597.04 187.713 588.649 185.933 582.52 184.399C575.065 182.362 566.121 178.859 558.851 176.348C556.715 175.66 554.153 174.715 552.043 174.279C551.996 174.269 552.001 174.279 552.154 174.263C552.301 174.237 552.617 174.242 553.279 173.943C554.011 173.66 554.995 172.672 555.289 171.89C555.479 171.464 555.557 171.107 555.594 170.839C555.626 170.561 555.626 170.403 555.621 170.262C555.605 170.015 555.573 169.962 555.573 169.962C555.573 169.968 555.584 170.041 555.615 170.136C557.662 175.025 561.097 179.667 564.033 184.268C587.66 218.867 614.307 258.381 637.976 292.937C644.042 301.66 650.57 311.197 656.763 319.873C660.966 325.677 664.906 331.695 670.42 336.28L672.54 338.05C672.914 338.375 673.308 338.722 673.713 339.174C674.592 340.03 675.334 341.847 675.171 343.118C675.06 345.281 674.129 347.104 673.419 349.015C672.203 352.418 669.441 354.923 666.864 357.145C658.299 364.245 648.803 369.964 639.522 375.951C621.556 387.148 601.728 399.684 584.914 412.189C579.805 415.98 572.908 421.715 567.968 425.822C556.652 435.149 545.341 444.445 533.719 453.425C527.843 457.936 521.961 462.379 515.8 466.57C512.681 468.676 509.54 470.735 505.973 472.657C503.753 473.707 502.096 474.737 499.334 475.288C494.62 476.276 491.332 473.713 489.043 469.921C485.166 463.619 481.699 457.128 477.874 450.868C462.965 425.969 446.613 401.832 430.573 377.59C418.473 359.366 406.914 340.712 394.798 322.546C389.837 315.294 384.755 308.004 377.369 303.136C376.637 302.627 375.717 301.975 374.88 301.807C374.717 301.776 374.649 301.781 374.607 301.776C374.57 301.776 374.523 301.776 374.412 301.86C373.833 302.401 373.491 303.294 373.213 304.239C372.771 305.746 372.518 307.474 372.323 309.212C371.96 312.715 371.866 316.349 371.729 319.999C371.466 325.54 371.476 331.238 370.024 336.721C369.751 337.672 369.414 338.622 368.92 339.567C367.904 341.616 365.695 342.85 363.606 343.328C357.051 344.662 350.375 342.876 344.035 341.484C326.274 336.999 309.108 330.45 291.568 325.388H291.578Z" fill="black"/>
<path d="M374.675 187.671C384.303 191.71 395.282 192.482 405.42 190.139C409.166 189.31 412.596 187.608 416.095 186.117C418.378 185.082 420.835 184.142 423.113 183.092C426.838 181.511 430.383 179.688 434.213 178.26L434.661 178.769C433.24 181.227 431.451 183.459 429.415 185.429C425.338 189.367 420.33 192.566 414.79 193.957C406.557 196.011 397.823 196.552 389.527 194.635C384.129 193.375 378.9 191.379 374.323 188.244L374.675 187.666V187.671Z" fill="black"/>
<path d="M493.631 365.558C493.631 365.558 522.613 377.758 548.492 359.661C574.371 341.563 573.14 310.709 573.14 310.709C573.14 310.709 554.868 315.934 566.805 334.016C566.805 334.016 558.782 329.053 549.649 335.439C540.516 341.826 543.515 352.565 543.515 352.565C543.515 352.565 535.445 345.376 526.312 351.762C517.179 358.148 517.894 366.708 517.894 366.708C517.894 366.708 508.246 350.801 493.636 365.553L493.631 365.558Z" fill="black"/>
<path d="M437.186 285.128C437.186 285.128 435.602 253.764 461.481 235.672C487.36 217.575 515.99 229.27 515.99 229.27C515.99 229.27 504.831 244.626 491.879 227.253C491.879 227.253 493.81 236.476 484.677 242.862C475.543 249.248 466.458 242.767 466.458 242.767C466.458 242.767 470.472 252.798 461.339 259.184C452.206 265.57 444.388 261.978 444.388 261.978C444.388 261.978 456.067 276.462 437.191 285.133L437.186 285.128Z" fill="black"/>
<path d="M492.763 279.708L490.495 322.825C490.495 322.825 497.803 326.774 516.579 313.645C535.355 300.515 534.135 292.307 534.135 292.307L492.768 279.708H492.763Z" fill="#CD00FF"/>
<path d="M677.107 117.461C655.011 113.748 548.471 185.907 576.691 209.991C604.911 234.076 677.107 117.461 677.107 117.461Z" fill="white"/>
<path d="M493.778 287.58C531.404 286.924 517.184 246.307 535.14 222.721C553.09 199.136 570.783 224.47 567.831 246.37C561.597 292.601 493.778 287.58 493.778 287.58Z" fill="white"/>
<path d="M586.182 191.4C604.348 146.603 677.843 105.045 679.216 134.518C680.59 163.991 550.696 278.899 586.182 191.4Z" fill="#C69B8D"/>
<path d="M576.465 256.973C580.263 216.839 553.653 195.407 547.319 231.886C540.985 268.364 509.093 295.978 515.637 295.348C522.187 294.717 572.877 294.928 576.465 256.973Z" fill="#7A6A5F"/>
<path d="M517.068 280.79C520.746 270.764 529.868 253.88 532.357 242.636C534.845 231.392 539.043 230.767 537.165 241.601C535.287 252.436 543.147 248.802 547.414 240.551C551.68 232.301 559.203 242.111 551.88 251.238C544.562 260.361 563.002 260.707 548.834 269.147C534.671 277.586 533.872 279.304 535.603 281.919C538.486 286.257 512.486 293.279 517.068 280.795V280.79Z" fill="#CD00FF"/>
<path d="M676.507 117.728C676.407 117.844 676.391 118.007 676.46 118.112C676.46 118.133 676.523 118.149 676.449 118.154L675.907 118.233C675.544 118.29 675.186 118.369 674.834 118.448C669.778 119.766 665.185 122.35 660.619 124.855C655.384 127.817 650.265 131.021 645.199 134.298C640.296 137.475 634.987 141.067 630.163 144.402C623.04 149.454 615.064 154.932 607.741 159.79C594.778 168.471 579.095 179.636 574.891 195.407C573.471 201.399 575.733 206.724 581.715 208.578C592.384 211.315 609.456 193.658 616.379 186.148C635.692 164.994 654.253 141.907 673.382 120.564C674.276 119.567 675.234 118.527 676.144 117.539L676.244 117.434C676.265 117.413 676.275 117.398 676.27 117.424C676.26 117.545 676.354 117.692 676.507 117.728ZM677.701 117.187C677.759 117.455 677.659 117.938 677.501 118.217L677.449 118.353L677.233 118.9C676.802 119.976 676.333 121.105 675.876 122.156C666.359 143.567 653.916 163.676 639.054 181.815C627.327 195.517 598.54 225.846 578.606 215.757C570.499 211.288 567.537 202.838 570.53 194.204C573.108 186.516 578.101 180.088 582.925 173.744C588.786 166.318 594.862 159.023 601.538 152.301C616.4 137.401 637.828 124.792 657.936 118.474C663.718 116.867 669.962 115.255 676.002 116.436C676.602 116.573 677.28 116.736 677.701 117.182V117.187Z" fill="black"/>
<path d="M493.121 287.564C493.352 287.449 493.62 287.165 494.11 286.887C494.52 286.656 494.999 286.53 495.456 286.441C496.661 286.078 497.871 285.716 499.044 285.285C506.052 282.901 511.197 278.631 513.754 271.683C516.232 265.203 517.068 258.307 518.442 251.453C520.383 241.249 524.202 231.008 531.031 222.968C534.572 218.877 538.433 215.117 543.431 212.785C555.173 207.344 565.017 217.637 569.525 227.6C573.066 235.136 574.223 243.802 572.703 252.005C566.727 285.206 530.536 295.043 501.222 290.001C499.018 289.628 496.814 289.14 494.657 288.52C494.415 288.473 494.199 288.368 493.962 288.31C493.999 288.3 493.71 288.305 493.473 288.132C493.22 287.958 493.136 287.675 493.115 287.559L493.121 287.564ZM494.43 287.601C494.494 287.491 494.483 287.213 494.304 287.045C494.146 286.882 493.936 286.892 494.046 286.882C494.43 286.808 495.262 286.645 495.662 286.567C512.96 283.1 532.341 278.868 546.582 268.826C549.997 266.41 553.08 263.685 555.652 260.408C560.813 253.843 563.36 244.983 563.291 236.596C563.207 232.174 562.407 227.605 560.492 223.572C557.778 217.595 551.717 212.948 545.178 216.43C541.232 218.515 538.344 222.537 536.381 226.497C532.362 235.052 532.004 244.584 530.042 253.754C528.153 262.724 526.038 272.298 520.204 279.724C515.316 286.073 507.53 289.408 499.586 288.998C498.234 288.967 496.893 288.793 495.567 288.594C495.409 288.51 495.404 288.389 495.293 288.205C495.167 287.953 494.815 287.685 494.43 287.596V287.601Z" fill="black"/>
<path d="M513.317 285.207C516.316 281.478 519.325 278.374 522.524 275.097C525.46 271.956 529.221 269.772 532.125 266.584C538.186 259.967 542.495 252.163 545.414 243.607L546.277 243.765C545.893 253.26 543.016 262.808 537.681 270.838C536.329 272.875 535.014 274.992 533.467 276.946C530.394 280.9 525.959 283.589 521.214 285.107C518.81 285.826 516.306 286.315 513.622 286.031L513.317 285.212V285.207Z" fill="black"/>
<path d="M676.307 118.301C673.792 120.948 670.61 125.533 668.3 128.463C665.659 131.887 662.955 135.264 660.145 138.557C654.595 145.253 647.845 150.83 641.616 156.87C638.481 159.895 635.34 162.92 632.162 165.919C626.938 170.551 606.221 190.681 600.197 188.853L600.455 188.018C604.695 188.338 616.08 175.104 619.378 171.622C625.186 165.194 630.842 158.624 636.529 152.075C639.38 148.798 642.085 145.384 644.862 142.023C650.449 135.243 656.915 129.324 663.986 124.041C667.669 121.457 671.472 118.648 675.923 117.513L676.312 118.296L676.307 118.301Z" fill="black"/>
</g>
<defs>
<clipPath id="clip0_1137_191471">
<rect width="693" height="528" fill="white"/>
</clipPath>
</defs>
</svg>
