<svg width="135" height="58" viewBox="0 0 135 58" fill="none" xmlns="http://www.w3.org/2000/svg">
<mask id="mask0_25_3001" style="mask-type:alpha" maskUnits="userSpaceOnUse" x="0" y="0" width="135" height="58">
<rect width="135" height="58" fill="#D9D9D9"/>
</mask>
<g mask="url(#mask0_25_3001)">
<path d="M132.79 7.97416C133 6.64244 131.863 5.49112 130.53 5.68721L9.62655 23.4794C8.34029 23.6687 7.57012 25.0165 8.06062 26.2198L19.5008 54.2838C19.8675 55.1834 20.828 55.6869 21.7773 55.4772L127.692 32.0771C128.497 31.8992 129.112 31.2454 129.241 30.4304L132.79 7.97416Z" stroke="black" stroke-width="2"/>
<path d="M1.9721 35.394C1.03555 33.6586 2.00202 31.5016 3.92197 31.0423L124.938 2.08869C126.97 1.6026 128.858 3.29031 128.603 5.36516L124.847 36.0045C124.681 37.3619 123.619 38.4378 122.266 38.6216L13.8593 53.341C12.6245 53.5086 11.417 52.8949 10.8256 51.7992L1.9721 35.394Z" fill="#FF7CD3"/>
<mask id="mask1_25_3001" style="mask-type:alpha" maskUnits="userSpaceOnUse" x="6" y="4" width="128" height="53">
<path d="M132.79 7.97416C133 6.64244 131.863 5.49112 130.53 5.68721L9.62655 23.4794C8.34029 23.6687 7.57012 25.0165 8.06062 26.2198L19.5008 54.2838C19.8675 55.1834 20.828 55.6869 21.7773 55.4772L127.692 32.0771C128.497 31.8992 129.112 31.2454 129.241 30.4304L132.79 7.97416Z" stroke="black" stroke-width="2"/>
</mask>
<g mask="url(#mask1_25_3001)">
<rect width="13.2687" height="35.9406" rx="3" transform="matrix(0.98453 -0.175227 0.172083 0.985084 5.6875 22.9579)" fill="black"/>
</g>
<path d="M47.4664 39.4558C46.3059 39.6619 45.3499 39.528 44.5982 39.0541C43.8466 38.5803 43.3521 37.7659 43.1147 36.6109C43.0628 36.3649 42.9951 36.0028 42.9114 35.5247C42.8262 35.0381 42.7662 34.6703 42.7314 34.4212C42.5668 33.2797 42.7642 32.3468 43.3237 31.6225C43.8831 30.8982 44.7261 30.436 45.8524 30.236C46.9788 30.0359 47.9278 30.1798 48.6995 30.6677C49.4798 31.1541 49.9863 31.962 50.2192 33.0913C50.323 33.5834 50.3958 33.949 50.4376 34.188C50.4779 34.4185 50.5329 34.7829 50.6025 35.281C50.7631 36.4496 50.5707 37.386 50.0253 38.0903C49.4799 38.7945 48.627 39.2496 47.4664 39.4558ZM47.2087 37.9832C47.7804 37.8816 48.207 37.6298 48.4886 37.2277C48.7686 36.8171 48.8594 36.2552 48.761 35.5421C48.6884 35.0269 48.6364 34.6796 48.605 34.5003C48.5706 34.304 48.5016 33.9597 48.3978 33.4676C48.2482 32.7636 47.9728 32.2712 47.5717 31.9903C47.1691 31.701 46.6819 31.607 46.1102 31.7086C45.547 31.8086 45.1254 32.0639 44.8454 32.4745C44.5638 32.8766 44.4723 33.4342 44.5707 34.1473C44.6055 34.3964 44.6618 34.7429 44.7395 35.1868C44.8157 35.6222 44.8805 35.9672 44.9339 36.2218C45.0835 36.9258 45.3554 37.4233 45.7494 37.7142C46.1505 37.995 46.6369 38.0847 47.2087 37.9832ZM53.2079 38.304C53.1226 38.3192 53.0448 38.3022 52.9746 38.253C52.9044 38.2039 52.8618 38.1366 52.8469 38.0513L51.3876 29.715C51.3711 29.6211 51.3833 29.5397 51.424 29.4709C51.4733 29.4005 51.5449 29.357 51.6387 29.3403L52.6243 29.1653C52.7267 29.1471 52.8072 29.1548 52.8659 29.1884C52.9231 29.2134 52.9782 29.2521 53.0314 29.3042L57.7219 34.3863L56.7378 28.7648C56.7214 28.6709 56.7336 28.5895 56.7743 28.5207C56.8236 28.4503 56.8951 28.4068 56.989 28.3901L58.0642 28.1991C58.158 28.1825 58.2401 28.1987 58.3103 28.2479C58.3805 28.297 58.4238 28.3685 58.4402 28.4624L59.8973 36.7859C59.9137 36.8798 59.8973 36.9619 59.8481 37.0323C59.7988 37.1026 59.7315 37.1454 59.6461 37.1606L58.6478 37.3379C58.5027 37.3636 58.367 37.3173 58.2407 37.1989L53.5853 32.2426L54.5493 37.7489C54.5657 37.8428 54.5493 37.9249 54.5 37.9953C54.4493 38.0571 54.3769 38.0964 54.2831 38.1131L53.2079 38.304ZM68.0082 35.8075C67.2487 35.9424 66.5758 35.943 65.9893 35.8095C65.4028 35.676 64.9359 35.4465 64.5886 35.1209C64.2412 34.7953 64.0209 34.4163 63.9276 33.9839C63.9142 33.9071 63.9286 33.8385 63.9708 33.7782C64.013 33.7179 64.0725 33.6809 64.1493 33.6673L65.2885 33.465C65.3909 33.4468 65.4714 33.4545 65.5301 33.4881C65.5958 33.5116 65.6617 33.5615 65.7279 33.6378C65.864 33.9129 66.1029 34.1213 66.4445 34.2631C66.786 34.4049 67.2213 34.4288 67.7504 34.3349C68.3562 34.2273 68.7956 34.048 69.0684 33.7971C69.3397 33.5377 69.444 33.2287 69.3812 32.8701C69.3394 32.6311 69.2239 32.4491 69.0349 32.3243C68.8544 32.1979 68.5966 32.1072 68.2614 32.0523C67.9348 31.9959 67.4501 31.9412 66.8073 31.8881C65.7586 31.8279 64.9652 31.6431 64.4271 31.3338C63.8961 31.0144 63.5663 30.4876 63.4378 29.7534C63.3511 29.2583 63.4064 28.7951 63.6037 28.364C63.8095 27.9313 64.1447 27.5593 64.6093 27.248C65.0824 26.9351 65.656 26.7188 66.3302 26.599C67.0299 26.4748 67.6574 26.4909 68.2127 26.6476C68.7681 26.8042 69.2109 27.0469 69.5411 27.3755C69.8785 27.6941 70.0878 28.0354 70.1691 28.3995C70.1826 28.4763 70.1682 28.5449 70.1259 28.6052C70.0837 28.6655 70.0242 28.7025 69.9474 28.7161L68.757 28.9275C68.5778 28.9594 68.4399 28.9002 68.3432 28.7502C68.2442 28.4861 68.034 28.2902 67.7124 28.1624C67.3894 28.0261 67.0146 27.9959 66.588 28.0716C66.1101 28.1565 65.7503 28.3128 65.5087 28.5406C65.267 28.7684 65.176 29.053 65.2358 29.3945C65.2777 29.6335 65.3803 29.8177 65.5437 29.9471C65.7072 30.0766 65.9444 30.1753 66.2554 30.2432C66.575 30.3097 67.0248 30.3663 67.6049 30.4129C68.3857 30.4503 69.0167 30.5362 69.4977 30.6709C69.9874 30.804 70.3672 31.0138 70.6373 31.3003C70.9075 31.5868 71.0866 31.9819 71.1748 32.4856C71.2704 33.0319 71.2005 33.5373 70.9651 34.0016C70.7366 34.4559 70.3638 34.839 69.8465 35.1509C69.3377 35.4613 68.725 35.6802 68.0082 35.8075ZM72.3999 34.8955C72.3316 34.9076 72.2631 34.8933 72.1944 34.8527C72.1342 34.8106 72.0974 34.7511 72.084 34.6743L72.0894 34.5545L73.7283 25.7472C73.7506 25.5232 73.8813 25.39 74.1202 25.3475L75.5154 25.0997C75.7372 25.0603 75.9052 25.1405 76.0194 25.3403L80.55 33.0519C80.563 33.0759 80.574 33.1136 80.583 33.1648C80.5964 33.2417 80.582 33.3102 80.5398 33.3705C80.4976 33.4309 80.4423 33.4671 80.3741 33.4792L79.2605 33.677C79.1496 33.6967 79.0598 33.6862 78.9911 33.6456C78.9224 33.605 78.8742 33.5563 78.8467 33.4996L77.9716 32.0442L74.1701 32.7194L73.842 34.3885C73.8022 34.5628 73.6926 34.6659 73.5134 34.6977L72.3999 34.8955ZM77.2659 30.6512L75.114 26.9535L74.3603 31.1672L77.2659 30.6512ZM82.1322 33.1669C82.0469 33.1821 81.9691 33.1651 81.8989 33.116C81.8288 33.0668 81.7862 32.9995 81.7712 32.9142L80.3097 24.5651C80.2932 24.4712 80.3104 24.3934 80.3611 24.3315C80.4104 24.2612 80.4777 24.2184 80.5631 24.2033L81.7534 23.9918C81.8473 23.9752 81.9251 23.9922 81.9867 24.0428C82.0554 24.0834 82.098 24.1507 82.1144 24.2446L83.363 31.3771L87.4205 30.6565C87.5144 30.6398 87.5964 30.6561 87.6666 30.7052C87.7368 30.7544 87.7801 30.8259 87.7966 30.9198L87.9535 31.8162C87.9699 31.9101 87.9535 31.9922 87.9042 32.0626C87.8535 32.1244 87.7812 32.1637 87.6873 32.1803L82.1322 33.1669ZM89.5571 31.8483C89.4717 31.8634 89.394 31.8464 89.3238 31.7973C89.2536 31.7481 89.211 31.6809 89.1961 31.5955L87.7367 23.2593C87.7203 23.1654 87.7324 23.084 87.7732 23.0151C87.8224 22.9448 87.894 22.9012 87.9879 22.8846L93.6198 21.8843C93.7136 21.8677 93.7956 21.8839 93.8658 21.9331C93.936 21.9822 93.9793 22.0537 93.9958 22.1476L94.1437 22.9928C94.1602 23.0867 94.1438 23.1688 94.0945 23.2392C94.0437 23.301 93.9714 23.3403 93.8775 23.3569L89.6664 24.1049L90.0632 26.3714L93.9927 25.6735C94.0866 25.6568 94.1686 25.6731 94.2388 25.7222C94.3075 25.7628 94.3501 25.8301 94.3665 25.924L94.5055 26.7179C94.5219 26.8118 94.5055 26.894 94.4563 26.9643C94.4055 27.0261 94.3332 27.0654 94.2393 27.0821L90.3098 27.78L90.72 30.1233L95.0335 29.3572C95.1274 29.3406 95.2094 29.3568 95.2796 29.406C95.3498 29.4551 95.3931 29.5266 95.4096 29.6205L95.5575 30.4657C95.574 30.5596 95.5575 30.6417 95.5083 30.7121C95.4575 30.7739 95.3852 30.8132 95.2913 30.8298L89.5571 31.8483Z" fill="black"/>
</g>
</svg>
