<svg width="135" height="58" viewBox="0 0 135 58" fill="none" xmlns="http://www.w3.org/2000/svg">
<mask id="mask0_25_2989" style="mask-type:alpha" maskUnits="userSpaceOnUse" x="0" y="0" width="135" height="58">
<rect width="135" height="58" fill="#D9D9D9"/>
</mask>
<g mask="url(#mask0_25_2989)">
<path d="M132.79 7.97429C133 6.64257 131.863 5.49124 130.53 5.68734L9.62655 23.4795C8.34029 23.6688 7.57012 25.0166 8.06062 26.2199L19.5008 54.284C19.8675 55.1836 20.828 55.6871 21.7773 55.4773L127.692 32.0772C128.497 31.8994 129.112 31.2455 129.241 30.4305L132.79 7.97429Z" stroke="black" stroke-width="2"/>
<path d="M1.9721 35.394C1.03555 33.6586 2.00202 31.5016 3.92197 31.0423L124.938 2.08869C126.97 1.6026 128.858 3.29031 128.603 5.36516L124.847 36.0045C124.681 37.3619 123.619 38.4378 122.266 38.6216L13.8593 53.341C12.6245 53.5086 11.417 52.8949 10.8256 51.7992L1.9721 35.394Z" fill="#39C4FF"/>
<mask id="mask1_25_2989" style="mask-type:alpha" maskUnits="userSpaceOnUse" x="6" y="4" width="128" height="53">
<path d="M132.79 7.97429C133 6.64257 131.863 5.49124 130.53 5.68734L9.62655 23.4795C8.34029 23.6688 7.57012 25.0166 8.06062 26.2199L19.5008 54.284C19.8675 55.1836 20.828 55.6871 21.7773 55.4773L127.692 32.0772C128.497 31.8994 129.112 31.2455 129.241 30.4305L132.79 7.97429Z" stroke="black" stroke-width="2"/>
</mask>
<g mask="url(#mask1_25_2989)">
<rect width="13.2687" height="35.9406" rx="3" transform="matrix(0.98453 -0.175227 0.172083 0.985084 5.6875 22.958)" fill="black"/>
</g>
<path d="M29.7704 42.4692C29.6851 42.4843 29.6073 42.4673 29.5371 42.4182C29.4669 42.369 29.4243 42.3018 29.4094 42.2164L27.9496 33.8802C27.9331 33.7863 27.9453 33.705 27.986 33.6361C28.0353 33.5658 28.1068 33.5222 28.2007 33.5056L31.9127 32.8465C32.911 32.6693 33.6923 32.7594 34.2564 33.117C34.8276 33.4645 35.1797 34.0181 35.3128 34.7779C35.3905 35.2218 35.3461 35.6214 35.1796 35.9767C35.02 36.3219 34.8072 36.5885 34.541 36.7766C34.9278 36.8752 35.2728 37.0868 35.576 37.4114C35.8877 37.7346 36.0847 38.1309 36.1669 38.6004C36.306 39.3944 36.1493 40.0823 35.6969 40.6644C35.2531 41.2449 34.549 41.6208 33.5848 41.792L29.7704 42.4692ZM32.3258 36.5625C32.7696 36.4837 33.0879 36.3172 33.281 36.0629C33.474 35.8085 33.5391 35.5021 33.4763 35.1436C33.412 34.7765 33.2475 34.5152 32.9827 34.3598C32.7164 34.1958 32.3614 34.1532 31.9177 34.232L29.9081 34.5888L30.3163 36.9193L32.3258 36.5625ZM33.1423 40.471C33.586 40.3922 33.9107 40.2113 34.1163 39.9284C34.3204 39.6369 34.3895 39.3033 34.3238 38.9277C34.2565 38.5435 34.0782 38.2539 33.7889 38.0588C33.4981 37.8552 33.1308 37.7928 32.6871 37.8715L30.5495 38.251L31.0047 40.8505L33.1423 40.471ZM38.5453 40.9113C38.46 40.9264 38.3822 40.9094 38.312 40.8603C38.2418 40.8111 38.1992 40.7438 38.1843 40.6585L36.7245 32.3223C36.708 32.2284 36.7202 32.1471 36.7609 32.0782C36.8102 32.0078 36.8817 31.9643 36.9756 31.9477L42.6075 30.9478C42.7014 30.9311 42.7834 30.9473 42.8536 30.9965C42.9238 31.0456 42.9671 31.1172 42.9836 31.2111L43.1316 32.0562C43.148 32.1501 43.1316 32.2323 43.0823 32.3026C43.0316 32.3644 42.9593 32.4037 42.8654 32.4204L38.6543 33.168L39.0512 35.4345L42.9807 34.7369C43.0746 34.7202 43.1566 34.7364 43.2268 34.7856C43.2955 34.8262 43.3381 34.8935 43.3545 34.9874L43.4936 35.7813C43.51 35.8752 43.4936 35.9573 43.4443 36.0277C43.3936 36.0895 43.3213 36.1288 43.2274 36.1454L39.2978 36.8431L39.7082 39.1864L44.0218 38.4206C44.1156 38.4039 44.1977 38.4202 44.2678 38.4693C44.338 38.5185 44.3814 38.59 44.3978 38.6839L44.5458 39.529C44.5623 39.6229 44.5458 39.7051 44.4966 39.7754C44.4458 39.8373 44.3735 39.8765 44.2796 39.8932L38.5453 40.9113ZM49.3333 39.128C48.5738 39.2628 47.9009 39.2635 47.3144 39.1299C46.7279 38.9964 46.261 38.7668 45.9136 38.4412C45.5662 38.1156 45.3459 37.7366 45.2525 37.3042C45.2391 37.2274 45.2535 37.1588 45.2957 37.0985C45.3379 37.0382 45.3975 37.0013 45.4743 36.9876L46.6134 36.7854C46.7158 36.7672 46.7964 36.7749 46.8551 36.8085C46.9208 36.832 46.9867 36.8819 47.0528 36.9582C47.189 37.2333 47.4279 37.4418 47.7695 37.5836C48.111 37.7254 48.5464 37.7493 49.0754 37.6554C49.6813 37.5478 50.1206 37.3686 50.3934 37.1177C50.6647 36.8583 50.769 36.5493 50.7062 36.1908C50.6644 35.9517 50.5489 35.7698 50.3599 35.6449C50.1794 35.5185 49.9215 35.4278 49.5864 35.3729C49.2597 35.3165 48.775 35.2617 48.1322 35.2086C47.0834 35.1483 46.29 34.9635 45.7519 34.6542C45.2208 34.3347 44.891 33.8079 44.7625 33.0738C44.6758 32.5787 44.731 32.1155 44.9283 31.6844C45.1341 31.2518 45.4693 30.8798 45.9339 30.5684C46.407 30.2556 46.9806 30.0393 47.6547 29.9196C48.3545 29.7954 48.982 29.8116 49.5373 29.9683C50.0927 30.125 50.5355 30.3676 50.8658 30.6963C51.2032 31.0149 51.4125 31.3562 51.4939 31.7202C51.5073 31.7971 51.4929 31.8656 51.4507 31.926C51.4085 31.9863 51.349 32.0232 51.2722 32.0369L50.0818 32.2482C49.9026 32.28 49.7647 32.2209 49.668 32.0708C49.5689 31.8067 49.3587 31.6108 49.0371 31.483C48.7141 31.3468 48.3393 31.3165 47.9126 31.3922C47.4348 31.4771 47.075 31.6334 46.8333 31.8611C46.5917 32.0889 46.5007 32.3735 46.5605 32.7149C46.6024 32.954 46.705 33.1382 46.8685 33.2676C47.0319 33.397 47.2692 33.4958 47.5802 33.5638C47.8998 33.6303 48.3496 33.6868 48.9297 33.7335C49.7105 33.7709 50.3415 33.8569 50.8226 33.9916C51.3122 34.1247 51.6921 34.3345 51.9623 34.621C52.2324 34.9075 52.4116 35.3026 52.4998 35.8063C52.5955 36.3527 52.5256 36.858 52.2901 37.3223C52.0617 37.7765 51.6889 38.1596 51.1716 38.4715C50.6629 38.7819 50.0501 39.0007 49.3333 39.128ZM56.5913 37.7073C56.5059 37.7225 56.4282 37.7055 56.358 37.6563C56.2878 37.6072 56.2452 37.5399 56.2303 37.4546L54.9902 30.3733L52.6222 30.7937C52.5369 30.8089 52.4591 30.7919 52.3889 30.7427C52.3187 30.6936 52.2762 30.6263 52.2612 30.541L52.0953 29.5934C52.0788 29.4995 52.091 29.4181 52.1317 29.3492C52.181 29.2789 52.2525 29.2354 52.3464 29.2187L58.8743 28.0597C58.9682 28.0431 59.0502 28.0593 59.1204 28.1085C59.1906 28.1576 59.2339 28.2291 59.2504 28.323L59.4163 29.2706C59.4313 29.356 59.4141 29.4339 59.3648 29.5042C59.3156 29.5746 59.244 29.6181 59.1501 29.6348L56.795 30.0529L58.035 37.1341C58.05 37.2195 58.0328 37.2974 57.9836 37.3677C57.9343 37.4381 57.8627 37.4816 57.7689 37.4983L56.5913 37.7073ZM67.8081 35.8479C67.0486 35.9828 66.3756 35.9834 65.7891 35.8499C65.2027 35.7164 64.7357 35.4868 64.3883 35.1612C64.041 34.8355 63.8206 34.4565 63.7273 34.0242C63.7139 33.9474 63.7283 33.8788 63.7705 33.8185C63.8127 33.7582 63.8722 33.7212 63.949 33.7076L65.0882 33.5053C65.1906 33.4871 65.2711 33.4948 65.3298 33.5284C65.3955 33.552 65.4615 33.6019 65.5276 33.6782C65.6638 33.9533 65.9026 34.1617 66.2442 34.3035C66.5858 34.4453 67.0211 34.4693 67.5502 34.3753C68.156 34.2678 68.5954 34.0885 68.8682 33.8377C69.1395 33.5782 69.2438 33.2693 69.181 32.9107C69.1391 32.6717 69.0237 32.4897 68.8346 32.3649C68.6541 32.2385 68.3963 32.1478 68.0611 32.0929C67.7345 32.0364 67.2498 31.9817 66.607 31.9285C65.5582 31.8683 64.7648 31.6835 64.2267 31.3741C63.6956 31.0547 63.3658 30.5279 63.2372 29.7937C63.1505 29.2986 63.2058 28.8355 63.4031 28.4044C63.6089 27.9717 63.944 27.5997 64.4086 27.2884C64.8818 26.9755 65.4554 26.7593 66.1295 26.6396C66.8292 26.5154 67.4568 26.5316 68.0121 26.6882C68.5675 26.8449 69.0103 27.0876 69.3406 27.4162C69.6779 27.7348 69.8873 28.0761 69.9686 28.4402C69.9821 28.517 69.9677 28.5856 69.9255 28.6459C69.8833 28.7062 69.8237 28.7432 69.7469 28.7568L68.5566 28.9682C68.3774 29 68.2394 28.9409 68.1428 28.7908C68.0437 28.5267 67.8334 28.3308 67.5119 28.203C67.1889 28.0667 66.8141 28.0364 66.3874 28.1122C65.9095 28.197 65.5498 28.3533 65.3081 28.5811C65.0664 28.8088 64.9755 29.0934 65.0353 29.4349C65.0771 29.6739 65.1798 29.8582 65.3432 29.9876C65.5067 30.117 65.7439 30.2157 66.055 30.2837C66.3746 30.3502 66.8244 30.4068 67.4045 30.4534C68.1853 30.4908 68.8163 30.5769 69.2974 30.7115C69.787 30.8446 70.1669 31.0545 70.437 31.341C70.7072 31.6275 70.8863 32.0226 70.9745 32.5263C71.0702 33.0726 71.0003 33.5779 70.7649 34.0422C70.5365 34.4965 70.1637 34.8796 69.6464 35.1915C69.1376 35.5018 68.5249 35.7207 67.8081 35.8479ZM73.1949 34.7595C73.1095 34.7747 73.0318 34.7577 72.9616 34.7085C72.8914 34.6594 72.8488 34.5921 72.8339 34.5067L71.374 26.1706C71.3576 26.0767 71.3697 25.9953 71.4105 25.9265C71.4597 25.8561 71.5313 25.8126 71.6252 25.7959L77.2571 24.796C77.351 24.7793 77.433 24.7956 77.5032 24.8447C77.5734 24.8939 77.6167 24.9654 77.6332 25.0593L77.7812 25.9045C77.7976 25.9984 77.7812 26.0805 77.7319 26.1509C77.6812 26.2127 77.6088 26.2519 77.515 26.2686L73.3038 27.0163L73.7007 29.2828L77.6303 28.5851C77.7242 28.5684 77.8062 28.5847 77.8764 28.6338C77.9451 28.6745 77.9877 28.7417 78.0041 28.8356L78.1431 29.6295C78.1596 29.7234 78.1432 29.8056 78.0939 29.8759C78.0431 29.9378 77.9708 29.977 77.877 29.9937L73.9474 30.6913L74.3578 33.0347L78.6713 32.2688C78.7652 32.2522 78.8472 32.2684 78.9174 32.3176C78.9876 32.3667 79.0309 32.4382 79.0474 32.5322L79.1954 33.3773C79.2118 33.4712 79.1954 33.5533 79.1461 33.6237C79.0954 33.6855 79.0231 33.7248 78.9292 33.7414L73.1949 34.7595ZM81.1573 33.3459C81.0719 33.361 80.9942 33.344 80.924 33.2948C80.8538 33.2457 80.8112 33.1784 80.7963 33.0931L79.3342 24.7441C79.3177 24.6502 79.3349 24.5723 79.3857 24.5105C79.4349 24.4402 79.5022 24.3974 79.5876 24.3823L80.7779 24.1709C80.8718 24.1542 80.9496 24.1712 81.0112 24.2219C81.0799 24.2625 81.1225 24.3298 81.139 24.4237L82.388 31.5562L86.4456 30.8358C86.5394 30.8191 86.6215 30.8354 86.6916 30.8845C86.7618 30.9337 86.8052 31.0052 86.8216 31.0991L86.9786 31.9954C86.995 32.0894 86.9786 32.1715 86.9293 32.2418C86.8786 32.3037 86.8063 32.3429 86.7124 32.3596L81.1573 33.3459ZM88.5822 32.0276C88.4968 32.0428 88.4191 32.0258 88.3489 31.9766C88.2787 31.9275 88.2361 31.8602 88.2212 31.7748L86.7591 23.4259C86.7426 23.332 86.7598 23.2541 86.8106 23.1923C86.8598 23.1219 86.9271 23.0792 87.0125 23.064L88.2029 22.8527C88.2967 22.836 88.3745 22.853 88.4362 22.9037C88.5049 22.9443 88.5474 23.0116 88.5639 23.1055L89.8129 30.2379L93.8705 29.5175C93.9643 29.5009 94.0464 29.5171 94.1166 29.5663C94.1868 29.6154 94.2301 29.687 94.2465 29.7809L94.4035 30.6772C94.4199 30.7711 94.4035 30.8533 94.3543 30.9236C94.3035 30.9854 94.2312 31.0247 94.1373 31.0414L88.5822 32.0276ZM96.0071 30.7094C95.9218 30.7245 95.844 30.7075 95.7738 30.6584C95.7036 30.6092 95.661 30.542 95.6461 30.4566L94.1862 22.1205C94.1698 22.0266 94.1819 21.9452 94.2227 21.8763C94.2719 21.806 94.3435 21.7625 94.4374 21.7458L100.069 20.7459C100.163 20.7292 100.245 20.7455 100.315 20.7946C100.386 20.8438 100.429 20.9153 100.445 21.0092L100.593 21.8543C100.61 21.9482 100.593 22.0304 100.544 22.1007C100.493 22.1626 100.421 22.2018 100.327 22.2185L96.116 22.9661L96.513 25.2326L100.443 24.535C100.536 24.5183 100.618 24.5346 100.689 24.5837C100.757 24.6243 100.8 24.6916 100.816 24.7855L100.955 25.5794C100.972 25.6733 100.955 25.7554 100.906 25.8258C100.855 25.8876 100.783 25.9269 100.689 25.9435L96.7596 26.6412L97.17 28.9845L101.484 28.2187C101.577 28.202 101.659 28.2183 101.73 28.2674C101.8 28.3166 101.843 28.3881 101.86 28.482L102.008 29.3272C102.024 29.4211 102.008 29.5032 101.958 29.5736C101.908 29.6354 101.835 29.6746 101.741 29.6913L96.0071 30.7094ZM103.969 29.2957C103.884 29.3109 103.806 29.2939 103.736 29.2447C103.666 29.1956 103.623 29.1283 103.608 29.0429L102.149 20.7068C102.132 20.6129 102.144 20.5315 102.185 20.4627C102.234 20.3923 102.306 20.3488 102.4 20.3321L105.715 19.7435C106.756 19.5587 107.614 19.6573 108.288 20.0394C108.97 20.4199 109.39 21.0584 109.547 21.9548C109.656 22.5779 109.594 23.1302 109.362 23.6116C109.136 24.0829 108.771 24.4602 108.267 24.7435L110.707 27.677C110.742 27.7237 110.763 27.7683 110.77 27.811C110.784 27.8879 110.765 27.9572 110.714 28.019C110.672 28.0793 110.617 28.1155 110.549 28.1277L109.384 28.3345C109.247 28.3587 109.135 28.3478 109.048 28.3016C108.969 28.254 108.89 28.18 108.811 28.0796L106.629 25.338L104.849 25.6538L105.388 28.7271C105.403 28.8124 105.385 28.8903 105.336 28.9607C105.295 29.0295 105.228 29.0723 105.134 29.0889L103.969 29.2957ZM106.401 23.8864C106.913 23.7955 107.277 23.6121 107.492 23.3362C107.716 23.0587 107.79 22.7023 107.714 22.2669C107.638 21.8315 107.447 21.5178 107.14 21.3258C106.842 21.1322 106.437 21.0808 105.925 21.1717L104.121 21.4922L104.596 24.2069L106.401 23.8864Z" fill="black"/>
</g>
</svg>
