<svg width="135" height="58" viewBox="0 0 135 58" fill="none" xmlns="http://www.w3.org/2000/svg">
<mask id="mask0_25_2965" style="mask-type:alpha" maskUnits="userSpaceOnUse" x="0" y="0" width="135" height="58">
<rect width="135" height="58" fill="#D9D9D9"/>
</mask>
<g mask="url(#mask0_25_2965)">
<path d="M132.79 7.97429C133 6.64257 131.863 5.49124 130.53 5.68734L9.62655 23.4795C8.34029 23.6688 7.57012 25.0166 8.06062 26.2199L19.5008 54.284C19.8675 55.1836 20.828 55.6871 21.7773 55.4773L127.692 32.0772C128.497 31.8994 129.112 31.2455 129.241 30.4305L132.79 7.97429Z" stroke="black" stroke-width="2"/>
<path d="M1.9721 35.394C1.03555 33.6586 2.00202 31.5016 3.92197 31.0423L124.938 2.08869C126.97 1.6026 128.858 3.29031 128.603 5.36516L124.847 36.0045C124.681 37.3619 123.619 38.4378 122.266 38.6216L13.8593 53.341C12.6245 53.5086 11.417 52.8949 10.8256 51.7992L1.9721 35.394Z" fill="#FFC439"/>
<mask id="mask1_25_2965" style="mask-type:alpha" maskUnits="userSpaceOnUse" x="6" y="4" width="128" height="53">
<path d="M132.79 7.97429C133 6.64257 131.863 5.49124 130.53 5.68734L9.62655 23.4795C8.34029 23.6688 7.57012 25.0166 8.06062 26.2199L19.5008 54.284C19.8675 55.1836 20.828 55.6871 21.7773 55.4773L127.692 32.0772C128.497 31.8994 129.112 31.2455 129.241 30.4305L132.79 7.97429Z" stroke="black" stroke-width="2"/>
</mask>
<g mask="url(#mask1_25_2965)">
<rect width="13.2687" height="35.9406" rx="3" transform="matrix(0.98453 -0.175227 0.172083 0.985084 5.6875 22.958)" fill="black"/>
</g>
<path d="M25.278 43.2669C25.1927 43.2821 25.1149 43.2651 25.0447 43.2159C24.9745 43.1667 24.9319 43.0995 24.917 43.0141L23.457 34.678C23.4406 34.5841 23.4527 34.5027 23.4934 34.4339C23.5427 34.3635 23.6143 34.32 23.7081 34.3033L24.6937 34.1284C24.7961 34.1102 24.8767 34.1179 24.9353 34.1515C24.9925 34.1766 25.0477 34.2152 25.1008 34.2674L29.7919 39.3496L28.8074 33.7282C28.7909 33.6343 28.8031 33.5529 28.8438 33.4841C28.8931 33.4137 28.9646 33.3702 29.0585 33.3535L30.1337 33.1626C30.2275 33.146 30.3096 33.1622 30.3798 33.2114C30.45 33.2605 30.4933 33.3321 30.5097 33.426L31.9675 41.7493C31.9839 41.8432 31.9675 41.9253 31.9182 41.9957C31.869 42.066 31.8017 42.1088 31.7163 42.1239L30.7179 42.3012C30.5729 42.3269 30.4372 42.2806 30.3109 42.1622L25.655 37.2057L26.6194 42.7119C26.6358 42.8058 26.6194 42.8879 26.5701 42.9583C26.5194 43.0201 26.4471 43.0594 26.3532 43.076L25.278 43.2669ZM34.3279 41.6603C34.2426 41.6755 34.1648 41.6585 34.0946 41.6093C34.0244 41.5602 33.9818 41.4929 33.9669 41.4075L32.5069 33.0714C32.4905 32.9775 32.5026 32.8961 32.5434 32.8273C32.5926 32.7569 32.6642 32.7134 32.7581 32.6968L38.39 31.6969C38.4839 31.6803 38.5659 31.6965 38.6361 31.7457C38.7063 31.7948 38.7496 31.8664 38.7661 31.9603L38.9141 32.8054C38.9305 32.8993 38.9141 32.9814 38.8648 33.0518C38.8141 33.1136 38.7418 33.1529 38.6479 33.1695L34.4367 33.9171L34.8337 36.1836L38.7633 35.486C38.8571 35.4694 38.9392 35.4856 39.0094 35.5348C39.0781 35.5754 39.1206 35.6426 39.1371 35.7365L39.2761 36.5305C39.2926 36.6244 39.2762 36.7065 39.2269 36.7769C39.1761 36.8387 39.1038 36.8779 39.01 36.8946L35.0804 37.5922L35.4908 39.9355L39.8044 39.1698C39.8982 39.1531 39.9803 39.1693 40.0504 39.2185C40.1206 39.2676 40.164 39.3392 40.1804 39.4331L40.3284 40.2782C40.3449 40.3721 40.3285 40.4542 40.2792 40.5246C40.2284 40.5864 40.1561 40.6257 40.0623 40.6423L34.3279 41.6603ZM43.4551 40.04C43.3271 40.0627 43.2187 40.0468 43.13 39.9921C43.0412 39.9375 42.9778 39.8519 42.9399 39.7354L39.9791 31.7977L39.9484 31.6976C39.9349 31.6207 39.9493 31.5522 39.9915 31.4919C40.0423 31.43 40.1018 31.3931 40.1701 31.3809L41.2965 31.181C41.5098 31.1431 41.6442 31.2073 41.6997 31.3735L43.778 36.9856L44.2729 33.0292C44.3209 32.8006 44.443 32.6689 44.6393 32.634L45.3305 32.5113C45.5438 32.4735 45.699 32.5559 45.7961 32.7588L47.6158 36.2911L47.6645 30.3146C47.6651 30.2176 47.688 30.1475 47.7332 30.1043C47.7855 30.051 47.8671 30.0145 47.978 29.9948L49.1044 29.7949C49.1727 29.7828 49.2369 29.7978 49.2971 29.8399C49.3572 29.882 49.394 29.9415 49.4075 30.0183C49.415 30.061 49.4167 30.0959 49.4126 30.123L49.327 38.6015C49.3292 38.8652 49.2023 39.0198 48.9463 39.0652L48.0887 39.2175C47.9692 39.2387 47.8659 39.2262 47.7786 39.1801C47.6913 39.134 47.6267 39.0662 47.5846 38.9769L45.402 34.9544L44.7174 39.4858C44.6695 39.7144 44.5346 39.8484 44.3127 39.8878L43.4551 40.04ZM54.3201 38.1112C54.2519 38.1233 54.1834 38.1091 54.1147 38.0685C54.0545 38.0263 54.0177 37.9669 54.0042 37.89L54.0096 37.7702L55.6479 28.9633C55.6703 28.7393 55.8009 28.6061 56.0398 28.5637L57.435 28.316C57.6569 28.2766 57.8249 28.3568 57.9391 28.5566L62.4704 36.2683C62.4834 36.2923 62.4944 36.33 62.5033 36.3812C62.5168 36.4581 62.5024 36.5266 62.4602 36.5869C62.418 36.6472 62.3627 36.6835 62.2944 36.6956L61.1809 36.8933C61.0699 36.913 60.9801 36.9025 60.9114 36.8619C60.8427 36.8213 60.7946 36.7726 60.7671 36.7159L59.8919 35.2604L56.0903 35.9353L55.7623 37.6043C55.7224 37.7787 55.6129 37.8817 55.4337 37.9135L54.3201 38.1112ZM59.186 33.8674L57.0338 30.1696L56.2804 34.3832L59.186 33.8674ZM64.0526 36.3835C63.9673 36.3986 63.8895 36.3816 63.8193 36.3325C63.7491 36.2833 63.7066 36.216 63.6916 36.1307L62.2316 27.7945C62.2152 27.7006 62.2273 27.6193 62.2681 27.5504C62.3173 27.4801 62.3889 27.4365 62.4828 27.4199L65.7979 26.8314C66.839 26.6465 67.6965 26.7452 68.3706 27.1272C69.0531 27.5078 69.4729 28.1463 69.6299 29.0426C69.739 29.6658 69.6773 30.2181 69.4449 30.6994C69.2195 31.1708 68.8544 31.548 68.3497 31.8313L70.7904 34.7648C70.825 34.8115 70.846 34.8562 70.8535 34.8989C70.8669 34.9757 70.8483 35.045 70.7975 35.1069C70.7553 35.1672 70.7 35.2034 70.6318 35.2155L69.467 35.4223C69.3304 35.4465 69.2185 35.4356 69.1313 35.3894C69.0526 35.3418 68.9736 35.2678 68.8944 35.1674L66.7117 32.4257L64.9326 32.7416L65.4708 35.8148C65.4857 35.9002 65.4686 35.9781 65.4193 36.0484C65.3786 36.1173 65.3113 36.16 65.2174 36.1767L64.0526 36.3835ZM66.4839 30.9742C66.9959 30.8833 67.3597 30.6999 67.5754 30.424C67.7995 30.1465 67.8735 29.7901 67.7972 29.3547C67.721 28.9194 67.5297 28.6056 67.2233 28.4136C66.9254 28.22 66.5205 28.1687 66.0085 28.2595L64.2037 28.5799L64.6791 31.2946L66.4839 30.9742ZM72.665 34.8545C72.5797 34.8697 72.502 34.8527 72.4318 34.8035C72.3616 34.7544 72.319 34.6871 72.304 34.6018L70.8441 26.2656C70.8276 26.1717 70.8398 26.0904 70.8805 26.0215C70.9298 25.9511 71.0013 25.9076 71.0952 25.891L74.4104 25.3024C75.4514 25.1176 76.309 25.2163 76.983 25.5983C77.6655 25.9789 78.0853 26.6173 78.2423 27.5137C78.3514 28.1369 78.2898 28.6892 78.0573 29.1705C77.8319 29.6418 77.4669 30.0191 76.9622 30.3024L79.4028 33.2359C79.4374 33.2826 79.4584 33.3273 79.4659 33.37C79.4793 33.4468 79.4607 33.5161 79.4099 33.5779C79.3677 33.6382 79.3125 33.6745 79.2442 33.6866L78.0794 33.8934C77.9429 33.9176 77.831 33.9067 77.7437 33.8605C77.665 33.8129 77.586 33.7389 77.5069 33.6385L75.3242 30.8968L73.545 31.2127L74.0832 34.2859C74.0982 34.3713 74.081 34.4491 74.0317 34.5195C73.991 34.5883 73.9237 34.6311 73.8298 34.6478L72.665 34.8545ZM75.0963 29.4453C75.6083 29.3544 75.9721 29.171 76.1878 28.8951C76.4119 28.6176 76.4859 28.2612 76.4096 27.8258C76.3334 27.3905 76.1421 27.0767 75.8357 26.8847C75.5378 26.6911 75.1329 26.6397 74.6209 26.7306L72.8161 27.051L73.2916 29.7657L75.0963 29.4453ZM81.2775 33.3256C81.1921 33.3408 81.1144 33.3238 81.0442 33.2746C80.974 33.2255 80.9314 33.1582 80.9164 33.0728L79.4542 24.7239C79.4378 24.63 79.4549 24.5521 79.5057 24.4903C79.555 24.42 79.6223 24.3772 79.7076 24.3621L80.9108 24.1485C81.0047 24.1318 81.0824 24.1488 81.1441 24.1995C81.2128 24.2401 81.2554 24.3073 81.2718 24.4012L82.734 32.7502C82.749 32.8355 82.7318 32.9134 82.6826 32.9838C82.6418 33.0526 82.5745 33.0954 82.4807 33.112L81.2775 33.3256ZM87.4064 32.2376C87.1589 32.2815 86.9759 32.1908 86.8572 31.9654L82.6783 24.2308L82.6325 24.1201C82.619 24.0433 82.6334 23.9747 82.6756 23.9144C82.7179 23.8541 82.7774 23.8171 82.8542 23.8035L83.9806 23.6035C84.0915 23.5838 84.1821 23.5985 84.2523 23.6477C84.3295 23.6868 84.3876 23.7425 84.4267 23.8148L87.7448 30.0254L88.7531 23.0467C88.7582 22.9754 88.7896 22.9038 88.8474 22.8319C88.9052 22.7601 88.9896 22.7143 89.1005 22.6946L90.2269 22.4946C90.2952 22.4825 90.3594 22.4975 90.4196 22.5396C90.4883 22.5803 90.5293 22.639 90.5428 22.7158L90.5374 22.8356L89.238 31.5427C89.2031 31.7954 89.0619 31.9437 88.8144 31.9876L87.4064 32.2376ZM92.2073 31.3853C92.139 31.3974 92.0705 31.3832 92.0018 31.3426C91.9416 31.3004 91.9048 31.241 91.8914 31.1641L91.8968 31.0443L93.535 22.2374C93.5574 22.0134 93.688 21.8802 93.927 21.8378L95.3222 21.5901C95.544 21.5507 95.712 21.6309 95.8262 21.8307L100.358 29.5424C100.371 29.5664 100.382 29.6041 100.39 29.6553C100.404 29.7322 100.39 29.8007 100.347 29.861C100.305 29.9213 100.25 29.9576 100.182 29.9697L99.068 30.1674C98.9571 30.1871 98.8672 30.1766 98.7985 30.136C98.7298 30.0954 98.6817 30.0467 98.6542 29.99L97.779 28.5345L93.9774 29.2094L93.6494 30.8784C93.6096 31.0528 93.5001 31.1558 93.3209 31.1876L92.2073 31.3853ZM97.0731 27.1415L94.9209 23.4437L94.1675 27.6573L97.0731 27.1415ZM101.94 29.6576C101.854 29.6727 101.777 29.6557 101.706 29.6066C101.636 29.5574 101.594 29.4901 101.579 29.4048L100.117 21.0558C100.1 20.9619 100.117 20.8841 100.168 20.8222C100.217 20.7519 100.285 20.7091 100.37 20.694L101.56 20.4827C101.654 20.466 101.732 20.483 101.794 20.5337C101.862 20.5743 101.905 20.6415 101.921 20.7354L103.17 27.8679L107.228 27.1476C107.322 27.1309 107.404 27.1472 107.474 27.1963C107.544 27.2455 107.588 27.317 107.604 27.4109L107.761 28.3073C107.778 28.4012 107.761 28.4833 107.712 28.5536C107.661 28.6155 107.589 28.6547 107.495 28.6714L101.94 29.6576ZM112.19 27.9699C111.431 28.1047 110.758 28.1053 110.171 27.9718C109.585 27.8383 109.118 27.6087 108.771 27.283C108.423 26.9574 108.203 26.5784 108.11 26.1461C108.096 26.0693 108.11 26.0007 108.153 25.9404C108.195 25.8801 108.254 25.8431 108.331 25.8295L109.47 25.6272C109.573 25.609 109.653 25.6168 109.712 25.6504C109.778 25.6739 109.844 25.7238 109.91 25.8001C110.046 26.0752 110.285 26.2836 110.626 26.4254C110.968 26.5673 111.403 26.5912 111.932 26.4973C112.538 26.3897 112.978 26.2105 113.25 25.9596C113.522 25.7002 113.626 25.3912 113.563 25.0327C113.521 24.7937 113.406 24.6117 113.217 24.4868C113.036 24.3604 112.778 24.2698 112.443 24.2148C112.117 24.1584 111.632 24.1036 110.989 24.0505C109.94 23.9902 109.147 23.8054 108.609 23.496C108.078 23.1766 107.748 22.6498 107.619 21.9156C107.533 21.4205 107.588 20.9574 107.785 20.5263C107.991 20.0936 108.326 19.7217 108.791 19.4103C109.264 19.0975 109.837 18.8812 110.512 18.7616C111.211 18.6373 111.839 18.6536 112.394 18.8102C112.95 18.9669 113.392 19.2096 113.723 19.5382C114.06 19.8568 114.269 20.1982 114.351 20.5622C114.364 20.639 114.35 20.7076 114.308 20.7679C114.265 20.8282 114.206 20.8652 114.129 20.8788L112.939 21.0902C112.759 21.122 112.622 21.0628 112.525 20.9128C112.426 20.6487 112.216 20.4527 111.894 20.325C111.571 20.1887 111.196 20.1584 110.769 20.2341C110.292 20.319 109.932 20.4753 109.69 20.703C109.449 20.9308 109.358 21.2154 109.417 21.5568C109.459 21.7959 109.562 21.9801 109.725 22.1095C109.889 22.2389 110.126 22.3377 110.437 22.4057C110.757 22.4722 111.207 22.5287 111.787 22.5754C112.567 22.6128 113.198 22.6989 113.68 22.8335C114.169 22.9666 114.549 23.1765 114.819 23.463C115.089 23.7495 115.269 24.1446 115.357 24.6483C115.452 25.1946 115.383 25.6999 115.147 26.1642C114.919 26.6185 114.546 27.0016 114.029 27.3134C113.52 27.6238 112.907 27.8426 112.19 27.9699Z" fill="black"/>
</g>
</svg>
