<svg width="135" height="58" viewBox="0 0 135 58" fill="none" xmlns="http://www.w3.org/2000/svg">
<mask id="mask0_25_2977" style="mask-type:alpha" maskUnits="userSpaceOnUse" x="0" y="0" width="135" height="58">
<rect width="135" height="58" fill="#D9D9D9"/>
</mask>
<g mask="url(#mask0_25_2977)">
<path d="M132.79 7.97429C133 6.64257 131.863 5.49124 130.53 5.68734L9.62655 23.4795C8.34029 23.6688 7.57012 25.0166 8.06062 26.2199L19.5008 54.284C19.8675 55.1836 20.828 55.6871 21.7773 55.4773L127.692 32.0772C128.497 31.8994 129.112 31.2455 129.241 30.4305L132.79 7.97429Z" stroke="black" stroke-width="2"/>
<path d="M1.9721 35.394C1.03555 33.6586 2.00202 31.5016 3.92197 31.0423L124.938 2.08869C126.97 1.6026 128.858 3.29031 128.603 5.36516L124.847 36.0045C124.681 37.3619 123.619 38.4378 122.266 38.6216L13.8593 53.341C12.6245 53.5086 11.417 52.8949 10.8256 51.7992L1.9721 35.394Z" fill="#39D935"/>
<mask id="mask1_25_2977" style="mask-type:alpha" maskUnits="userSpaceOnUse" x="6" y="4" width="128" height="53">
<path d="M132.79 7.97429C133 6.64257 131.863 5.49124 130.53 5.68734L9.62655 23.4795C8.34029 23.6688 7.57012 25.0166 8.06062 26.2199L19.5008 54.284C19.8675 55.1836 20.828 55.6871 21.7773 55.4773L127.692 32.0772C128.497 31.8994 129.112 31.2455 129.241 30.4305L132.79 7.97429Z" stroke="black" stroke-width="2"/>
</mask>
<g mask="url(#mask1_25_2977)">
<rect width="13.2687" height="35.9406" rx="3" transform="matrix(0.98453 -0.175227 0.172083 0.985084 5.6875 22.958)" fill="black"/>
</g>
<path d="M38.296 40.9542C38.2107 40.9694 38.1329 40.9524 38.0627 40.9032C37.9925 40.8541 37.9499 40.7868 37.935 40.7015L36.4754 32.3653C36.459 32.2714 36.4711 32.19 36.5119 32.1211C36.5612 32.0508 36.6327 32.0073 36.7266 31.9906L42.2817 31.0041C42.3755 30.9875 42.4576 31.0037 42.5278 31.0529C42.598 31.102 42.6413 31.1735 42.6577 31.2674L42.8147 32.1638C42.8311 32.2577 42.8147 32.3398 42.7654 32.4102C42.7147 32.472 42.6423 32.5113 42.5485 32.528L38.4398 33.2576L38.8657 35.6906L42.7185 35.0064C42.8123 34.9897 42.8944 35.006 42.9646 35.0551C43.0348 35.1043 43.0781 35.1758 43.0945 35.2697L43.2515 36.1661C43.2679 36.26 43.2515 36.3421 43.2022 36.4125C43.1515 36.4743 43.0791 36.5136 42.9853 36.5302L39.1325 37.2144L39.6886 40.3901C39.705 40.484 39.6886 40.5661 39.6393 40.6365C39.5886 40.6983 39.5162 40.7376 39.4224 40.7542L38.296 40.9542ZM45.9834 39.5891C45.898 39.6043 45.8203 39.5873 45.7501 39.5381C45.6799 39.489 45.6373 39.4217 45.6224 39.3364L44.1628 31.0002C44.1464 30.9063 44.1585 30.8249 44.1992 30.756C44.2485 30.6857 44.3201 30.6422 44.4139 30.6255L50.0458 29.6254C50.1397 29.6087 50.2217 29.625 50.2919 29.6741C50.3621 29.7233 50.4054 29.7948 50.4219 29.8887L50.5699 30.7339C50.5863 30.8278 50.5699 30.9099 50.5206 30.9803C50.4699 31.0421 50.3975 31.0813 50.3037 31.098L46.0925 31.8458L46.4894 34.1123L50.4189 33.4145C50.5128 33.3979 50.5948 33.4141 50.665 33.4633C50.7337 33.5039 50.7763 33.5711 50.7927 33.665L50.9317 34.459C50.9482 34.5529 50.9318 34.635 50.8825 34.7054C50.8317 34.7672 50.7594 34.8064 50.6655 34.8231L46.736 35.5209L47.1463 37.8642L51.4598 37.0983C51.5537 37.0816 51.6357 37.0978 51.7059 37.147C51.7761 37.1961 51.8194 37.2677 51.8359 37.3616L51.9838 38.2067C52.0003 38.3006 51.9839 38.3828 51.9346 38.4531C51.8838 38.515 51.8115 38.5542 51.7177 38.5709L45.9834 39.5891ZM53.0881 38.3275C53.0199 38.3396 52.9514 38.3254 52.8827 38.2848C52.8225 38.2426 52.7857 38.1832 52.7722 38.1063L52.7777 37.9865L54.4163 29.1794C54.4387 28.9554 54.5693 28.8221 54.8083 28.7797L56.2034 28.532C56.4253 28.4926 56.5933 28.5728 56.7075 28.7725L61.2383 36.4841C61.2513 36.5082 61.2623 36.5459 61.2713 36.5971C61.2847 36.6739 61.2704 36.7425 61.2281 36.8028C61.1859 36.8631 61.1306 36.8993 61.0624 36.9115L59.9488 37.1092C59.8379 37.1289 59.7481 37.1185 59.6794 37.0778C59.6107 37.0372 59.5625 36.9886 59.535 36.9318L58.6599 35.4764L54.8584 36.1515L54.5303 37.8205C54.4904 37.9949 54.3809 38.0979 54.2017 38.1298L53.0881 38.3275ZM57.9541 34.0834L55.8021 30.3857L55.0485 34.5993L57.9541 34.0834ZM63.8542 36.4157C63.7689 36.4309 63.6911 36.4139 63.6209 36.3647C63.5507 36.3156 63.5082 36.2483 63.4932 36.1629L62.2534 29.0816L59.8854 29.5021C59.8001 29.5173 59.7223 29.5003 59.6521 29.4511C59.5819 29.402 59.5394 29.3347 59.5244 29.2494L59.3585 28.3018C59.3421 28.2079 59.3542 28.1265 59.395 28.0576C59.4442 27.9873 59.5158 27.9438 59.6097 27.9271L66.1375 26.7679C66.2314 26.7512 66.3134 26.7675 66.3836 26.8166C66.4538 26.8658 66.4971 26.9373 66.5136 27.0312L66.6795 27.9788C66.6944 28.0642 66.6773 28.142 66.628 28.2124C66.5787 28.2828 66.5072 28.3263 66.4133 28.3429L64.0582 28.7612L65.298 35.8424C65.3129 35.9278 65.2958 36.0057 65.2465 36.076C65.1972 36.1464 65.1257 36.1899 65.0318 36.2066L63.8542 36.4157ZM72.9193 34.938C71.7673 35.1426 70.8198 35.0071 70.0766 34.5318C69.3335 34.0564 68.8573 33.2211 68.6481 32.0259L67.7356 26.8142C67.7191 26.7203 67.7313 26.6389 67.772 26.5701C67.8213 26.4997 67.8928 26.4562 67.9867 26.4395L69.1515 26.2327C69.2454 26.216 69.3231 26.233 69.3848 26.2837C69.455 26.3328 69.4983 26.4044 69.5147 26.4983L70.4272 31.71C70.5468 32.3929 70.7994 32.8806 71.1849 33.1731C71.569 33.4569 72.0596 33.5459 72.657 33.4398C73.2543 33.3337 73.6809 33.0819 73.9369 32.6844C74.1998 32.2768 74.2715 31.7315 74.152 31.0486L73.2395 25.8368C73.223 25.7429 73.2394 25.6608 73.2887 25.5904C73.338 25.5201 73.4095 25.4766 73.5034 25.4599L74.6554 25.2553C74.7493 25.2387 74.827 25.2557 74.8887 25.3063C74.9589 25.3555 75.0022 25.427 75.0186 25.5209L75.9311 30.7326C76.1404 31.9278 75.9766 32.8767 75.4397 33.5794C74.9114 34.2806 74.0713 34.7334 72.9193 34.938ZM78.7578 33.7692C78.6724 33.7843 78.5947 33.7673 78.5245 33.7182C78.4543 33.669 78.4117 33.6018 78.3968 33.5164L76.9372 25.1802C76.9208 25.0863 76.9329 25.0049 76.9736 24.9361C77.0229 24.8657 77.0945 24.8222 77.1883 24.8055L80.5035 24.2168C81.5445 24.032 82.402 24.1306 83.076 24.5126C83.7585 24.8931 84.1783 25.5316 84.3352 26.428C84.4443 27.0511 84.3827 27.6034 84.1502 28.0848C83.9248 28.5562 83.5597 28.9335 83.055 29.2167L85.4955 32.1502C85.5301 32.1969 85.5511 32.2416 85.5585 32.2843C85.572 32.3611 85.5533 32.4304 85.5026 32.4922C85.4603 32.5526 85.4051 32.5888 85.3368 32.6009L84.1721 32.8077C84.0355 32.832 83.9236 32.821 83.8364 32.7749C83.7576 32.7273 83.6787 32.6533 83.5995 32.5529L81.417 29.8113L79.6378 30.1272L80.1759 33.2005C80.1909 33.2858 80.1737 33.3637 80.1244 33.4341C80.0837 33.5029 80.0164 33.5457 79.9225 33.5623L78.7578 33.7692ZM81.1893 28.3597C81.7012 28.2688 82.0651 28.0854 82.2807 27.8094C82.5049 27.532 82.5788 27.1756 82.5026 26.7402C82.4264 26.3048 82.2351 25.9911 81.9287 25.799C81.6309 25.6055 81.2259 25.5541 80.7139 25.645L78.9092 25.9655L79.3845 28.6802L81.1893 28.3597ZM87.3701 32.2398C87.2848 32.255 87.207 32.238 87.1368 32.1888C87.0666 32.1397 87.024 32.0724 87.0091 31.9871L85.5495 23.6509C85.5331 23.557 85.5452 23.4756 85.586 23.4067C85.6352 23.3364 85.7068 23.2929 85.8007 23.2762L91.4326 22.2761C91.5264 22.2594 91.6085 22.2757 91.6787 22.3248C91.7489 22.374 91.7922 22.4455 91.8086 22.5394L91.9566 23.3845C91.973 23.4785 91.9566 23.5606 91.9074 23.631C91.8566 23.6928 91.7843 23.732 91.6904 23.7487L87.4793 24.4965L87.8761 26.763L91.8057 26.0652C91.8995 26.0486 91.9815 26.0648 92.0517 26.1139C92.1204 26.1546 92.163 26.2218 92.1795 26.3157L92.3185 27.1096C92.3349 27.2036 92.3185 27.2857 92.2692 27.3561C92.2185 27.4179 92.1461 27.4571 92.0523 27.4738L88.1227 28.1716L88.533 30.5149L92.8466 29.749C92.9404 29.7323 93.0225 29.7485 93.0926 29.7977C93.1628 29.8468 93.2062 29.9184 93.2226 30.0123L93.3706 30.8574C93.387 30.9513 93.3706 31.0335 93.3213 31.1038C93.2706 31.1656 93.1983 31.2049 93.1044 31.2216L87.3701 32.2398ZM95.3324 30.8259C95.2471 30.8411 95.1694 30.8241 95.0992 30.7749C95.029 30.7258 94.9864 30.6585 94.9714 30.5731L93.5119 22.2369C93.4954 22.143 93.5076 22.0617 93.5483 21.9928C93.5976 21.9224 93.6692 21.8789 93.763 21.8623L96.8862 21.3077C99.3949 20.8622 100.878 21.7959 101.336 24.1088C101.44 24.6009 101.507 24.9323 101.536 25.1031C101.565 25.2653 101.614 25.5954 101.683 26.0936C101.859 27.2948 101.693 28.2352 101.188 28.9148C100.68 29.5858 99.791 30.0342 98.5196 30.26L95.3324 30.8259ZM98.1978 28.7987C98.9145 28.6714 99.4032 28.4218 99.6636 28.0499C99.9225 27.6694 99.9962 27.1106 99.8848 26.3734C99.8121 25.8582 99.7646 25.5365 99.7422 25.4085C99.7183 25.2719 99.6545 24.9575 99.5507 24.4654C99.4111 23.7684 99.1414 23.2838 98.7418 23.0115C98.3507 22.7376 97.7968 22.6643 97.08 22.7916L95.4928 23.0735L96.5466 29.0919L98.1978 28.7987Z" fill="black"/>
</g>
</svg>
