<svg width="16" height="16" viewBox="0 0 16 16" fill="none" xmlns="http://www.w3.org/2000/svg">
<path fill-rule="evenodd" clip-rule="evenodd" d="M9.51921 6.79963C9.4999 6.72964 9.49606 6.65628 9.50797 6.58466L10.0453 3.36066C10.0493 3.33682 10.048 3.3124 10.0416 3.2891C10.0352 3.26581 10.0238 3.24418 10.0082 3.22572C9.99257 3.20727 9.97314 3.19243 9.95124 3.18223C9.92933 3.17203 9.9048 3.16672 9.88064 3.16666H9.73864C9.49159 3.16656 9.24834 3.22683 9.03051 3.34336C8.81268 3.4599 8.627 3.6291 8.48997 3.83466L7.65864 3.27932C7.88691 2.93688 8.1962 2.65609 8.55905 2.46187C8.9219 2.26765 9.32708 2.16669 9.73864 2.16666H9.8813C10.0507 2.16669 10.218 2.2036 10.3717 2.27482C10.5254 2.34605 10.6617 2.44989 10.7712 2.57912C10.8807 2.70835 10.9607 2.85987 11.0058 3.02315C11.0508 3.18644 11.0597 3.35824 11.032 3.52532L10.5917 6.16666H12.3746C12.6458 6.16664 12.9136 6.22679 13.1587 6.34276C13.4039 6.45872 13.6202 6.62763 13.7922 6.83729C13.9642 7.04696 14.0875 7.29217 14.1533 7.55525C14.2191 7.81832 14.2257 8.09338 14.1726 8.35932L13.192 8.16266C13.2946 7.64732 12.9013 7.16599 12.3746 7.16599V7.16666H10.0013C9.92869 7.16667 9.85695 7.15087 9.79107 7.12036C9.72518 7.08984 9.66674 7.04535 9.61979 6.98996C9.57284 6.93457 9.53852 6.86963 9.51921 6.79963ZM2.31442 6.3131C2.40818 6.21934 2.53536 6.16666 2.66797 6.16666H5.28797V6.16599C5.42517 6.16596 5.56025 6.13204 5.6812 6.06727C5.80215 6.00249 5.90524 5.90951 5.9813 5.79532L7.65797 3.27999L8.48997 3.83466L6.8133 6.34999C6.57774 6.70333 6.23082 6.95875 5.83594 7.08233V12.8333H11.5746C11.7674 12.8335 11.9543 12.7662 12.1035 12.644C12.2527 12.5218 12.3548 12.3517 12.3926 12.1627L12.3928 12.1627L13.1926 8.16332L14.1726 8.35999L13.3726 12.36V12.3593C13.2894 12.7749 13.0648 13.1488 12.737 13.4174C12.4092 13.686 11.9984 13.8334 11.5746 13.8333H4.0013C3.51507 13.8333 3.04876 13.6402 2.70494 13.2964C2.36112 12.9525 2.16797 12.4862 2.16797 12V6.66666C2.16797 6.53405 2.22065 6.40687 2.31442 6.3131ZM4.83594 12.8333V7.16666H3.16797V12C3.16797 12.46 3.5413 12.8333 4.0013 12.8333H4.83594Z" fill="black"/>
</svg>
