<svg width="33" height="25" viewBox="0 0 33 25" fill="none" xmlns="http://www.w3.org/2000/svg">
<g clip-path="url(#clip0_3954_3676)">
<path d="M6.29871 24.9451V23.286C6.29871 22.6513 5.91441 22.2357 5.25468 22.2357C4.92481 22.2357 4.56613 22.3453 4.31953 22.7061C4.12738 22.4032 3.85196 22.2357 3.43883 22.2357C3.16341 22.2357 2.88799 22.3195 2.67021 22.6223V22.2905H2.09375V24.9451H2.67021V23.4793C2.67021 23.0089 2.91681 22.7866 3.30112 22.7866C3.68542 22.7866 3.87758 23.0347 3.87758 23.4793V24.9451H4.45404V23.4793C4.45404 23.0089 4.72946 22.7866 5.08494 22.7866C5.46925 22.7866 5.6614 23.0347 5.6614 23.4793V24.9451H6.29871ZM14.8496 22.2905H13.9144V21.4883H13.3379V22.2905H12.8159V22.8156H13.3379V24.0334C13.3379 24.6423 13.5845 24.9999 14.2443 24.9999C14.4909 24.9999 14.7663 24.9161 14.9584 24.8066L14.7919 24.3072C14.6254 24.4168 14.4332 24.4458 14.2955 24.4458C14.0201 24.4458 13.9112 24.2782 13.9112 24.0044V22.8156H14.8464V22.2905H14.8496ZM19.7431 22.2325C19.4132 22.2325 19.1922 22.4 19.0545 22.6191V22.2873H18.4781V24.9419H19.0545V23.4471C19.0545 23.0057 19.2467 22.7544 19.6054 22.7544C19.7142 22.7544 19.852 22.7834 19.964 22.8092L20.1306 22.2551C20.0153 22.2325 19.852 22.2325 19.7431 22.2325ZM12.3484 22.5096C12.0729 22.3163 11.6886 22.2325 11.2755 22.2325C10.6158 22.2325 10.177 22.5643 10.177 23.0895C10.177 23.5308 10.5069 23.7821 11.0833 23.8627L11.3588 23.8917C11.6598 23.9464 11.8263 24.0302 11.8263 24.1687C11.8263 24.362 11.6054 24.5005 11.2211 24.5005C10.8367 24.5005 10.5325 24.362 10.3403 24.2235L10.0649 24.6648C10.366 24.8871 10.7791 24.9967 11.1922 24.9967C11.9608 24.9967 12.4028 24.6359 12.4028 24.1397C12.4028 23.6694 12.0441 23.4213 11.4965 23.3375L11.2211 23.3085C10.9745 23.2795 10.7823 23.2248 10.7823 23.0605C10.7823 22.8672 10.9745 22.7576 11.2787 22.7576C11.6086 22.7576 11.9384 22.8962 12.105 22.9799L12.3484 22.5096ZM27.6854 22.2325C27.3556 22.2325 27.1346 22.4 26.9969 22.6191V22.2873H26.4204V24.9419H26.9969V23.4471C26.9969 23.0057 27.189 22.7544 27.5477 22.7544C27.6566 22.7544 27.7943 22.7834 27.9064 22.8092L28.0729 22.2615C27.9608 22.2325 27.7975 22.2325 27.6854 22.2325ZM20.3195 23.6178C20.3195 24.42 20.8704 24.9999 21.7223 24.9999C22.1066 24.9999 22.382 24.9161 22.6574 24.6971L22.382 24.2267C22.161 24.3942 21.9432 24.4748 21.6934 24.4748C21.2259 24.4748 20.896 24.1429 20.896 23.6178C20.896 23.1185 21.2259 22.7866 21.6934 22.7609C21.94 22.7609 22.161 22.8446 22.382 23.0089L22.6574 22.5386C22.382 22.3163 22.1066 22.2357 21.7223 22.2357C20.8704 22.2325 20.3195 22.8156 20.3195 23.6178ZM25.6518 23.6178V22.2905H25.0753V22.6223C24.8832 22.3743 24.6078 22.2357 24.2491 22.2357C23.5061 22.2357 22.9296 22.8156 22.9296 23.6178C22.9296 24.42 23.5061 24.9999 24.2491 24.9999C24.6334 24.9999 24.9088 24.8614 25.0753 24.6133V24.9451H25.6518V23.6178ZM23.5349 23.6178C23.5349 23.1475 23.8359 22.7609 24.3323 22.7609C24.7999 22.7609 25.1298 23.1217 25.1298 23.6178C25.1298 24.0882 24.7999 24.4748 24.3323 24.4748C23.8391 24.4458 23.5349 24.085 23.5349 23.6178ZM16.6366 22.2325C15.868 22.2325 15.3171 22.7866 15.3171 23.6146C15.3171 24.4458 15.868 24.9967 16.6654 24.9967C17.0497 24.9967 17.434 24.8871 17.7383 24.6359L17.4628 24.2203C17.2419 24.3878 16.9664 24.4973 16.6942 24.4973C16.3355 24.4973 15.9801 24.3298 15.8968 23.8627H17.8472C17.8472 23.7789 17.8472 23.7241 17.8472 23.6404C17.8728 22.7866 17.3764 22.2325 16.6366 22.2325ZM16.6366 22.7319C16.9953 22.7319 17.2419 22.9542 17.2963 23.3665H15.9224C15.9769 23.0089 16.2235 22.7319 16.6366 22.7319ZM30.9584 23.6178V21.2402H30.382V22.6223C30.1898 22.3743 29.9144 22.2357 29.5557 22.2357C28.8127 22.2357 28.2363 22.8156 28.2363 23.6178C28.2363 24.42 28.8127 24.9999 29.5557 24.9999C29.94 24.9999 30.2154 24.8614 30.382 24.6133V24.9451H30.9584V23.6178ZM28.8415 23.6178C28.8415 23.1475 29.1426 22.7609 29.639 22.7609C30.1066 22.7609 30.4364 23.1217 30.4364 23.6178C30.4364 24.0882 30.1066 24.4748 29.639 24.4748C29.1426 24.4458 28.8415 24.085 28.8415 23.6178ZM9.54291 23.6178V22.2905H8.96645V22.6223C8.77429 22.3743 8.49887 22.2357 8.14019 22.2357C7.39719 22.2357 6.82073 22.8156 6.82073 23.6178C6.82073 24.42 7.39719 24.9999 8.14019 24.9999C8.52449 24.9999 8.79991 24.8614 8.96645 24.6133V24.9451H9.54291V23.6178ZM7.4004 23.6178C7.4004 23.1475 7.70144 22.7609 8.19783 22.7609C8.66541 22.7609 8.99527 23.1217 8.99527 23.6178C8.99527 24.0882 8.66541 24.4748 8.19783 24.4748C7.70144 24.4458 7.4004 24.085 7.4004 23.6178Z" fill="black"/>
<path d="M20.816 2.12939H12.1562V17.7802H20.816V2.12939Z" fill="#FF5A00"/>
<path d="M12.7338 9.9549C12.7338 6.77513 14.2198 3.95296 16.5 2.12951C14.8219 0.802191 12.705 0 10.3959 0C4.92594 0 0.5 4.45232 0.5 9.9549C0.5 15.4575 4.92594 19.9098 10.3959 19.9098C12.705 19.9098 14.8219 19.1076 16.5 17.7803C14.2166 15.9826 12.7338 13.1347 12.7338 9.9549Z" fill="#EB001B"/>
<path d="M32.5 9.9549C32.5 15.4575 28.0741 19.9098 22.6041 19.9098C20.295 19.9098 18.1781 19.1076 16.5 17.7803C18.809 15.9536 20.2662 13.1347 20.2662 9.9549C20.2662 6.77513 18.7802 3.95296 16.5 2.12951C18.1749 0.802191 20.2918 0 22.6009 0C28.0741 0 32.5 4.48131 32.5 9.9549Z" fill="#F79E1B"/>
</g>
<defs>
<clipPath id="clip0_3954_3676">
<rect width="32" height="25" fill="white" transform="translate(0.5)"/>
</clipPath>
</defs>
</svg>
