<svg width="32" height="32" viewBox="0 0 32 32" fill="none" xmlns="http://www.w3.org/2000/svg">
<path fill-rule="evenodd" clip-rule="evenodd" d="M6.42188 25.0769V6.4231H24.345V25.0769C24.345 25.3531 24.1211 25.5769 23.845 25.5769H14.768H6.92187C6.64573 25.5769 6.42188 25.3531 6.42188 25.0769ZM4.92188 5.92309C4.92188 5.37081 5.36959 4.9231 5.92188 4.9231H24.845C25.3972 4.9231 25.845 5.37081 25.845 5.9231V8.85539C28.7954 8.98476 31.1477 11.4177 31.1477 14.4V16C31.1477 18.9823 28.7954 21.4152 25.845 21.5446V25.0769C25.845 26.1815 24.9495 27.0769 23.845 27.0769H14.768H6.92187C5.8173 27.0769 4.92188 26.1815 4.92188 25.0769V5.92309ZM25.845 20.0425C27.9665 19.9148 29.6477 18.1537 29.6477 16V14.4C29.6477 12.2463 27.9665 10.4852 25.845 10.3574V20.0425Z" fill="black"/>
</svg>
