<svg width="79" height="11" viewBox="0 0 79 11" fill="none" xmlns="http://www.w3.org/2000/svg">
<g clip-path="url(#clip0_2726_8640)">
<path d="M63.6291 7.07569H64.1157C65.4103 7.07569 66.6273 6.34092 66.8928 4.65294C67.125 3.10263 66.2734 2.23019 64.8792 2.23019H64.522C64.4797 2.23011 64.4388 2.24573 64.4066 2.27422C64.3744 2.30272 64.3531 2.34221 64.3466 2.38557L63.6291 7.07569ZM62.4489 0.590847C62.4602 0.516532 62.4967 0.448843 62.5518 0.399948C62.6069 0.351052 62.677 0.324157 62.7495 0.324097H65.565C67.8887 0.324097 69.515 2.21867 69.1497 4.65294C68.7737 7.08721 66.5611 8.98178 64.2485 8.98178H61.3807C61.355 8.98176 61.3297 8.97597 61.3064 8.96481C61.2831 8.95365 61.2624 8.93738 61.2457 8.91713C61.229 8.89688 61.2168 8.87312 61.2098 8.84749C61.2028 8.82186 61.2013 8.79497 61.2053 8.76866L62.4489 0.590847Z" fill="#003087"/>
<path fill-rule="evenodd" clip-rule="evenodd" d="M58.8022 2.4966L58.6217 3.67703H60.8592C60.9683 3.67703 61.0513 3.77793 61.0344 3.88964L60.8194 5.31603C60.8082 5.39048 60.7717 5.45832 60.7165 5.5073C60.6614 5.55628 60.5911 5.58317 60.5185 5.58313H58.5932C58.4438 5.58313 58.3166 5.69553 58.2926 5.84833L58.1016 7.07552H60.4721C60.5811 7.07552 60.6642 7.17675 60.6475 7.2883L60.4322 8.71469C60.421 8.78913 60.3846 8.85696 60.3294 8.90594C60.2743 8.95492 60.204 8.98182 60.1315 8.98178H55.8532C55.8275 8.98176 55.8022 8.97598 55.7789 8.96481C55.7556 8.95365 55.7349 8.93738 55.7183 8.91713C55.7016 8.89687 55.6894 8.87311 55.6824 8.84748C55.6755 8.82185 55.674 8.79496 55.678 8.76866L56.9218 0.590847C56.933 0.516502 56.9695 0.448773 57.0246 0.399865C57.0797 0.350957 57.1498 0.324087 57.2224 0.324097H61.5008C61.6099 0.324097 61.6931 0.425159 61.6763 0.536878L61.461 1.96327C61.4498 2.03761 61.4133 2.10534 61.3582 2.15427C61.3031 2.2032 61.233 2.23012 61.1604 2.23019H59.1028C58.9531 2.23019 58.8257 2.34311 58.8022 2.4966ZM71.0427 8.98178H69.3418C69.3162 8.98174 69.2909 8.97593 69.2676 8.96476C69.2443 8.95359 69.2236 8.93731 69.207 8.91706C69.1904 8.89681 69.1782 8.87305 69.1712 8.84744C69.1643 8.82182 69.1627 8.79494 69.1668 8.76866L70.4104 0.590847C70.4216 0.516502 70.4581 0.448773 70.5132 0.399865C70.5683 0.350957 70.6385 0.324087 70.711 0.324097H72.4117C72.5207 0.324097 72.6038 0.425331 72.587 0.537222L71.3432 8.71503C71.3319 8.78933 71.2954 8.85702 71.2404 8.90592C71.1853 8.95482 71.1152 8.98172 71.0427 8.98178Z" fill="#003087"/>
<path d="M51.3648 4.20521H51.5751C52.2833 4.20521 53.0978 4.06667 53.2457 3.12583C53.3938 2.18464 52.9211 2.04938 52.1647 2.04646H51.8577C51.7649 2.04646 51.6861 2.11641 51.6717 2.21128L51.3649 4.20503L51.3648 4.20521ZM55.0874 8.98161H52.8587C52.8122 8.98164 52.7667 8.96803 52.7274 8.94236C52.6881 8.91669 52.6566 8.88001 52.6366 8.83655L51.1657 5.65171H51.1435L50.6675 8.76608C50.6584 8.82624 50.6288 8.88103 50.5842 8.92058C50.5395 8.96013 50.4828 8.98183 50.4241 8.98178H48.6738C48.6481 8.98179 48.6228 8.97601 48.5994 8.96486C48.5761 8.95371 48.5554 8.93745 48.5387 8.9172C48.522 8.89694 48.5098 8.87317 48.5028 8.84753C48.4958 8.82189 48.4943 8.79498 48.4983 8.76866L49.7498 0.539972C49.759 0.479793 49.7885 0.424982 49.8332 0.385406C49.8778 0.34583 49.9346 0.324089 49.9933 0.324097H53.0244C54.6728 0.324097 55.8012 1.13947 55.5246 2.98799C55.3365 4.18217 54.54 5.21549 53.3231 5.43377L55.2389 8.7018C55.2553 8.72974 55.2642 8.7617 55.2647 8.79439C55.2653 8.82708 55.2574 8.85934 55.242 8.88784C55.2265 8.91634 55.2041 8.94007 55.1769 8.95658C55.1497 8.97309 55.1187 8.98179 55.0872 8.98178L55.0874 8.98161Z" fill="#003087"/>
<path fill-rule="evenodd" clip-rule="evenodd" d="M75.6434 8.98184H73.9427C73.9171 8.98182 73.8917 8.97603 73.8684 8.96487C73.8451 8.95371 73.8244 8.93744 73.8078 8.91718C73.7911 8.89692 73.7789 8.87316 73.7719 8.84753C73.765 8.8219 73.7635 8.79501 73.7675 8.76871L74.7638 2.23025H73.179C73.1534 2.23028 73.1281 2.22453 73.1048 2.21341C73.0815 2.20229 73.0608 2.18605 73.0441 2.16582C73.0275 2.14559 73.0152 2.12185 73.0083 2.09623C73.0013 2.07062 72.9998 2.04375 73.0038 2.01746L73.2191 0.591246C73.2423 0.437589 73.3698 0.324152 73.5197 0.324152H78.8048C78.9137 0.324152 78.9971 0.425214 78.9803 0.536933L78.765 1.96332C78.7537 2.0377 78.7172 2.10545 78.6621 2.15439C78.607 2.20332 78.5368 2.23022 78.4643 2.23025H76.9323L75.944 8.71509C75.9328 8.78943 75.8963 8.85716 75.8412 8.90607C75.7861 8.95498 75.716 8.98185 75.6434 8.98184ZM48.6082 2.78437C48.5834 2.9449 48.3939 3.00282 48.2844 2.88646C47.9128 2.49115 47.3676 2.2825 46.7806 2.2825C45.454 2.2825 44.404 3.33781 44.1942 4.67998C43.9951 6.04518 44.7468 7.03157 46.0951 7.03157C46.6513 7.03157 47.2412 6.81226 47.7313 6.44514C47.8664 6.3439 48.0524 6.46525 48.0256 6.63609L47.717 8.61712C47.708 8.67489 47.6834 8.72882 47.646 8.77267C47.6087 8.81653 47.5602 8.84853 47.506 8.86496C46.8452 9.06623 46.3384 9.21129 45.7195 9.21129C42.1236 9.21129 41.5484 6.02335 41.7337 4.66829C42.2531 0.868308 45.2243 -0.00206699 47.0458 0.102777C47.6326 0.136808 48.1584 0.217761 48.6735 0.418511C48.7541 0.450163 48.8218 0.509749 48.865 0.587196C48.9082 0.664643 48.9243 0.7552 48.9106 0.843558L48.6082 2.78471V2.78437Z" fill="#003087"/>
<path d="M26.4488 3.23553C26.2849 4.35272 25.4627 4.35272 24.6676 4.35272H24.2151L24.5325 2.26701C24.5418 2.20598 24.5717 2.1504 24.617 2.11026C24.6623 2.07013 24.7199 2.04806 24.7794 2.04804H24.9867C25.528 2.04804 26.0394 2.04804 26.3029 2.36808C26.4607 2.55954 26.5084 2.84331 26.4488 3.23553ZM26.1027 0.321045H23.1038C22.8988 0.321045 22.7242 0.475732 22.6923 0.686107L21.4796 8.66626C21.474 8.7033 21.4762 8.74115 21.486 8.77723C21.4958 8.81331 21.513 8.84675 21.5365 8.87525C21.56 8.90375 21.5891 8.92664 21.6219 8.94234C21.6547 8.95803 21.6904 8.96617 21.7265 8.96619H23.2653C23.4089 8.96619 23.531 8.85773 23.5535 8.71044L23.8973 6.44804C23.9128 6.34631 23.9628 6.25366 24.0382 6.18674C24.1137 6.11982 24.2096 6.08303 24.3089 6.08298H25.2579C27.2332 6.08298 28.3731 5.09109 28.6713 3.12467C28.8054 2.26478 28.6766 1.58897 28.2887 1.11597C27.862 0.596045 27.1062 0.321045 26.1028 0.321045" fill="#009CDE"/>
<path d="M5.05837 3.23554C4.8944 4.35273 4.07227 4.35273 3.27714 4.35273H2.8245L3.14183 2.26703C3.15113 2.20603 3.18109 2.15047 3.22632 2.11034C3.27155 2.0702 3.32909 2.04812 3.3886 2.04806H3.59612C4.13736 2.04806 4.64879 2.04806 4.91229 2.36809C5.07013 2.55956 5.11766 2.84333 5.05803 3.23554M4.71189 0.32106H1.7132C1.50817 0.32106 1.33361 0.475748 1.30164 0.686123L0.0889847 8.66628C0.0833648 8.7033 0.0855365 8.74114 0.0953503 8.7772C0.105164 8.81327 0.122388 8.8467 0.145836 8.8752C0.169285 8.9037 0.198402 8.92659 0.231187 8.9423C0.263972 8.95801 0.299646 8.96616 0.335756 8.9662H1.76786C1.8671 8.96615 1.96308 8.92936 2.03852 8.86244C2.11396 8.79553 2.16392 8.70287 2.17942 8.60114L2.50668 6.44806C2.52218 6.34633 2.57214 6.25367 2.64758 6.18675C2.72303 6.11983 2.819 6.08304 2.91824 6.083H3.86724C5.84257 6.083 6.98252 5.09111 7.28047 3.12469C7.41462 2.26479 7.28593 1.58898 6.89789 1.11598C6.47142 0.59606 5.71537 0.32106 4.71222 0.32106M11.6745 6.10053C11.5359 6.952 10.8845 7.52365 10.0536 7.52365C9.63722 7.52365 9.30383 7.38461 9.08935 7.12129C8.87687 6.86039 8.79704 6.48862 8.86444 6.07475C8.99363 5.23067 9.65544 4.64062 10.4738 4.64062C10.8812 4.64062 11.2124 4.78104 11.431 5.04676C11.651 5.31437 11.7374 5.68854 11.6745 6.10053ZM13.6758 3.19997H12.2399C12.1803 3.19994 12.1227 3.22199 12.0774 3.26213C12.0321 3.30227 12.0021 3.35788 11.9928 3.41894L11.9297 3.83556L11.8293 3.68465C11.5183 3.21612 10.8252 3.05972 10.1331 3.05972C8.54646 3.05972 7.19137 4.30719 6.92754 6.05722C6.7904 6.93017 6.98534 7.76445 7.46215 8.34676C7.90038 8.88181 8.52575 9.10456 9.27071 9.10456C10.5496 9.10456 11.2588 8.25189 11.2588 8.25189L11.1949 8.66611C11.1892 8.70314 11.1913 8.74101 11.2011 8.77711C11.2109 8.81321 11.2281 8.84668 11.2516 8.8752C11.275 8.90373 11.3042 8.92663 11.337 8.94234C11.3698 8.95805 11.4055 8.96619 11.4416 8.9662H12.7349C12.8341 8.96616 12.9301 8.92938 13.0055 8.8625C13.0809 8.79561 13.1308 8.703 13.1463 8.60131L13.9228 3.49972C13.9284 3.46269 13.9262 3.42484 13.9164 3.38878C13.9066 3.35271 13.8893 3.31928 13.8659 3.29079C13.8424 3.2623 13.8132 3.23943 13.7804 3.22375C13.7476 3.20807 13.7119 3.19996 13.6758 3.19997Z" fill="#003087"/>
<path d="M33.0633 6.10038C32.9245 6.95185 32.2733 7.52351 31.4424 7.52351C31.026 7.52351 30.6925 7.38446 30.4782 7.12115C30.2659 6.86024 30.1857 6.48848 30.2533 6.0746C30.3825 5.23052 31.0443 4.64048 31.8624 4.64048C32.2703 4.64048 32.6014 4.7809 32.8197 5.04662C33.0396 5.31423 33.1263 5.6884 33.0633 6.10038ZM35.0645 3.19982H33.6286C33.5055 3.19982 33.4008 3.29263 33.3818 3.41879L33.3184 3.83541L33.2182 3.68451C32.9071 3.21598 32.214 3.05957 31.5219 3.05957C29.9356 3.05957 28.5804 4.30704 28.3164 6.05707C28.1792 6.93002 28.3742 7.7643 28.8508 8.34662C29.2892 8.88166 29.9146 9.10441 30.6595 9.10441C31.9384 9.10441 32.6478 8.25174 32.6478 8.25174L32.5837 8.66596C32.578 8.70299 32.5802 8.74085 32.59 8.77694C32.5998 8.81302 32.617 8.84648 32.6405 8.87499C32.6639 8.90351 32.693 8.92642 32.7258 8.94214C32.7586 8.95786 32.7943 8.96602 32.8305 8.96605H34.1238C34.223 8.96601 34.3189 8.92924 34.3943 8.86235C34.4697 8.79546 34.5197 8.70285 34.5352 8.60116L35.3116 3.49957C35.3172 3.46253 35.3151 3.42465 35.3053 3.38856C35.2954 3.35247 35.2782 3.31902 35.2547 3.29052C35.2312 3.26202 35.202 3.23915 35.1692 3.22349C35.1363 3.20783 35.1006 3.19976 35.0645 3.19982Z" fill="#009CDE"/>
<mask id="mask0_2726_8640" style="mask-type:luminance" maskUnits="userSpaceOnUse" x="14" y="3" width="8" height="8">
<path d="M14.6328 3.19997H21.5744V10.9828H14.6328V3.19997Z" fill="#003087"/>
</mask>
<g mask="url(#mask0_2726_8640)">
<path fill-rule="evenodd" clip-rule="evenodd" d="M21.3239 3.19997H19.8805C19.7424 3.19997 19.6134 3.27112 19.5359 3.38954L17.5448 6.43276L16.701 3.50831C16.6753 3.41921 16.6225 3.3411 16.5506 3.28556C16.4787 3.23001 16.3915 3.2 16.3019 3.19997H14.883C14.8432 3.19995 14.804 3.20978 14.7686 3.22863C14.7333 3.24749 14.7027 3.27484 14.6796 3.3084C14.6564 3.34196 14.6413 3.38077 14.6355 3.42161C14.6297 3.46244 14.6333 3.50413 14.6462 3.5432L16.2356 8.38458L14.7406 10.5734C14.6235 10.7453 14.7417 10.9828 14.9448 10.9828H16.3867C16.5235 10.9828 16.6513 10.913 16.7292 10.7967L21.5293 3.60731C21.6441 3.43526 21.5256 3.19997 21.3239 3.19997Z" fill="#003087"/>
</g>
<path fill-rule="evenodd" clip-rule="evenodd" d="M36.7573 0.540186L35.5265 8.66644C35.5209 8.70347 35.5231 8.74132 35.5329 8.77739C35.5428 8.81346 35.56 8.84688 35.5835 8.87537C35.607 8.90385 35.6361 8.92672 35.6689 8.9424C35.7017 8.95808 35.7374 8.96619 35.7736 8.96619H37.0114C37.1106 8.96614 37.2066 8.92935 37.2821 8.86243C37.3575 8.79551 37.4075 8.70285 37.423 8.60112L38.6366 0.620967C38.6422 0.58392 38.6401 0.546048 38.6302 0.50996C38.6204 0.473871 38.6031 0.440423 38.5796 0.411918C38.5562 0.383413 38.527 0.360529 38.4942 0.344841C38.4614 0.329153 38.4256 0.321035 38.3895 0.321045H37.0043C36.9447 0.32111 36.8872 0.343215 36.8419 0.383385C36.7967 0.423555 36.7668 0.479154 36.7575 0.540186" fill="#009CDE"/>
</g>
<defs>
<clipPath id="clip0_2726_8640">
<rect width="79" height="11" fill="white"/>
</clipPath>
</defs>
</svg>
