<svg width="64" height="20" viewBox="0 0 64 20" fill="none" xmlns="http://www.w3.org/2000/svg">
<path d="M7.75296 1.75H2.81039C2.49355 1.75 2.17672 2 2.11336 2.3125L0.149 14.8125C0.0856337 15.0625 0.275733 15.25 0.529198 15.25H2.87375C3.19058 15.25 3.50742 15 3.57078 14.6875L4.07771 11.3125C4.14108 11 4.39455 10.75 4.77474 10.75H6.3589C9.59058 10.75 11.4916 9.1875 11.9985 6.125C12.1886 4.8125 11.9985 3.75 11.3648 3C10.6678 2.1875 9.40049 1.75 7.75296 1.75ZM8.32326 6.3125C8.06979 8.0625 6.67573 8.0625 5.40841 8.0625H4.64801L5.15494 4.8125C5.15494 4.625 5.34504 4.5 5.53514 4.5H5.85197C6.7391 4.5 7.56286 4.5 8.00643 5C8.32326 5.25 8.44999 5.6875 8.32326 6.3125Z" fill="#003087"/>
<path d="M22.4556 6.25H20.111C19.9209 6.25 19.7308 6.375 19.7308 6.5625L19.6041 7.1875L19.414 6.9375C18.907 6.1875 17.7664 5.9375 16.6259 5.9375C14.0278 5.9375 11.81 7.875 11.3664 10.625C11.113 12 11.4298 13.3125 12.2536 14.1875C12.9506 15 14.0278 15.375 15.2318 15.375C17.3229 15.375 18.5268 14.0625 18.5268 14.0625L18.4001 14.6875C18.3367 14.9375 18.5268 15.1875 18.7803 15.1875H20.9348C21.2516 15.1875 21.5684 14.9375 21.6318 14.625L22.8991 6.625C22.9625 6.5 22.709 6.25 22.4556 6.25ZM19.2239 10.75C18.9704 12.0625 17.9565 13 16.5625 13C15.8655 13 15.3585 12.8125 14.9783 12.375C14.5981 11.9375 14.4714 11.375 14.5981 10.75C14.7882 9.4375 15.9288 8.5 17.2595 8.5C17.9565 8.5 18.4635 8.75 18.8437 9.125C19.1605 9.5625 19.2872 10.125 19.2239 10.75Z" fill="#003087"/>
<path d="M35.0664 6.25H32.7218C32.4684 6.25 32.2783 6.375 32.1515 6.5625L28.8565 11.3125L27.4624 6.75C27.3991 6.4375 27.0822 6.25 26.8288 6.25H24.4842C24.2308 6.25 23.9773 6.5 24.104 6.8125L26.702 14.375L24.2308 17.75C24.0407 18 24.2308 18.375 24.5476 18.375H26.8921C27.1456 18.375 27.3357 18.25 27.4624 18.0625L35.3832 6.8125C35.5733 6.625 35.3832 6.25 35.0664 6.25Z" fill="#003087"/>
<path d="M42.9209 1.75H37.9784C37.6615 1.75 37.3447 2 37.2813 2.3125L35.317 14.75C35.2536 15 35.4437 15.1875 35.6972 15.1875H38.2318C38.4853 15.1875 38.6754 15 38.6754 14.8125L39.2457 11.25C39.309 10.9375 39.5625 10.6875 39.9427 10.6875H41.5269C44.7586 10.6875 46.6595 9.125 47.1665 6.0625C47.3566 4.75 47.1665 3.6875 46.5328 2.9375C45.7724 2.1875 44.5685 1.75 42.9209 1.75ZM43.4912 6.3125C43.2378 8.0625 41.8437 8.0625 40.5764 8.0625H39.816L40.3229 4.8125C40.3229 4.625 40.513 4.5 40.7031 4.5H41.0199C41.9071 4.5 42.7308 4.5 43.1744 5C43.4912 5.25 43.5546 5.6875 43.4912 6.3125Z" fill="#009CDE"/>
<path d="M57.6235 6.25H55.279C55.0889 6.25 54.8988 6.375 54.8988 6.5625L54.772 7.1875L54.5819 6.9375C54.075 6.1875 52.9344 5.9375 51.7938 5.9375C49.1958 5.9375 46.978 7.875 46.5344 10.625C46.281 12 46.5978 13.3125 47.4215 14.1875C48.1186 15 49.1958 15.375 50.3998 15.375C52.4909 15.375 53.6948 14.0625 53.6948 14.0625L53.5681 14.6875C53.5047 14.9375 53.6948 15.1875 53.9483 15.1875H56.1027C56.4196 15.1875 56.7364 14.9375 56.7998 14.625L58.0671 6.625C58.0671 6.5 57.877 6.25 57.6235 6.25ZM54.3285 10.75C54.075 12.0625 53.0612 13 51.6671 13C50.9701 13 50.4631 12.8125 50.0829 12.375C49.7027 11.9375 49.576 11.375 49.7027 10.75C49.8928 9.4375 51.0334 8.5 52.3641 8.5C53.0612 8.5 53.5681 8.75 53.9483 9.125C54.3285 9.5625 54.4552 10.125 54.3285 10.75Z" fill="#009CDE"/>
<path d="M60.4111 2.0625L58.3834 14.75C58.32 15 58.5101 15.1875 58.7636 15.1875H60.7913C61.1081 15.1875 61.425 14.9375 61.4883 14.625L63.516 2.1875C63.5794 1.9375 63.3893 1.75 63.1358 1.75H60.8547C60.6012 1.75 60.4745 1.875 60.4111 2.0625Z" fill="#009CDE"/>
</svg>
