<svg width="40" height="40" viewBox="0 0 40 40" fill="none" xmlns="http://www.w3.org/2000/svg">
<g clip-path="url(#clip0_1381_38122)">
<path d="M31.888 13.087C31.9211 13.0188 31.899 12.9377 31.8345 12.8989C31.1341 12.4695 27.3812 10.1599 26.8191 9.74333C26.3564 9.40049 24.1961 8.69084 23.1215 8.35169C22.8266 8.25769 22.5096 8.44201 22.4598 8.74614C22.0912 10.9617 20.0009 10.9433 20.0009 10.9433C20.0009 10.9433 17.9107 10.9636 17.5421 8.74614C17.4905 8.44201 17.1734 8.25769 16.8803 8.35169C15.8057 8.69084 13.6455 9.40049 13.1828 9.74333C12.6206 10.1599 8.86781 12.4695 8.16738 12.8989C8.10287 12.9377 8.08075 13.0188 8.11393 13.087L10.418 17.7116C10.453 17.7798 10.5341 17.8112 10.6041 17.7817L12.2815 17.0739L12.2409 31.6741H27.7628L27.7222 17.0739L29.3996 17.7817C29.4696 17.8112 29.5526 17.7817 29.5858 17.7116L31.8898 13.087H31.888Z" fill="black"/>
</g>
<defs>
<clipPath id="clip0_1381_38122">
<rect width="40" height="40" fill="white"/>
</clipPath>
</defs>
</svg>
