<svg width="40" height="40" viewBox="0 0 40 40" fill="none" xmlns="http://www.w3.org/2000/svg">
<g clip-path="url(#clip0_1381_38116)">
<path d="M32.518 12.2464C31.5024 11.522 28.1717 9.14797 27.18 8.50652C26.3653 7.97751 24.4926 7.38583 23.3571 7.07248C22.9645 6.96373 22.5553 7.2181 22.4982 7.62177C22.3765 8.48071 21.7996 9.00788 21.3425 9.3839C20.6033 9.99401 19.396 9.99401 18.655 9.3839C18.1998 9.00788 17.621 8.48071 17.4993 7.62177C17.4422 7.2181 17.033 6.96373 16.6404 7.07248C15.505 7.38583 13.6341 7.97751 12.8175 8.50652C11.8259 9.14797 8.49515 11.522 7.47953 12.2464C7.31548 12.3644 7.27861 12.5911 7.39474 12.757L10.1301 16.5946C10.2425 16.7531 10.4619 16.7955 10.6259 16.6905C11.1328 16.3642 12.1337 15.7302 12.2424 15.7302C12.3899 15.7302 12.2424 32.9552 12.2424 32.9552H27.7496C27.7496 32.9552 27.6021 15.7302 27.7496 15.7302C27.8583 15.7302 28.8592 16.3642 29.3661 16.6905C29.5301 16.7955 29.7476 16.7531 29.8619 16.5946L32.5973 12.757C32.7152 12.593 32.6765 12.3644 32.5125 12.2483L32.518 12.2464Z" fill="black"/>
</g>
<defs>
<clipPath id="clip0_1381_38116">
<rect width="40" height="40" fill="white"/>
</clipPath>
</defs>
</svg>
