<svg width="40" height="40" viewBox="0 0 40 40" fill="none" xmlns="http://www.w3.org/2000/svg">
<g clip-path="url(#clip0_1381_38128)">
<path d="M27.8112 12.8381C27.6232 12.6685 25.2177 11.8096 23.815 11.3156C23.3413 11.1497 22.8437 11.4631 22.7699 11.9589C22.3828 14.5191 20.0014 14.438 20.0014 14.438C20.0014 14.438 17.6199 14.5191 17.2329 11.9589C17.1573 11.4612 16.6615 11.1479 16.1877 11.3156C14.785 11.8078 12.3796 12.6685 12.1916 12.8381C11.9243 13.0777 8.13281 15.0813 8.13281 15.1882C8.13281 15.2804 9.75854 18.6664 10.1917 19.5641C10.2562 19.6968 10.3908 19.7816 10.5382 19.7816H12.1124V28.7268H27.8923V19.7816H29.4664C29.6139 19.7816 29.7484 19.6986 29.8129 19.5641C30.2461 18.6664 31.8718 15.2804 31.8718 15.1882C31.8718 15.0777 28.0803 13.0777 27.813 12.8381H27.8112Z" fill="black"/>
</g>
<defs>
<clipPath id="clip0_1381_38128">
<rect width="40" height="40" fill="white"/>
</clipPath>
</defs>
</svg>
