<svg width="40" height="40" viewBox="0 0 40 40" fill="none" xmlns="http://www.w3.org/2000/svg">
<g clip-path="url(#clip0_1381_38144)">
<path d="M34.3324 17.7208C34.1923 17.1199 32.1684 14.3164 30.4063 11.8317C29.0607 9.93686 25.4074 8.37933 23.7522 7.74895C23.3541 7.59596 22.9209 7.81346 22.7771 8.21528C22.473 9.06501 21.732 9.53688 21.0906 9.79678C20.392 10.0788 19.6086 10.0788 18.9119 9.79678C18.2723 9.53872 17.5313 9.06501 17.2253 8.21528C17.0816 7.81346 16.6484 7.5978 16.2503 7.74895C14.595 8.38117 10.9399 9.93686 9.59619 11.8317C7.83406 14.3145 5.81019 17.1199 5.6701 17.7208C5.53001 18.3217 5.3291 22.4082 5.3291 23.2081V29.6595C5.3291 29.7848 5.42311 29.888 5.5466 29.9028L8.29855 30.2143C8.42205 30.229 8.53448 30.1479 8.56398 30.0281C8.82756 28.9203 10.0441 23.8201 10.116 23.7501C10.1952 23.6708 10.5565 29.2563 11.4781 31.5806C11.4781 31.5806 16.3277 30.7991 20.0012 31C23.6748 30.7991 28.5243 31.5806 28.5243 31.5806C29.446 29.2581 29.8054 23.6708 29.8865 23.7501C29.9584 23.8219 31.1749 28.9222 31.4385 30.0281C31.468 30.1479 31.5804 30.229 31.7039 30.2143L34.4559 29.9028C34.5794 29.888 34.6734 29.7848 34.6734 29.6595V23.2081C34.6734 22.4063 34.4725 18.3217 34.3324 17.7208Z" fill="black"/>
</g>
<defs>
<clipPath id="clip0_1381_38144">
<rect width="40" height="40" fill="white"/>
</clipPath>
</defs>
</svg>
