<svg width="40" height="40" viewBox="0 0 40 40" fill="none" xmlns="http://www.w3.org/2000/svg">
<g clip-path="url(#clip0_1381_38140)">
<path d="M11.7621 33.1395L11.5648 32.8225C11.4837 32.6916 11.3234 32.4354 10.8331 26.3748C10.4146 27.8863 9.82113 30.0226 9.60916 30.7857C9.4746 31.2686 9.14835 31.1082 8.64883 31.0659L5.78445 30.8354C5.51165 30.8133 5.30336 30.5829 5.31074 30.3101C5.36603 27.8697 5.57985 19.5622 5.95956 18.0176C6.45538 15.9956 11.0985 10.1415 11.2976 9.89448C12.0883 8.89914 15.7821 7.19968 16.4291 6.92688C16.7019 6.8126 16.8715 6.8126 17.1185 6.98586C17.312 7.12226 17.3028 8.19686 18.2189 8.74062C18.4788 8.89545 19.076 9.18484 19.9866 9.18668H19.9902C20.9008 9.18668 21.498 8.89545 21.7598 8.74246C22.4915 8.31483 22.6814 7.14622 22.8712 7.00982C23.1182 6.83287 23.2749 6.8126 23.5495 6.92688C24.1983 7.19783 27.8996 8.89914 28.6922 9.89264C28.8894 10.1415 33.5417 15.9956 34.0394 18.0158C34.4209 19.5715 34.7527 27.9877 34.8062 30.3599C34.8191 30.9147 34.2661 30.8299 33.7131 30.8742L31.3446 31.064C30.845 31.1064 30.6165 31.2041 30.4819 30.7212C30.3253 30.1608 29.6045 27.984 29.1566 26.3675C28.6663 32.4317 28.506 32.6879 28.4249 32.8206L28.2277 33.1376L27.859 33.0731C27.8332 33.0694 25.2619 32.6271 20.0474 32.64H19.9349C14.7278 32.6252 12.1565 33.0676 12.1325 33.0731L11.7639 33.1376L11.7621 33.1395Z" fill="black"/>
</g>
<defs>
<clipPath id="clip0_1381_38140">
<rect width="40" height="40" fill="white"/>
</clipPath>
</defs>
</svg>
