<svg width="40" height="40" viewBox="0 0 40 40" fill="none" xmlns="http://www.w3.org/2000/svg">
<g clip-path="url(#clip0_1381_38134)">
<path d="M26.8338 15.826C26.5204 15.3707 26.3085 15.2601 26.2882 12.6649C26.2734 10.8548 26.6679 9.51661 26.9075 8.87148C27.007 8.60421 26.878 8.31114 26.6163 8.1987C25.7131 7.80978 24.0302 7.3416 23.0017 7.07064C22.5925 6.96189 22.1833 7.24944 22.1446 7.67154C22.069 8.48256 21.7059 8.99866 21.3004 9.32307C20.5428 9.92765 19.459 9.92765 18.7014 9.32307C18.2959 8.99866 17.9328 8.48256 17.8572 7.67154C17.8185 7.24944 17.4093 6.96373 17.0001 7.07064C15.9716 7.3416 14.2869 7.80978 13.3856 8.1987C13.1238 8.31114 12.9948 8.60421 13.0943 8.87148C13.3339 9.51661 13.7266 10.8548 13.7137 12.6649C13.6934 15.2601 13.4814 15.3726 13.1681 15.826C12.9874 16.0896 12.7552 16.2776 12.569 16.4011C12.3828 16.5246 12.2686 16.7292 12.2686 16.9522V32.9533H27.7351V16.9522C27.7351 16.7292 27.6208 16.5246 27.4347 16.4011C27.2485 16.2776 27.0163 16.0877 26.8356 15.826H26.8338Z" fill="black"/>
</g>
<defs>
<clipPath id="clip0_1381_38134">
<rect width="40" height="40" fill="white"/>
</clipPath>
</defs>
</svg>
