<svg width="24" height="24" viewBox="0 0 24 24" fill="none" xmlns="http://www.w3.org/2000/svg">
<path fill-rule="evenodd" clip-rule="evenodd" d="M16.9324 7.36514L17.9658 8.04234L22.9832 12.0001L17.9658 15.9578L16.9324 16.635C13.9367 18.5981 10.0621 18.5981 7.06646 16.635L6.03305 15.9578L1.01563 12.0001L6.03305 8.04235L7.06645 7.36514C10.0621 5.40205 13.9367 5.40205 16.9324 7.36514ZM17.4805 6.52874L18.5506 7.23001L23.6025 11.2149C24.1101 11.6153 24.1101 12.3848 23.6025 12.7852L18.5506 16.7702L17.4805 17.4714C14.1519 19.6526 9.84688 19.6526 6.51835 17.4714L5.44821 16.7702L0.396307 12.7852C-0.11127 12.3848 -0.111269 11.6153 0.396308 11.2149L5.44821 7.23001L6.51835 6.52874C9.84688 4.34752 14.1519 4.34752 17.4805 6.52874ZM14.9986 11.7862C14.9986 13.2739 13.7079 14.5724 11.9986 14.5724C10.2893 14.5724 8.9986 13.2739 8.9986 11.7862C8.9986 10.2984 10.2893 8.99993 11.9986 8.99993C13.7079 8.99993 14.9986 10.2984 14.9986 11.7862ZM15.9986 11.7862C15.9986 13.8772 14.2077 15.5724 11.9986 15.5724C9.78946 15.5724 7.9986 13.8772 7.9986 11.7862C7.9986 9.69508 9.78946 7.99993 11.9986 7.99993C14.2077 7.99993 15.9986 9.69508 15.9986 11.7862Z" fill="#B614DD"/>
</svg>
