<svg width="96" height="16" viewBox="0 0 96 16" fill="none" xmlns="http://www.w3.org/2000/svg">
<path d="M88 0L90.116 5.08754L95.6085 5.52786L91.4238 9.11246L92.7023 14.4721L88 11.6L83.2977 14.4721L84.5762 9.11246L80.3915 5.52786L85.884 5.08754L88 0Z" fill="#FFC439"/>
<path d="M68 0L70.116 5.08754L75.6085 5.52786L71.4238 9.11246L72.7023 14.4721L68 11.6L63.2977 14.4721L64.5762 9.11246L60.3915 5.52786L65.884 5.08754L68 0Z" fill="#FFC439"/>
<path d="M48 0L50.116 5.08754L55.6085 5.52786L51.4238 9.11246L52.7023 14.4721L48 11.6L43.2977 14.4721L44.5762 9.11246L40.3915 5.52786L45.884 5.08754L48 0Z" fill="#FFC439"/>
<path d="M28 0L30.116 5.08754L35.6085 5.52786L31.4238 9.11246L32.7023 14.4721L28 11.6L23.2977 14.4721L24.5762 9.11246L20.3915 5.52786L25.884 5.08754L28 0Z" fill="#FFC439"/>
<path d="M8 0L10.116 5.08754L15.6085 5.52786L11.4238 9.11246L12.7023 14.4721L8 11.6L3.29772 14.4721L4.5762 9.11246L0.391548 5.52786L5.88397 5.08754L8 0Z" fill="#FFC439"/>
</svg>
