<svg width="97" height="18" viewBox="0 0 97 18" fill="none" xmlns="http://www.w3.org/2000/svg">
<path d="M88 2L90.116 7.08754L95.6085 7.52786L91.4238 11.1125L92.7023 16.4721L88 13.6L83.2977 16.4721L84.5762 11.1125L80.3915 7.52786L85.884 7.08754L88 2Z" stroke="#E2E2E2"/>
<path d="M68 2L70.116 7.08754L75.6085 7.52786L71.4238 11.1125L72.7023 16.4721L68 13.6L63.2977 16.4721L64.5762 11.1125L60.3915 7.52786L65.884 7.08754L68 2Z" stroke="#E2E2E2"/>
<path d="M48 2L50.116 7.08754L55.6085 7.52786L51.4238 11.1125L52.7023 16.4721L48 13.6L43.2977 16.4721L44.5762 11.1125L40.3915 7.52786L45.884 7.08754L48 2Z" fill="#FFC439"/>
<path d="M28 2L30.116 7.08754L35.6085 7.52786L31.4238 11.1125L32.7023 16.4721L28 13.6L23.2977 16.4721L24.5762 11.1125L20.3915 7.52786L25.884 7.08754L28 2Z" fill="#FFC439"/>
<path d="M8 2L10.116 7.08754L15.6085 7.52786L11.4238 11.1125L12.7023 16.4721L8 13.6L3.29772 16.4721L4.5762 11.1125L0.391548 7.52786L5.88397 7.08754L8 2Z" fill="#FFC439"/>
</svg>
