<svg width="24" height="24" viewBox="0 0 24 24" fill="none" xmlns="http://www.w3.org/2000/svg">
<path fill-rule="evenodd" clip-rule="evenodd" d="M6.24319 16.0654C3.50831 13.3475 3.50831 8.94189 6.24319 6.22401C8.97807 3.50614 13.4113 3.50614 16.1462 6.22401C18.8811 8.94189 18.8811 13.3475 16.1462 16.0654C13.4113 18.7833 8.97807 18.7833 6.24319 16.0654ZM5.39801 5.38409C2.20066 8.56947 2.20066 13.7279 5.39801 16.9054C8.44385 19.9323 13.2837 20.0828 16.505 17.3491C16.5289 17.3887 16.5608 17.4283 16.6007 17.4679L19.9814 20.8277C20.2126 21.0574 20.5953 21.0574 20.8266 20.8277C21.0578 20.5979 21.0578 20.2175 20.8266 19.9877L17.4458 16.628C17.4458 16.628 17.3741 16.5646 17.3342 16.5409C20.1887 13.3396 20.0771 8.44269 16.9914 5.37616C13.794 2.20663 8.60332 2.20663 5.39801 5.38409Z" fill="#9F9F9F"/>
</svg>
