<svg width="57" height="38" viewBox="0 0 57 38" fill="none" xmlns="http://www.w3.org/2000/svg">
<g clip-path="url(#clip0_2047_65544)">
<path d="M55.8444 17.725L46.0831 9.9025C45.7553 9.64 45.3364 9.5 44.9176 9.5H36.4675V2.5C36.4675 1.5375 35.648 0.75 34.6463 0.75H5.50813C4.5065 0.75 3.68699 1.5375 3.68699 2.5V9.9375H1.86585C1.11919 9.9375 0.5 10.5325 0.5 11.25C0.5 11.9675 1.11919 12.5625 1.86585 12.5625H14.6138C15.3605 12.5625 15.9797 11.9675 15.9797 11.25C15.9797 10.5325 15.3605 9.9375 14.6138 9.9375H6.4187V3.375H33.7358V29.625H19.8223C19.8587 29.7475 19.8769 29.87 19.8951 29.975C19.2395 27.2625 16.7081 25.25 13.7033 25.25C10.6984 25.25 8.16699 27.28 7.51138 29.975C7.5478 29.8525 7.54781 29.73 7.58423 29.625H6.4187V23.0625H20.0772C20.8239 23.0625 21.4431 22.4675 21.4431 21.75C21.4431 21.0325 20.8239 20.4375 20.0772 20.4375H1.86585C1.11919 20.4375 0.5 21.0325 0.5 21.75C0.5 22.4675 1.11919 23.0625 1.86585 23.0625H3.68699V30.5C3.68699 31.4625 4.5065 32.25 5.50813 32.25H7.40211C7.36569 31.97 7.34748 31.6725 7.32927 31.375C7.32927 34.7525 10.1885 37.5 13.7033 37.5C17.2181 37.5 20.0772 34.7525 20.0772 31.375C20.0772 30.99 20.0226 30.6225 19.968 30.2725C20.0408 30.64 20.0772 31.0075 20.0772 31.375C20.0772 31.6725 20.059 31.97 20.0044 32.25H38.3433C38.3068 31.97 38.2886 31.6725 38.2704 31.375C38.2704 34.7525 41.1296 37.5 44.6444 37.5C48.1592 37.5 51.0184 34.7525 51.0184 31.375C51.0184 30.99 50.9637 30.6225 50.9091 30.2725C50.982 30.64 51.0184 31.0075 51.0184 31.375C51.0184 31.6725 51.0002 31.97 50.9455 32.25H54.6607C55.6623 32.25 56.4818 31.4625 56.4818 30.5V19.0725C56.4818 18.5475 56.245 18.0575 55.8262 17.725H55.8444ZM7.43854 30.2725C7.36569 30.6225 7.32927 30.99 7.32927 31.375C7.32927 30.99 7.3839 30.64 7.43854 30.2725ZM13.7033 34.875C11.7 34.875 10.061 33.3 10.061 31.375C10.061 29.45 11.7 27.875 13.7033 27.875C15.7065 27.875 17.3455 29.45 17.3455 31.375C17.3455 33.3 15.7065 34.875 13.7033 34.875ZM44.6626 34.875C42.6594 34.875 41.0203 33.3 41.0203 31.375C41.0203 29.45 42.6594 27.875 44.6626 27.875C46.6659 27.875 48.3049 29.45 48.3049 31.375C48.3049 33.3 46.6659 34.875 44.6626 34.875ZM53.7683 29.625H50.7816C50.8181 29.7475 50.8363 29.87 50.8545 29.975C50.1989 27.2625 47.6675 25.25 44.6626 25.25C41.6577 25.25 39.1263 27.28 38.4707 29.975C38.5072 29.8525 38.5072 29.73 38.5436 29.625H36.4675V12.125H44.5898L53.7683 19.475V29.625ZM38.2886 31.375C38.2886 30.99 38.3433 30.64 38.3979 30.2725C38.325 30.6225 38.2886 30.99 38.2886 31.375Z" fill="black"/>
<path d="M12.7927 17.8125C13.5394 17.8125 14.1586 17.2175 14.1586 16.5C14.1586 15.7825 13.5394 15.1875 12.7927 15.1875H3.68702C2.94035 15.1875 2.32117 15.7825 2.32117 16.5C2.32117 17.2175 2.94035 17.8125 3.68702 17.8125H12.7927Z" fill="black"/>
</g>
<defs>
<clipPath id="clip0_2047_65544">
<rect width="56" height="36.75" fill="white" transform="translate(0.5 0.75)"/>
</clipPath>
</defs>
</svg>
