<svg width="693" height="528" viewBox="0 0 693 528" fill="none" xmlns="http://www.w3.org/2000/svg">
<path d="M339.389 119.945C336.027 121.315 332.003 121.452 328.341 120.359C324.948 119.461 321.644 117.398 318.429 116.562C316.146 115.917 313.968 116.615 312.153 118.049C308.113 121.132 302.846 121.068 298.18 120.711C290.862 120.029 283.923 118.222 276.82 116.878C270.018 115.722 262.689 114.084 256.182 117.266C256.839 116.626 257.549 116.043 258.328 115.538C269.15 109.231 286.906 114.604 298.638 115.481C302.268 115.748 306.355 116.079 309.375 114.068C312.3 111.993 316.288 111.263 319.66 112.629C323.154 113.921 325.989 116.394 329.256 117.954C332.355 119.556 335.906 120.176 339.394 119.939L339.389 119.945Z" fill="#EB97FF"/>
<path d="M125.005 214.245C122.095 220.421 118.444 226.198 114.614 231.765C111.984 235.782 108.727 239.579 107.144 243.944C106.518 245.813 106.765 247.615 107.586 249.395C107.912 250.057 108.464 251.217 108.685 252.042C110.874 260.513 106.449 269.598 105.255 277.854C104.945 280.128 104.724 282.68 106.097 284.666C106.523 285.348 107.196 285.831 107.906 286.315L107.286 286.147C104.776 285.422 103.414 282.849 102.982 280.422C101.746 272.87 104.329 265.103 104.282 257.75C104.261 255.855 104.097 254.258 103.387 252.724C102.267 250.603 101.335 247.951 101.572 245.425C101.998 240.551 105.208 236.707 108.059 233.13C113.515 226.629 119.149 220.474 125.01 214.245H125.005Z" fill="#EB97FF"/>
<path d="M323.863 492.556C326.199 490.797 328.635 488.927 330.803 486.979C331.897 485.986 332.975 484.999 333.996 483.948C335.359 482.646 336.506 481.039 338.126 479.847C338.81 479.364 339.725 479.08 340.567 479.169C342.098 479.306 343.534 480.199 344.786 480.918C346.054 481.653 349.211 483.638 350.51 484.431C351.61 485.088 353.104 486.049 354.209 486.611C361.858 490.282 370.854 488.822 378.983 487.378C387.842 485.729 396.223 483.192 405.372 482.084C408.565 481.753 411.764 481.58 415.004 482.236C416.672 482.583 418.403 483.187 419.944 484.263C420.939 485.009 421.88 485.865 423.106 486.207C431.687 488.397 444.439 473.445 449.579 467.348C445.323 474.952 439.463 483.176 431.987 487.966C428.42 490.277 423.469 491.479 419.476 489.221C418.808 488.832 418.145 488.344 417.493 487.924C416.551 487.351 415.409 486.979 414.152 486.784C408.76 486.086 402.873 487.514 397.443 488.664C385.68 491.19 373.685 494.919 361.4 493.307C357.86 492.798 354.224 491.616 351.163 489.552C349.053 488.087 346.828 486.464 344.781 484.936C343.513 484.017 342.229 482.982 340.893 482.263C340.662 482.147 340.488 482.063 340.251 482.01C340.157 481.974 340.115 482 340.041 481.974C339.972 482 339.915 481.968 339.82 482.016C339.778 482.031 339.73 482.042 339.683 482.052L339.52 482.136C338.063 483.024 336.79 484.347 335.338 485.45C331.823 488.265 327.888 490.592 323.848 492.551L323.863 492.556Z" fill="#EB97FF"/>
<path d="M227.094 11.8216C191.819 39.5509 163.605 64.2498 186.29 80.0366C238.374 116.274 261.085 -14.8992 227.094 11.8216Z" fill="#474747"/>
<path d="M166.566 86.596C148.153 101.826 151.031 103.953 149.205 122.308C147.38 140.663 142.892 163.271 154.466 154.869C166.04 146.466 167.908 143.514 181.297 132.286C207.602 110.229 187.831 69.0079 166.566 86.596Z" fill="#B7B7B7"/>
<path d="M41.5244 179.878C46.4276 183.538 52.7355 187.587 59.0065 187.661C60.7795 187.64 63.2048 186.925 64.0307 185.376C64.8725 183.422 61.4055 180.65 63.4941 178.78C64.5411 177.934 65.9931 177.913 67.2768 177.829C75.4418 177.388 96.2015 182.577 102.141 178.591C104.593 176.579 99.8211 169.626 98.4953 167.363C97.3589 165.446 95.6965 163.713 93.4763 163.377C92.3137 163.151 90.5355 163.613 90.1935 164.647C90.1041 165.089 90.2672 165.414 90.5881 165.84C91.0037 166.365 91.6981 166.906 92.5031 167.352C95.1441 168.786 98.1533 169.432 101.189 169.915C105.361 170.54 109.68 170.687 113.989 170.65C118.261 170.613 122.659 170.466 126.894 170.062C128.856 169.841 131.203 169.616 132.865 168.838C132.923 168.812 132.881 168.807 132.744 169.006C132.555 169.232 132.455 169.757 132.502 170.062C132.555 170.277 132.565 170.414 132.644 170.503C132.644 170.472 132.381 170.188 132.076 169.952C128.783 167.546 124.548 166.139 120.765 164.395C120.565 164.296 120.476 164.238 120.26 164.075C120.128 163.608 119.902 164.611 119.313 162.142C120.16 158.876 122.275 159.853 123.674 160.126C130.035 161.727 136.28 163.602 142.766 164.322C144.245 164.432 145.891 164.632 147.159 164.086C147.159 164.096 147.175 164.159 147.191 164.086C147.228 163.949 147.08 163.518 146.833 163.14C145.365 160.976 143.177 159.296 141.146 157.636C140.294 156.948 139.42 156.276 138.536 155.62L138.815 155.173C140.788 156.187 142.735 157.253 144.608 158.498C146.044 159.459 147.475 160.493 148.616 161.864C149.006 162.373 149.442 162.93 149.584 163.896C149.853 165.85 147.727 166.895 146.196 167.126C142.708 167.72 139.247 167.305 135.827 166.921C131.171 166.396 126.52 165.314 121.959 164.527L121.665 164.49C121.638 164.49 121.601 164.49 121.743 164.495C121.859 164.495 121.78 164.506 122.059 164.474C121.728 164.485 123.422 164.747 124.048 162.184C123.464 159.753 123.269 160.777 123.164 160.331C123.032 160.236 123.006 160.215 122.922 160.168C122.911 160.168 122.938 160.173 122.948 160.178L123.075 160.231L123.411 160.362C126.926 161.675 130.25 162.788 133.654 164.668C134.964 165.482 135.995 166.05 137.063 167.494C138.521 169.469 137.842 172.121 135.843 173.334C134.322 174.332 132.444 174.726 130.924 175.014C120.386 176.637 99.4581 176.516 90.2987 171.055C88.5731 170.015 86.6581 168.334 86.1531 166.081C85.4639 163.461 87.3736 160.724 89.7989 159.9C93.8762 158.303 98.3585 160.551 100.647 163.928C102.567 166.911 104.172 169.736 105.45 173.15C107.997 180.235 103.409 182.908 96.9433 183.018C86.9107 183.317 77.2358 180.25 67.2925 179.82C66.4771 179.846 65.4354 179.799 64.7041 180.193C64.7041 180.214 64.6463 180.219 64.6673 180.229C64.6673 180.235 64.6515 180.224 64.6515 180.24C64.6515 180.256 64.6515 180.266 64.6463 180.282C64.6568 180.938 65.0093 181.485 65.2671 182.204C65.7458 183.359 66.1141 184.819 65.488 186.069C62.6892 190.381 56.334 189.168 52.3777 187.451C48.2742 185.66 44.581 183.149 41.1719 180.277L41.5138 179.878H41.5244Z" fill="black"/>
<path d="M179.098 50.9629C192.172 36.4366 203.02 20.0354 215.288 4.82108C218.198 1.02932 223.374 -2.19525 227.631 1.91686C231.129 5.69812 230.945 11.8584 230.95 16.522C230.514 27.4666 228.246 37.8546 225.247 48.2635C222.585 57.2545 219.066 66.2245 214.147 74.3384C212.111 77.7416 210.096 81.2602 207.797 84.5951C206.376 86.575 205.003 88.6284 202.73 90.2565C200.479 91.958 197.217 92.1471 194.708 91.0652C193.913 90.7659 192.545 90.1987 191.751 90.0096C191.609 89.9781 191.583 89.9676 191.588 89.9519C191.588 89.9361 191.577 89.9151 191.461 89.9781C190.636 90.5558 190.152 91.5379 189.599 92.73C188.763 94.6469 188.137 96.9682 187.642 99.3367C186.895 102.929 186.437 106.736 186.095 110.444C185.874 112.944 185.722 116.242 185.09 118.747C183.118 127.722 175.921 129.839 168.697 133.231C159.527 137.485 151.394 143.399 143.976 150.268L138.494 155.32C138.789 148.272 139.01 140.657 139.394 133.678C139.746 126.515 140.188 119.346 140.856 112.193C141.382 107.209 141.682 101.658 145.102 97.6247C146.77 95.5555 148.685 93.9905 150.51 92.4464C154.182 89.4162 157.718 86.3649 160.932 82.8673C162.537 81.1394 164.078 79.3433 165.562 77.5C166.298 76.5757 167.019 75.6304 167.719 74.6798C168.408 73.787 168.987 72.931 169.018 71.8228C169.15 68.2359 163.884 65.9304 165.183 62.1281C166.346 59.7123 168.818 58.8615 170.938 57.6064C174.095 55.9363 176.762 53.6938 179.093 50.9682L179.098 50.9629ZM179.872 51.6772C178.241 53.4312 176.478 55.1591 174.463 56.4877C172.527 57.869 170.26 58.8615 168.287 60.1115C160.601 65.1111 174.511 68.0048 168.845 75.4623L167.84 76.9538C164.788 81.423 161.421 85.7032 157.691 89.642C156.034 91.4014 154.293 93.0872 152.594 94.7415C149.311 97.8715 146.354 100.996 145.902 105.586C144.897 119.682 145.012 133.951 144.913 148.094L139.704 145.825C145.36 140.195 151.583 134.917 158.417 130.663C160.716 129.235 163.089 127.911 165.478 126.698C168.781 124.939 172.238 123.663 174.953 121.499C177.241 119.498 177.515 117.109 177.783 113.721C177.899 111.316 178.051 108.186 178.272 105.833C179.114 98.0501 180.208 83.4397 189.604 81.0659C192.598 80.2782 195.581 81.5281 198.243 82.3316C198.301 82.3368 198.206 82.3001 198.011 82.3001C197.79 82.2738 197.291 82.4261 197.175 82.4786C199.59 79.753 201.368 76.0347 203.236 72.6999L206.813 65.9094C210.133 59.3132 212.558 52.2496 214.747 45.1177C217.882 34.4619 220.765 23.3702 221.538 12.3521C221.596 10.7871 221.602 9.32182 221.338 7.96162C221.291 7.67803 221.186 7.54673 221.438 7.78831C221.696 8.09817 222.727 8.42903 223.117 8.29773C223.517 8.2032 223.332 8.14018 223.064 8.27673C221.623 8.90168 219.208 11.5065 217.966 12.5989C204.719 25.0718 192.324 38.427 179.866 51.6772H179.872Z" fill="black"/>
<path d="M199.996 83.8598C199.885 80.9189 198.028 78.9757 196.076 77.0011C194.035 75.0789 192.204 72.7419 189.926 70.9826C188.748 70.0635 187.517 69.197 186.238 68.3777C182.366 65.8411 178.263 63.7929 173.875 62.1701L173.991 61.6555C177.147 61.9496 180.288 62.6428 183.35 63.6091C186.433 64.5964 189.416 65.8726 192.252 67.4797C193.677 68.2884 195.129 69.0972 196.534 70.053C199.438 72.0697 201.7 75.1787 202.205 78.8497C202.447 80.7036 201.932 82.8725 200.48 84.0804L200.001 83.8598H199.996Z" fill="black"/>
<path d="M141.582 147.301C142.492 141.592 143.518 135.92 144.796 130.275C145.806 126.331 146.679 122.644 148.405 118.794C148.936 117.807 149.494 116.762 150.725 115.754C151.43 115.187 152.335 114.798 153.066 114.257C153.54 113.952 154.134 113.427 154.466 113.107C154.518 113.075 154.534 113.07 154.555 113.243C154.581 113.553 154.755 113.9 154.992 114.11C155.281 114.351 155.444 114.325 155.449 114.288C155.355 114.115 154.955 114.073 154.708 114.026C154.234 113.973 153.624 113.91 153.166 113.947C152.951 113.958 152.724 113.921 152.603 114.141C152.451 114.388 152.461 114.877 152.551 115.323L152.14 115.649C151.667 115.328 151.251 114.913 151.046 114.199C150.583 111.894 153.356 110.738 155.234 110.428C157.054 110.103 159.037 111.363 158.99 113.48C158.822 116.1 157.033 117.902 155.134 119.367C154.813 119.614 154.45 119.798 154.124 120.034C152.535 121.468 151.235 123.899 150.246 126.073C147.242 133.063 144.854 140.332 142.071 147.432L141.561 147.296L141.582 147.301Z" fill="black"/>
<path d="M177.361 73.4509C180.902 75.5253 184.59 76.9853 187.825 79.6637C189.099 80.6931 189.988 82.694 189.872 84.3798L186.21 83.9701C186.326 83.5342 186.373 83.1666 186.315 82.778C185.963 81.1815 184.479 79.9893 183.248 78.7499C181.339 76.9696 179.313 75.226 177.361 73.4456V73.4509Z" fill="black"/>
<path d="M138.711 351.452C36.3586 335.088 -48.306 432.371 67.493 467.048C183.292 501.725 286.933 375.148 138.711 351.452Z" fill="#9CFFEC"/>
<path d="M208.654 396.186C208.554 399.007 208.449 401.921 207.86 404.678C207.67 406.301 207.055 408.292 206.676 409.888C205.913 412.22 205.087 414.683 204.072 416.91C203.761 417.598 202.978 419.152 202.672 419.809C202.404 420.318 201.41 422.067 201.115 422.629C187.147 445.737 161.569 459.806 135.648 465.41C126.452 467.4 116.908 468.345 107.502 468.33C106.77 468.33 106.081 468.351 105.245 468.33L109.711 465.326C102.825 482.772 81.6651 486.133 65.0773 484.915C60.0899 484.741 47.5373 482.341 42.4762 481.617C45.0225 481.097 58.8641 478.502 61.0001 478.066C62.2627 477.672 63.5832 477.373 64.7827 476.822C65.1299 476.69 65.6981 476.449 66.0138 476.323C66.1611 476.239 67.7341 475.404 67.9445 475.288C72.9582 472.305 76.5462 466.954 77.1933 461.135L78.6348 462.999C70.8486 461.408 63.1781 459.318 55.7075 456.602C29.7289 447.139 2.19304 427.655 0.11496 397.757C-1.44228 376.098 12.7728 356.725 29.8657 344.992C46.6692 333.202 66.7713 326.59 87.0576 324.227C119.139 320.551 153.33 326.821 179.577 346.29C195.418 358.017 208.765 375.804 208.654 396.197V396.186ZM207.602 396.186C207.612 380.478 198.437 366.299 186.269 356.956C167.64 342.697 144.002 336.747 120.98 334.688C102.651 333.249 83.9747 334.809 66.2768 339.856C46.9533 345.412 27.5772 355.464 16.0241 372.359C2.59813 392.431 6.6859 415.045 23.0264 432.124C37.794 447.48 58.4695 456.067 79.2608 459.528L80.8076 459.801C80.7076 462.059 80.413 464.433 79.7028 466.56C77.7562 472.983 72.874 478.371 66.8397 481.27C64.3881 482.583 61.6524 483.371 58.9851 484.106L58.822 478.618C63.0571 478.891 67.4605 478.775 71.6903 478.355C81.3652 477.273 92.2922 474.752 98.4739 466.712C100.131 464.575 101.178 461.492 102.162 458.981C105.108 459.034 108.57 458.966 111.521 458.85C140.488 457.506 175.994 449.271 195.707 426.552C203.057 418.06 207.57 407.499 207.602 396.186Z" fill="black"/>
<path d="M94.3594 419.037C80.5073 418.459 74.1468 442.775 96.1428 442.775C118.139 442.775 122.895 420.224 94.3594 419.037Z" fill="#B7B7B7"/>
<path d="M93.5237 411.343C73.7162 399.164 81.4603 343.438 115.104 352.55C148.748 361.667 140.578 387.574 129.04 397.169C117.508 406.763 114.236 424.078 93.5237 411.343Z" fill="#FFE783"/>
<path d="M76.9572 420.192C76.9624 421.342 76.9782 422.445 77.2097 423.432C77.4464 424.551 77.8726 425.481 78.0672 426.704C78.2987 428.049 78.2303 429.43 78.0672 430.685C77.9778 431.557 77.7095 433.022 77.6937 433.873C77.5254 436.199 78.0988 437.807 80.2137 438.799C81.7131 439.561 83.5649 440.044 85.3063 440.453C88.2209 441.089 91.3354 441.625 94.2868 441.64C99.3478 441.672 107.081 439.975 104.914 433.332C104.172 431.116 103.478 428.758 103.683 426.169C103.778 424.887 104.167 423.622 104.488 422.54C104.73 421.663 104.935 420.943 104.824 420.103L104.809 419.961C104.819 419.872 104.767 419.993 104.767 420.019C104.756 420.103 104.746 420.171 104.735 420.245C104.761 420.323 104.703 420.318 104.703 420.35C104.656 420.371 104.572 420.334 104.43 420.281C101.242 419.179 97.6959 418.811 94.3341 417.96C90.2148 417.13 85.9376 416.217 81.7762 415.88C80.4031 415.838 78.9563 415.681 77.8252 416.259C77.5096 416.453 77.3938 416.884 77.4359 417.267L76.8257 417.677C76.0628 416.962 75.9944 415.775 76.531 414.883C78.0199 412.719 80.7503 412.083 83.0862 411.537C87.195 410.781 91.4038 410.918 95.5073 411.527C97.8432 411.858 100.153 412.446 102.41 413.433C104.951 414.604 109.249 416.899 108.781 420.339C108.328 422.624 106.513 424.294 106.029 426.494C105.251 429.945 107.986 432.723 108.334 436.094C108.733 438.862 107.539 441.913 105.551 443.893C99.7529 449.912 87.3634 449.733 79.9507 447.144C71.5752 444.072 69.2394 437.26 73.3324 429.419C73.748 428.516 74.0952 427.671 74.2794 426.773C74.5108 425.738 74.474 424.451 74.7739 423.343C75.079 422.083 75.6209 420.99 76.2522 419.993L76.9572 420.203V420.192Z" fill="black"/>
<path d="M104.555 413.365C106.302 412.682 107.054 411.422 107.743 409.746C108.464 408.087 109.327 406.207 110.611 404.6C112.126 402.588 114.104 401.018 116.087 399.548C119.686 396.775 122.637 393.125 124.568 389.023C128.719 380.268 128.24 369.513 123.011 361.304C119.37 355.743 113.862 351.384 107.443 349.262C97.2424 345.806 85.3947 349.64 79.6603 358.873C77.1666 362.686 75.8776 366.871 75.1148 371.209C74.957 372.611 74.7255 374.082 74.7097 375.495C74.3204 380.51 75.946 385.441 77.8347 390.058L78.3503 391.297C79.5077 393.702 79.9128 396.47 79.6761 399.064C79.5235 401.055 79.1026 402.888 78.908 404.563C78.6765 406.228 78.9395 407.793 80.4231 408.712L80.1495 409.395C79.6603 409.29 79.1605 409.127 78.6923 408.843C76.3248 407.378 76.2249 404.201 75.9986 401.801C75.8145 399.39 75.5199 396.654 74.3677 394.711L73.7312 393.666C73.0262 392.458 72.2318 391.166 71.6163 389.9C69.1278 385.195 67.5706 379.271 68.1598 373.719C68.144 373.257 68.2703 372.653 68.3439 372.202C68.6386 370.211 69.1594 368.163 69.8907 366.293C76.5195 349.934 97.516 341.243 114.13 346.673C130.802 352.229 139.798 372.07 132.938 388.262C130.102 395.357 124.473 401.275 117.581 404.547C114.351 406.044 111.994 408.108 109.806 411.017C108.664 412.588 106.754 414.142 104.687 414.09L104.545 413.37L104.555 413.365Z" fill="black"/>
<path d="M59.506 427.329C57.0386 427.676 54.6607 428.001 52.2985 428.705C51.2147 429.02 50.2783 429.708 49.205 429.966C48.1686 430.26 47.2217 430.47 45.8275 430.979L45.5645 430.806C45.5645 428.542 47.7057 426.689 49.8206 426.389C53.0666 425.969 56.3705 426.184 59.5113 427.009V427.324L59.506 427.329Z" fill="black"/>
<path d="M43.2391 405.435C41.2715 405.482 39.4723 406.002 37.7098 406.774C36.8681 407.142 36.1842 407.84 35.2635 408.029C34.4533 408.234 33.5379 408.318 32.6804 408.313C32.5436 408.307 32.4068 408.334 32.3016 408.265H31.9859C31.9438 407.95 32.0122 407.809 32.049 407.63C32.5383 406.128 33.843 404.852 35.4055 404.563C37.0206 404.337 38.6358 404.075 40.2614 404.269C41.3294 404.4 42.3763 404.663 43.3075 405.125L43.2391 405.429V405.435Z" fill="black"/>
<path d="M52.4675 374.234C50.4683 372.554 47.7116 372.244 45.2284 371.729C43.9447 371.508 42.5927 371.608 41.3563 371.13C40.1148 370.673 38.889 370.111 37.6895 369.077L37.7263 368.762C39.7254 367.869 41.9666 367.743 43.9868 368.494C47.0961 369.891 50.8997 370.936 52.72 374.056L52.4622 374.234H52.4675Z" fill="black"/>
<path d="M67.2556 353.721C66.256 352.791 65.2933 351.94 64.2358 351.116C63.7729 350.738 63.0679 350.601 62.7838 350.034C62.3998 349.446 62.405 348.69 62.1367 348.028V347.713C62.868 347.056 64.1306 347.282 64.8935 347.687C65.8667 348.248 66.1193 349.567 66.6717 350.475C67.0925 351.468 67.4082 352.508 67.5397 353.574L67.2556 353.716V353.721Z" fill="black"/>
<path d="M141.041 351.704C143.482 349.976 146.223 348.658 148.896 347.329C150.653 346.542 152.841 346.594 154.493 347.713V348.028C153.452 348.842 152.541 349.414 151.395 349.903C150.353 350.391 149.164 350.312 148.054 350.549L144.64 351.268C143.487 351.51 142.34 351.772 141.162 351.993L141.041 351.704Z" fill="black"/>
<path d="M151.814 371.382C154.671 369.634 158.028 368.725 161.374 368.515C164.115 368.137 166.929 369.061 168.665 371.382L168.529 371.666C167.713 371.792 166.982 371.834 166.266 371.855C164.546 371.939 162.889 371.771 161.247 371.304C158.138 370.773 155.029 371.052 151.935 371.671L151.82 371.377L151.814 371.382Z" fill="black"/>
<path d="M146.812 394.984C149.417 394.107 152.142 393.655 154.914 393.797C155.956 393.881 157.071 393.802 158.097 394.112C159.144 394.417 160.081 395.005 160.891 395.756C161.422 396.276 161.906 396.864 162.196 397.641L162.001 397.888C160.107 397.825 158.76 397.678 157.161 397.258C156.282 396.969 155.451 396.528 154.546 396.286C152.684 395.814 150.774 395.535 148.848 395.388L146.865 395.294L146.818 394.984H146.812Z" fill="black"/>
<path d="M136.211 423.17C138.521 423.532 140.573 425.003 142.209 426.605C142.63 427.009 143.072 427.398 143.498 427.807C144.35 428.647 144.766 429.771 144.944 430.948C145.018 431.552 145.044 432.182 144.876 432.88L144.592 433.012C143.34 432.423 142.519 431.688 141.793 430.911C140.773 429.714 140.431 428.112 139.389 426.872C139.173 426.547 138.7 425.917 138.447 425.617C137.779 424.808 137.027 424.073 136.111 423.459L136.217 423.165L136.211 423.17Z" fill="black"/>
<path d="M258.269 425.045C188.782 420.108 140.644 421.867 142.133 454.234C143.617 486.6 134.005 512.066 200.188 515.517C266.366 518.967 297.547 528.142 292.102 480.319C286.657 432.497 296.211 427.739 258.274 425.045H258.269Z" fill="#FFE783"/>
<path d="M288.883 437.287C288.799 451.025 289.425 464.779 290.209 478.502C290.493 491.842 281.381 504.635 268.576 508.731C265.73 509.692 262.715 510.244 259.701 510.354C258.164 510.443 255.097 510.48 253.514 510.527C247.721 510.674 241.792 510.68 235.984 510.669L232.48 510.632L235.142 509.808C234.011 510.559 233.191 511.399 232.822 512.035C232.428 512.738 232.386 513.206 232.549 514.041C232.722 514.939 233.327 516.126 234.18 517.26C235.127 518.536 236.342 519.744 237.568 520.784C239.277 522.291 239.446 524.896 237.936 526.603C237.005 527.659 235.626 528.121 234.322 527.968C231.649 527.632 228.945 526.955 226.399 525.773C220.054 522.943 215.456 516.866 213.978 510.186C213.678 508.873 213.478 507.565 213.446 506.095L216.287 508.789C201.846 507.996 187.399 507.523 172.942 507.523C167.702 507.55 161.952 507.565 156.686 507.665C153.003 507.754 149.068 507.902 145.454 507.04C131.754 504.33 120.895 491.836 120.154 477.862C119.959 474.658 119.822 470.162 119.675 466.943C119.307 457.511 119.001 446.566 118.859 437.182C118.859 436.425 118.896 434.797 118.965 434.036C119.875 421.248 128.666 409.505 140.703 404.983C143.712 403.838 146.89 403.098 150.099 402.83C152.024 402.562 161.899 402.688 164.062 402.62C192.949 402.567 221.958 403.124 250.757 405.403C253.882 405.682 258.664 405.829 261.758 406.249C277.062 408.281 289.057 421.867 288.867 437.292L288.883 437.287ZM287.831 437.287C287.894 422.86 275.952 410.45 261.437 410.487C254.387 410.739 246.969 411.474 239.935 411.868C218.292 413.417 196.606 413.764 174.915 413.895C168.444 413.979 157.412 413.785 150.956 413.89C142.818 414.315 135.168 419.263 131.359 426.463C129.765 429.404 128.818 432.723 128.571 436.079C128.497 436.714 128.492 439.198 128.466 439.897C128.429 445.164 128.192 450.894 128.082 456.125L127.698 466.943L127.261 477.662C127.198 480.834 127.698 484.043 128.813 487.078C131.601 494.846 138.383 501.048 146.395 503.222C148.826 503.91 151.462 504.173 153.997 504.178C174.768 504.63 195.569 504.283 216.308 503.107C217.713 503.033 218.923 504.052 219.102 505.423C219.217 506.452 219.449 507.497 219.828 508.579C221.364 513.153 224.831 517.055 229.424 518.599C231.186 519.235 233.101 519.529 235.069 519.639L232.228 527.181C231.333 526.535 230.444 525.82 229.639 525.075C224.92 520.889 221.301 514.057 224.647 507.728C225.883 505.333 227.756 503.537 229.824 502.088C230.607 501.536 231.507 501.269 232.396 501.263H232.486L235.989 501.227C241.792 501.211 247.721 501.227 253.519 501.368L260.348 501.536C266.356 501.536 272.469 499.352 277.125 495.429C282.049 491.38 285.395 485.466 286.321 479.127C286.642 477.027 286.689 474.6 286.847 472.284C287.526 460.631 287.873 448.956 287.841 437.287H287.831Z" fill="black"/>
<path d="M159.779 454.56C172.384 459.27 184.773 467.883 194.238 477.389L185.194 478.177C189.587 471.302 195.211 465.347 200.714 459.37C214.266 444.797 230.086 430.218 249.509 424.262C253.408 423.112 257.459 422.461 261.483 422.419L261.562 423.516C242.386 426.893 227.403 442.113 215.029 456.167C208.69 463.403 203.16 471.538 197.989 479.642C196.226 482.289 192.518 487.835 190.739 490.508L185.799 485.14C181.133 479.904 170.258 468.419 165.792 463.267C163.566 460.725 161.294 458.21 159.137 455.458L159.779 454.56Z" fill="black"/>
<path d="M161.62 487.877C160.195 489.032 158.864 490.198 157.564 491.464C156.943 492.062 156.533 492.908 155.733 493.302C154.839 493.774 153.787 494.137 152.729 494.131C152.456 492.934 152.992 491.842 153.65 490.938C154.592 489.809 156.154 489.489 157.396 488.79C158.716 488.244 160.089 487.814 161.494 487.583L161.62 487.871V487.877Z" fill="black"/>
<path d="M220.685 425.349C220.995 423.48 221.637 421.657 222.511 419.966C222.947 419.116 223.221 418.107 224.041 417.519C224.646 417.046 225.409 416.684 226.209 416.558C226.53 416.532 226.788 416.463 227.245 416.6C227.272 417.199 227.103 417.834 226.94 418.37C226.651 419.221 226.304 420.014 225.583 420.57C224.857 421.09 224.252 421.731 223.657 422.387C222.705 423.375 221.858 424.399 220.969 425.47L220.68 425.344L220.685 425.349Z" fill="black"/>
<path d="M148.185 467.505C146.243 468.461 144.502 469.637 142.96 471.103C142.208 471.791 141.729 472.752 140.846 473.303C139.988 473.881 139.078 474.406 137.757 474.789L137.489 474.621C137.394 472.993 138.089 471.528 139.194 470.42C139.867 469.832 140.719 469.475 141.487 469.049C143.497 467.915 145.817 467.248 148.111 467.195L148.179 467.5L148.185 467.505Z" fill="black"/>
<path d="M152.782 441.21C150.809 440.133 148.694 438.972 146.647 438.095C145.653 437.654 144.522 437.554 143.607 436.966C142.596 436.362 141.792 435.722 140.802 434.944L140.766 434.629C142.454 433.437 144.817 433.684 146.442 434.776C148.389 436.215 150.288 437.749 151.861 439.592C152.245 440.044 152.624 440.506 152.987 440.968L152.782 441.204V441.21Z" fill="black"/>
<path d="M182.527 427.587C181.038 425.974 179.786 424.194 178.108 422.792C177.051 421.794 176.84 420.723 176.672 419.079L176.861 418.827C178.024 418.743 178.971 419.189 179.802 419.846C180.86 420.786 181.086 422.309 181.712 423.522C182.191 424.798 182.564 426.111 182.817 427.45L182.533 427.587H182.527Z" fill="black"/>
<path d="M260.674 435.16C263.146 434.346 265.709 433.778 268.323 433.673C268.986 433.637 269.66 433.584 270.343 433.563C271.748 433.542 273.095 434.099 274.205 434.976C274.763 435.443 275.294 435.995 275.568 436.772L275.362 437.013C273.274 437.029 271.764 437.213 269.917 436.656C268.176 436.052 266.356 435.932 264.509 435.722L262.626 435.58C261.994 435.554 261.358 435.517 260.716 435.475L260.674 435.165V435.16Z" fill="black"/>
<path d="M243.218 466.161C246.259 465.982 249.311 466.455 252.146 467.642C252.399 467.726 252.893 467.925 253.135 468.041C255.108 468.965 256.608 471.066 256.529 473.308L256.245 473.45C254.882 472.83 253.856 472.289 252.846 471.701C251.81 471.134 251.052 470.173 250.052 469.543C247.969 468.209 245.539 467.242 243.182 466.476L243.218 466.161Z" fill="black"/>
<path d="M219.06 490.277C220.833 490.03 222.658 490.046 224.405 490.502C225.078 490.676 225.852 490.765 226.472 491.133C227.125 491.553 227.588 492.173 227.872 492.913C228.051 493.417 228.161 493.984 227.982 494.62L227.698 494.751C226.572 494.541 225.873 494.41 225.194 494.147C224.473 493.916 224.063 493.212 223.426 492.824C222.763 492.383 222.048 492.02 221.332 491.642L220.196 491.101C219.807 490.938 219.417 490.765 219.018 490.581L219.06 490.266V490.277Z" fill="black"/>
<path d="M386.739 177.714C272.139 312.652 360.239 375.017 437.88 424.84C515.522 474.663 601.617 493.885 675.392 400.598C749.166 307.311 579.163 -48.857 386.733 177.719L386.739 177.714Z" fill="#DBEDFF"/>
<path d="M291.957 324.09C305.898 327.593 354.699 346.452 364.963 339.699C369.561 336.763 367.136 315.084 367.783 308.871C367.962 303.036 369.435 294.423 377.442 296.97C378.515 297.364 379.468 297.869 380.404 298.467C383.687 300.426 386.875 302.816 389.632 305.489C398.817 314.732 406.093 325.613 413.848 335.954C441.373 374.271 470.787 413.092 493.83 454.307C495.114 456.508 498.334 462.695 499.717 464.638C499.696 464.627 499.623 464.548 499.56 464.512C499.465 464.433 499.375 464.38 499.218 464.286C498.797 463.986 497.792 463.745 497.261 463.782C497.118 463.797 497.15 463.792 497.15 463.803C497.329 463.776 497.955 463.593 498.586 463.33C502.379 461.723 505.92 459.491 509.618 457.175C515.621 453.341 521.582 449.213 527.501 445.017C542.247 434.587 557.078 423.48 571.593 412.661C598.276 393.083 628.001 378.462 655.521 360.317C658.509 358.29 661.466 356.21 664.18 353.957C666.079 352.382 667.989 350.659 669.115 348.606C669.178 348.501 669.278 348.249 669.362 348.049L669.625 347.429L670.125 346.2C670.583 345.103 670.972 343.979 671.093 342.913C671.093 342.356 671.051 342.346 670.683 341.878C669.809 340.97 668.82 340.24 667.8 339.363C664.164 336.327 661.034 332.73 658.272 328.938C651.717 320.131 640.78 304.654 634.219 295.563C608.903 259.998 582.409 224.628 556.352 189.583C554.189 186.595 552.043 183.596 549.949 180.413C548.192 177.562 545.819 174.368 545.509 170.682C545.272 168.387 546.808 165.619 549.013 164.721C551.817 163.503 553.984 164.222 556.552 164.779C558.372 165.194 560.255 165.866 562.002 166.328C569.788 168.623 577.511 171.627 585.266 173.455C587.912 173.985 590.632 174.736 593.099 174.263C593.147 174.242 593.11 174.242 592.942 174.332C592.784 174.416 592.526 174.615 592.321 174.883C592.084 175.193 591.942 175.513 591.905 175.729L591.974 175.083C593.199 162.683 594.509 149.318 595.925 136.95C597.077 127.696 597.992 118.348 600.16 109.037C600.307 108.496 600.428 107.997 600.644 107.356L600.912 106.537C600.959 106.4 600.996 106.28 601.028 106.175C601.086 105.97 601.107 105.828 601.091 105.891C601.091 105.949 601.022 106.227 601.164 106.926C601.296 107.598 601.833 108.527 602.317 108.942C602.79 109.383 603.022 109.457 603.043 109.483C601.154 109.021 598.981 108.827 596.935 108.643C589.648 108.028 582.046 107.283 574.744 106.143C560.308 103.943 545.761 100.24 531.546 97.5984C517.689 94.9726 504.179 94.3581 490.29 96.5481C483.24 97.5932 476.159 99.2685 469.135 100.634L447.639 104.825C444.619 105.429 440.616 106.248 438.222 107.136C440.505 105.681 441.242 101.716 439.616 99.426C439.548 99.3053 439.427 99.1687 439.39 99.1162C439.258 98.9639 439.385 99.1162 439.548 99.3053C440.537 100.492 441.379 101.789 442.11 102.971C451.459 118.243 453.6 138.588 444.162 154.344C439.963 161.586 434.034 167.405 427.332 172.21C413.801 182.094 396.66 186.537 380.441 180.86C368.888 177.052 357.424 167.73 351.674 159.123C352.737 160.504 355.278 160.982 356.693 159.989C356.898 159.847 356.893 159.826 356.867 159.837C356.793 159.884 356.582 160.094 356.367 160.341C356.146 160.593 355.909 160.887 355.667 161.202C346.439 174.589 337.569 188.658 327.658 201.657C323.438 207.334 318.998 213.342 315.578 219.523C312.09 225.746 309.302 232.316 307.84 239.275C306.309 246.338 306.046 253.68 304.851 260.87C304.267 264.504 303.368 268.096 302.5 271.668C299.88 282.297 297.091 292.895 294.65 303.561C293.845 307.112 293.098 310.678 292.467 314.254C292.02 316.911 291.567 319.59 291.583 322.268C291.594 322.699 291.625 323.124 291.704 323.502C291.746 323.686 291.799 323.865 291.857 323.975C291.92 324.101 291.962 324.106 291.936 324.096L291.957 324.09ZM291.578 325.388C288.926 324.847 290.894 315.814 291.073 314.007C293.872 298.005 298.238 281.761 301.374 265.807C303.184 256.826 302.805 247.678 304.288 238.592C305.493 231.192 308.04 224.003 311.338 217.291C314.489 210.679 318.598 204.251 322.618 198.127C326.595 192.046 330.435 185.886 334.144 179.646C338.974 171.737 343.099 163.671 348.102 155.793C350.096 152.626 353.41 149.491 357.498 151.665C358.408 152.112 359.371 153.283 359.623 153.719C360.565 154.916 361.775 156.213 362.922 157.332C373.27 167.483 388.064 174.116 402.442 170.272C414.243 167.174 426.327 158.156 432.346 147.611C439.611 134.954 436.407 118.516 427.679 107.288C425.496 104.226 425.622 99.321 428.836 96.3538C431.856 93.5651 435.56 92.8876 439.158 91.9108C448.213 89.7891 457.319 88.2241 466.279 86.3807C473.602 84.9522 480.762 83.2034 488.191 82.1583C503.258 79.8108 519.341 80.567 534.182 83.6446C548.697 86.4752 562.47 90.288 576.917 92.7353C580.426 93.3288 583.94 93.8487 587.475 94.2951C592.973 95.0618 598.639 95.3454 604.242 96.3223C610.098 97.2466 614.901 101.065 613.98 107.619C613.786 109.121 613.37 110.15 612.944 111.411C612.355 113.207 611.981 115.15 611.565 117.203C608.972 131.225 607.346 145.851 605.584 160.115L604.289 170.986C604.074 172.809 603.853 174.615 603.606 176.49C603.39 178.397 602.901 180.193 601.648 181.842C597.04 187.713 588.649 185.933 582.52 184.399C575.065 182.362 566.121 178.859 558.851 176.348C556.715 175.66 554.153 174.715 552.043 174.279C551.996 174.269 552.001 174.279 552.153 174.263C552.301 174.237 552.616 174.242 553.279 173.943C554.011 173.659 554.994 172.672 555.289 171.89C555.478 171.464 555.557 171.107 555.594 170.839C555.626 170.561 555.626 170.403 555.62 170.262C555.605 170.015 555.573 169.962 555.573 169.962C555.573 169.967 555.584 170.041 555.615 170.136C557.662 175.025 561.097 179.667 564.033 184.268C587.66 218.866 614.306 258.381 637.975 292.937C644.041 301.66 650.57 311.197 656.762 319.873C660.966 325.677 664.906 331.695 670.42 336.28L672.54 338.05C672.913 338.375 673.308 338.722 673.713 339.173C674.592 340.03 675.333 341.847 675.17 343.118C675.06 345.281 674.129 347.104 673.419 349.015C672.203 352.418 669.441 354.923 666.863 357.145C658.298 364.245 648.802 369.964 639.522 375.951C621.556 387.148 601.727 399.684 584.913 412.189C579.805 415.98 572.908 421.715 567.968 425.822C556.651 435.149 545.34 444.445 533.719 453.425C527.842 457.936 521.961 462.379 515.8 466.57C512.68 468.676 509.54 470.735 505.973 472.657C503.753 473.707 502.095 474.737 499.333 475.288C494.62 476.276 491.331 473.713 489.043 469.921C485.166 463.619 481.699 457.128 477.874 450.868C462.964 425.969 446.613 401.832 430.573 377.59C418.472 359.366 406.914 340.712 394.798 322.546C389.837 315.294 384.755 308.004 377.368 303.136C376.637 302.627 375.717 301.975 374.88 301.807C374.717 301.776 374.649 301.781 374.606 301.776C374.57 301.776 374.522 301.776 374.412 301.86C373.833 302.401 373.491 303.294 373.212 304.239C372.77 305.746 372.518 307.474 372.323 309.212C371.96 312.715 371.866 316.349 371.729 319.999C371.466 325.54 371.476 331.238 370.024 336.721C369.751 337.671 369.414 338.622 368.919 339.567C367.904 341.616 365.694 342.85 363.606 343.328C357.051 344.662 350.375 342.876 344.035 341.484C326.274 336.999 309.108 330.45 291.567 325.388H291.578Z" fill="black"/>
<path d="M374.675 187.671C384.302 191.71 395.282 192.482 405.42 190.139C409.166 189.31 412.596 187.608 416.094 186.117C418.378 185.082 420.834 184.142 423.112 183.092C426.837 181.511 430.383 179.688 434.213 178.26L434.66 178.769C433.24 181.227 431.451 183.459 429.415 185.429C425.338 189.367 420.329 192.566 414.79 193.957C406.556 196.011 397.823 196.552 389.526 194.635C384.129 193.375 378.899 191.379 374.322 188.244L374.675 187.666V187.671Z" fill="black"/>
<path d="M493.631 365.558C493.631 365.558 522.613 377.758 548.492 359.661C574.371 341.563 573.14 310.709 573.14 310.709C573.14 310.709 554.868 315.935 566.806 334.016C566.806 334.016 558.783 329.053 549.65 335.439C540.517 341.826 543.515 352.565 543.515 352.565C543.515 352.565 535.445 345.376 526.312 351.762C517.179 358.148 517.894 366.708 517.894 366.708C517.894 366.708 508.246 350.801 493.636 365.553L493.631 365.558Z" fill="black"/>
<path d="M437.185 285.128C437.185 285.128 435.601 253.764 461.48 235.672C487.359 217.575 515.989 229.27 515.989 229.27C515.989 229.27 504.83 244.626 491.878 227.254C491.878 227.254 493.809 236.476 484.676 242.862C475.543 249.248 466.457 242.767 466.457 242.767C466.457 242.767 470.471 252.798 461.338 259.184C452.205 265.57 444.387 261.978 444.387 261.978C444.387 261.978 456.066 276.462 437.19 285.133L437.185 285.128Z" fill="black"/>
<path d="M492.762 279.708L490.494 322.825C490.494 322.825 497.802 326.774 516.578 313.645C535.354 300.515 534.134 292.307 534.134 292.307L492.767 279.708H492.762Z" fill="#CD00FF"/>
<path d="M677.107 117.461C655.011 113.748 548.472 185.907 576.691 209.991C604.911 234.076 677.107 117.461 677.107 117.461Z" fill="white"/>
<path d="M493.777 287.58C531.404 286.924 517.183 246.307 535.139 222.721C553.089 199.136 570.782 224.47 567.831 246.37C561.596 292.601 493.777 287.58 493.777 287.58Z" fill="white"/>
<path d="M586.182 191.4C604.348 146.602 677.844 105.045 679.217 134.518C680.59 163.991 550.697 278.899 586.182 191.4Z" fill="#C69B8D"/>
<path d="M576.465 256.973C580.264 216.839 553.654 195.407 547.319 231.886C540.985 268.364 509.093 295.978 515.638 295.348C522.188 294.717 572.877 294.928 576.465 256.973Z" fill="#7A6A5F"/>
<path d="M517.069 280.79C520.746 270.764 529.868 253.88 532.357 242.636C534.845 231.392 539.044 230.767 537.165 241.601C535.287 252.436 543.147 248.801 547.414 240.551C551.68 232.3 559.204 242.111 551.88 251.238C544.562 260.361 563.002 260.707 548.834 269.147C534.672 277.586 533.872 279.304 535.603 281.919C538.486 286.257 512.486 293.278 517.069 280.795V280.79Z" fill="#CD00FF"/>
<path d="M676.507 117.728C676.407 117.844 676.391 118.007 676.46 118.112C676.46 118.133 676.523 118.149 676.449 118.154L675.907 118.233C675.544 118.29 675.187 118.369 674.834 118.448C669.778 119.766 665.186 122.35 660.619 124.855C655.384 127.817 650.266 131.021 645.199 134.298C640.296 137.475 634.988 141.067 630.163 144.402C623.04 149.454 615.064 154.932 607.741 159.79C594.778 168.471 579.095 179.636 574.892 195.407C573.471 201.399 575.733 206.724 581.715 208.578C592.384 211.314 609.456 193.658 616.38 186.148C635.693 164.994 654.253 141.907 673.382 120.564C674.277 119.567 675.234 118.527 676.144 117.539L676.244 117.434C676.265 117.413 676.276 117.398 676.27 117.424C676.26 117.545 676.355 117.692 676.507 117.728ZM677.701 117.187C677.759 117.455 677.659 117.938 677.502 118.217L677.449 118.353L677.233 118.9C676.802 119.976 676.334 121.105 675.876 122.156C666.359 143.567 653.917 163.676 639.054 181.815C627.328 195.517 598.54 225.846 578.606 215.757C570.499 211.288 567.537 202.838 570.53 194.204C573.108 186.516 578.101 180.088 582.925 173.743C588.786 166.318 594.862 159.023 601.539 152.301C616.401 137.401 637.829 124.792 657.936 118.474C663.718 116.867 669.963 115.255 676.002 116.436C676.602 116.573 677.281 116.736 677.701 117.182V117.187Z" fill="black"/>
<path d="M493.121 287.565C493.352 287.449 493.62 287.165 494.11 286.887C494.52 286.656 494.999 286.53 495.456 286.441C496.661 286.078 497.871 285.716 499.044 285.285C506.052 282.901 511.197 278.631 513.754 271.683C516.232 265.203 517.068 258.307 518.442 251.454C520.383 241.249 524.202 231.009 531.031 222.968C534.572 218.877 538.433 215.117 543.431 212.785C555.173 207.344 565.017 217.638 569.525 227.6C573.066 235.136 574.223 243.802 572.703 252.005C566.727 285.207 530.536 295.043 501.222 290.001C499.018 289.629 496.814 289.14 494.657 288.52C494.415 288.473 494.199 288.368 493.962 288.31C493.999 288.3 493.71 288.305 493.473 288.132C493.22 287.958 493.136 287.675 493.115 287.559L493.121 287.565ZM494.43 287.601C494.494 287.491 494.483 287.213 494.304 287.045C494.146 286.882 493.936 286.892 494.046 286.882C494.43 286.808 495.262 286.646 495.662 286.567C512.96 283.101 532.341 278.868 546.582 268.826C549.997 266.411 553.08 263.685 555.652 260.408C560.813 253.843 563.36 244.983 563.291 236.596C563.207 232.174 562.407 227.605 560.492 223.572C557.778 217.596 551.717 212.948 545.178 216.43C541.232 218.515 538.344 222.537 536.381 226.497C532.362 235.052 532.004 244.584 530.042 253.754C528.153 262.724 526.038 272.298 520.204 279.724C515.316 286.073 507.53 289.408 499.586 288.998C498.234 288.967 496.893 288.794 495.567 288.594C495.409 288.51 495.404 288.389 495.293 288.205C495.167 287.953 494.815 287.685 494.43 287.596V287.601Z" fill="black"/>
<path d="M513.316 285.207C516.315 281.478 519.324 278.374 522.523 275.097C525.459 271.956 529.22 269.772 532.124 266.584C538.185 259.967 542.494 252.163 545.413 243.607L546.276 243.765C545.892 253.26 543.015 262.808 537.68 270.838C536.328 272.875 535.013 274.992 533.466 276.946C530.393 280.9 525.958 283.589 521.213 285.107C518.809 285.826 516.305 286.315 513.622 286.031L513.316 285.212V285.207Z" fill="black"/>
<path d="M676.308 118.301C673.793 120.948 670.61 125.532 668.3 128.463C665.659 131.887 662.955 135.264 660.146 138.557C654.596 145.253 647.846 150.83 641.617 156.87C638.481 159.895 635.34 162.92 632.163 165.918C626.939 170.55 606.221 190.68 600.197 188.853L600.455 188.018C604.695 188.338 616.08 175.104 619.379 171.622C625.187 165.194 630.842 158.624 636.529 152.075C639.381 148.798 642.085 145.384 644.863 142.023C650.45 135.243 656.916 129.324 663.986 124.041C667.669 121.457 671.473 118.647 675.924 117.513L676.313 118.296L676.308 118.301Z" fill="black"/>
</svg>
