<svg width="24" height="24" viewBox="0 0 24 24" fill="none" xmlns="http://www.w3.org/2000/svg">
<path d="M19.7996 16.8C20.277 16.8 20.7348 16.6104 21.0724 16.2728C21.41 15.9352 21.5996 15.4774 21.5996 15L21.5996 9.00001C21.5996 8.52262 21.41 8.06479 21.0724 7.72722C20.7348 7.38965 20.277 7.20001 19.7996 7.20001L4.19961 7.20001C3.72222 7.20001 3.26438 7.38965 2.92682 7.72722C2.58925 8.06478 2.39961 8.52262 2.39961 9.00001L2.39961 15C2.39961 15.4774 2.58925 15.9352 2.92682 16.2728C3.26438 16.6104 3.72222 16.8 4.19961 16.8L19.7996 16.8ZM8.39481 8.40001L8.39481 11.4C8.39481 11.5591 8.45802 11.7118 8.57054 11.8243C8.68307 11.9368 8.83568 12 8.99481 12C9.15394 12 9.30655 11.9368 9.41907 11.8243C9.53159 11.7118 9.59481 11.5591 9.59481 11.4L9.59481 8.40001L11.3996 8.40001L11.3996 10.2C11.3996 10.3591 11.4628 10.5118 11.5753 10.6243C11.6879 10.7368 11.8405 10.8 11.9996 10.8C12.1587 10.8 12.3114 10.7368 12.4239 10.6243C12.5364 10.5118 12.5996 10.3591 12.5996 10.2L12.5996 8.40001L14.3996 8.40001L14.3996 11.4C14.3996 11.5591 14.4628 11.7118 14.5753 11.8243C14.6879 11.9368 14.8405 12 14.9996 12C15.1587 12 15.3114 11.9368 15.4239 11.8243C15.5364 11.7118 15.5996 11.5591 15.5996 11.4L15.5996 8.40001L17.3996 8.40001L17.3996 10.2C17.3996 10.3591 17.4628 10.5118 17.5753 10.6243C17.6879 10.7368 17.8405 10.8 17.9996 10.8C18.1587 10.8 18.3114 10.7368 18.4239 10.6243C18.5364 10.5118 18.5996 10.3591 18.5996 10.2L18.5996 8.40001L19.7996 8.40001C19.9587 8.40001 20.1114 8.46323 20.2239 8.57575C20.3364 8.68827 20.3996 8.84088 20.3996 9.00001L20.3996 15C20.3996 15.1591 20.3364 15.3118 20.2239 15.4243C20.1114 15.5368 19.9587 15.6 19.7996 15.6L4.19961 15.6C4.04048 15.6 3.88786 15.5368 3.77534 15.4243C3.66282 15.3118 3.59961 15.1591 3.59961 15L3.59961 9.00001C3.59961 8.84088 3.66282 8.68827 3.77534 8.57575C3.88787 8.46323 4.04048 8.40001 4.19961 8.40001L5.39961 8.40001L5.39961 10.2C5.39961 10.3591 5.46282 10.5118 5.57534 10.6243C5.68787 10.7368 5.84048 10.8 5.99961 10.8C6.15874 10.8 6.31135 10.7368 6.42387 10.6243C6.53639 10.5118 6.59961 10.3591 6.59961 10.2L6.59961 8.40001L8.39481 8.40001Z" fill="black"/>
</svg>
