<svg width="32" height="32" viewBox="0 0 32 32" fill="none" xmlns="http://www.w3.org/2000/svg">
<path d="M8.87554 13.0045C8.11212 13.2657 7.38119 13.5105 6.63402 13.7554C6.39038 13.8371 6.14673 13.9187 5.88685 14.0003C5.48077 14.1309 5.13967 13.9677 4.99349 13.5595C4.57117 12.3025 4.14886 11.0454 3.74278 9.77203C3.61284 9.34757 3.72654 9.07004 4.11637 8.85781C6.66651 7.58443 9.21664 6.29472 11.7668 5.02134C12.2865 4.76014 12.7251 5.03767 12.7576 5.64171C12.855 7.20895 13.8134 8.4007 15.2915 8.75986C17.2244 9.23329 19.1735 7.73136 19.2385 5.72334C19.2548 5.02134 19.7096 4.76014 20.3268 5.07032C22.8282 6.32737 25.3134 7.58443 27.8148 8.84148C28.2858 9.08637 28.3995 9.3639 28.2371 9.85366C27.831 11.0617 27.4249 12.2861 27.0351 13.4942C26.8727 13.984 26.5478 14.1472 26.0443 13.984C25.086 13.6575 24.1276 13.3473 23.1368 13.0045V13.3146C23.1368 17.2164 23.1368 21.1019 23.1368 25.0036C23.1368 25.8525 22.7957 26.5056 22.0323 26.881C21.7399 27.0116 21.3988 27.0769 21.074 27.0769C17.6954 27.0769 14.3007 27.0769 10.9221 27.0769C9.89884 27.0769 9.18415 26.5382 8.94051 25.5913C8.87554 25.3628 8.87554 25.1179 8.87554 24.8893C8.87554 21.0365 8.87554 17.2001 8.87554 13.3473V12.9881V13.0045ZM6.04928 12.5637C6.16298 12.531 6.24419 12.4984 6.34165 12.482C7.31622 12.1555 8.27455 11.829 9.24913 11.5025C9.80138 11.3229 10.1912 11.6168 10.1912 12.1882C10.1912 12.2535 10.1912 12.3188 10.1912 12.3841C10.1912 16.5634 10.1912 20.759 10.1912 24.9383C10.1912 25.526 10.4349 25.7709 11.0196 25.7709C14.3656 25.7709 17.7117 25.7709 21.0577 25.7709C21.6262 25.7709 21.8699 25.526 21.8699 24.9546C21.8699 23.8445 21.8699 22.7344 21.8699 21.6243C21.8699 18.5224 21.8699 15.4043 21.8699 12.3025C21.8699 11.6821 22.2434 11.2413 22.9581 11.5352C23.3317 11.6821 23.7053 11.7964 24.0789 11.927C24.7124 12.1392 25.3458 12.3514 26.0118 12.5637C26.3204 11.6331 26.6128 10.7352 26.9214 9.80468C24.7773 8.72721 22.6333 7.64973 20.4892 6.57226C19.7745 8.77618 18.3451 10.0332 16.0224 10.1149C14.3656 10.1638 12.2378 9.08636 11.5719 6.57226C9.4278 7.64973 7.29998 8.72721 5.13967 9.80468C5.44829 10.7352 5.74066 11.6331 6.04928 12.5473V12.5637Z" fill="black"/>
</svg>
