<svg width="32" height="32" viewBox="0 0 32 32" fill="none" xmlns="http://www.w3.org/2000/svg">
<path d="M20.8669 22.5483H20.2225C18.8378 22.6006 17.4095 22.5658 15.9987 22.4874L15.2236 22.4351C15.0843 22.4351 14.9536 22.4177 14.823 22.409V23.3931C14.823 23.3931 14.8578 23.3931 14.8665 23.3931C15.2062 23.4453 15.5545 23.4889 15.8942 23.5237C17.4357 23.7153 19.0468 23.8111 20.8234 23.8285H20.8843C22.6522 23.8285 23.8105 23.1144 24.1327 21.8429C24.6466 19.5786 22.5129 16.4957 21.5898 15.1894L21.6246 15.1545C21.1892 14.5275 20.7276 13.9266 20.2225 13.3257L20.1702 13.2647C19.909 12.9773 19.6912 12.6986 19.43 12.4548C19.1687 12.1935 18.7855 12.15 18.4981 12.359C18.3414 12.4722 18.2369 12.6028 18.1411 12.7335C18.0278 12.8989 17.9321 13.0905 17.8363 13.2821C17.6795 13.6218 17.514 13.9614 17.366 14.3011C17.1047 14.8846 16.8522 15.4681 16.5822 15.9819C16.0945 16.8615 15.5633 17.7498 14.7969 18.3245V19.4567C15.4326 19.1432 16.0248 18.6206 16.5996 17.8456C17.305 16.8963 17.8188 15.7903 18.3327 14.7452C18.4807 14.4578 18.6026 14.1617 18.7333 13.8918L18.8639 13.6131L19.0555 13.8569C19.5693 14.484 20.0831 15.1632 20.5621 15.8948C21.5462 17.3666 22.1733 18.5423 22.5739 19.7093C22.7655 20.2753 22.9309 20.9372 22.8003 21.5381C22.6522 22.1651 21.9991 22.5048 20.8408 22.557L20.8669 22.5483Z" fill="black"/>
<path d="M13.9578 22.3654C12.6689 22.3219 11.4323 22.3828 9.97789 22.9402C9.89951 22.975 9.84726 23.1492 9.88209 23.2798C9.91693 23.3756 10.0127 23.4453 10.1259 23.4105C10.3698 23.3582 10.5962 23.3147 10.8488 23.2798C11.5368 23.1666 12.2596 23.1318 12.9824 23.184C13.3047 23.2102 13.6356 23.245 13.9578 23.2885V22.3741V22.3654Z" fill="#282828"/>
<path d="M5.28084 21.8341C5.58565 21.1374 6.06464 20.5365 6.56104 19.9792L6.14302 19.4653C6.09077 19.5176 6.04722 19.5785 5.99497 19.6308C5.51598 20.2143 5.02829 20.8587 4.7409 21.599C4.35771 22.5831 4.58413 23.3756 5.36793 23.8894C5.42889 23.9243 5.6292 23.8546 5.69016 23.7588C5.75112 23.663 5.72499 23.5498 5.63791 23.4801C5.07183 23.0882 4.94991 22.5396 5.27214 21.8167L5.28084 21.8341Z" fill="black"/>
<path d="M6.67282 19.892C6.96022 19.5872 7.71789 18.6989 7.97044 18.3593C8.11849 18.1677 8.25783 17.9587 8.40588 17.7584C8.55393 17.5494 8.69328 17.3403 8.84133 17.1575C8.90229 17.0791 8.98938 16.992 9.05034 16.9136C9.2071 16.7481 9.35515 16.7481 9.62512 16.8788C10.348 17.2794 11.036 17.9325 11.6978 18.786C11.872 19.0124 12.0201 19.204 12.1942 19.3956C12.83 20.0662 13.5964 19.892 13.9447 19.7875V18.7773C13.666 18.8818 13.4309 18.9428 13.2567 18.9254C13.1087 18.9254 13.0129 18.8644 12.8735 18.7338C12.6993 18.5596 12.5339 18.3593 12.3771 18.1677C12.2204 17.9761 12.0549 17.7758 11.8981 17.619C11.5411 17.2271 11.1405 16.8788 10.6615 16.5566C10.3392 16.3301 9.99089 16.0863 9.57287 16.0079C9.51191 16.0079 9.42482 15.9905 9.36386 15.9905C9.13743 15.9905 8.92842 16.0514 8.75424 16.1821C8.54523 16.3301 8.38847 16.5217 8.27525 16.6698C8.11849 16.8788 7.97044 17.1052 7.82239 17.3316L7.78756 17.3839C7.67434 17.5581 7.54371 17.741 7.42179 17.9151C7.20406 18.2374 6.48994 19.0734 6.24609 19.3434L6.68154 19.8746L6.67282 19.892Z" fill="#282828"/>
<g opacity="0.2">
<path d="M2.71875 16.5392H13.9531V29.0799L2.71875 16.5392Z" fill="black"/>
</g>
<path d="M24.0728 29.0712H13.9531V18.3332C13.9531 17.4362 13.2216 16.696 12.3159 16.696V15.8251C13.7006 15.8251 14.824 16.9485 14.824 18.3332V28.2003H24.0728C24.9698 28.2003 25.7101 27.4688 25.7101 26.5631V7.50814C25.7101 6.61113 24.9785 5.87088 24.0728 5.87088H5.22689C4.32988 5.87088 3.58963 6.60243 3.58963 7.50814V16.2692H2.71875V7.50814C2.71875 6.12344 3.84219 5 5.22689 5H24.0728C25.4575 5 26.581 6.12344 26.581 7.50814V26.5718C26.581 27.9478 25.4575 29.0799 24.0728 29.0799V29.0712Z" fill="black" stroke="black" stroke-width="0.4"/>
<path d="M12.3159 15.8337H2.71875V16.7046H12.3159V15.8337Z" fill="black" stroke="black" stroke-width="0.4"/>
<path d="M10.1425 9.38927C9.40221 8.9277 8.49649 9.2238 7.85203 9.55474C7.82591 9.55474 7.8172 9.58957 7.79978 9.59828C7.77365 9.59828 7.76495 9.59828 7.73882 9.6157C7.16404 9.93793 6.8331 10.3037 6.71989 10.7478C6.61538 11.131 6.71988 11.5752 6.97244 11.9061C7.38176 12.4287 8.04363 12.6725 8.69679 12.6725C9.10611 12.6725 9.49801 12.5767 9.84636 12.4287C10.5082 12.1064 10.935 11.4358 10.8914 10.7478C10.8653 10.1992 10.5866 9.69408 10.1337 9.4241V9.38927H10.1425ZM7.90429 10.0337C7.90429 10.0337 7.93912 10.0163 7.95654 9.99889C7.98267 9.99889 7.99138 9.99889 8.00879 9.98147C8.6097 9.67666 9.18449 9.63312 9.55026 9.85955C9.75056 9.98147 9.87248 10.1644 9.89861 10.3908C9.92474 10.6521 9.81152 10.9133 9.61993 11.0962C9.48059 11.2355 9.27157 11.34 9.01031 11.401C8.59228 11.4968 8.24393 11.5055 7.94783 11.4358C7.64302 11.3575 7.39917 11.192 7.32079 10.9917C7.16404 10.5911 7.6256 10.1992 7.89558 10.0424V10.025L7.90429 10.0337Z" fill="black"/>
<path d="M13.927 29.0538L2.71875 16.6872L3.39804 16.1385L14.6063 28.5051L13.927 29.0538Z" fill="black" stroke="black" stroke-width="0.4"/>
</svg>
