<svg width="32" height="32" viewBox="0 0 32 32" fill="none" xmlns="http://www.w3.org/2000/svg">
<g clip-path="url(#clip0_1137_193266)">
<g clip-path="url(#clip1_1137_193266)">
<path d="M31.6254 14.7L26.0475 10.23C25.8602 10.08 25.6208 10 25.3815 10H20.5528V6C20.5528 5.45 20.0846 5 19.5122 5H2.86179C2.28943 5 1.82114 5.45 1.82114 6V10.25H0.780488C0.353821 10.25 0 10.59 0 11C0 11.41 0.353821 11.75 0.780488 11.75H8.06504C8.49171 11.75 8.84553 11.41 8.84553 11C8.84553 10.59 8.49171 10.25 8.06504 10.25H3.38211V6.5H18.9919V21.5H11.0413C11.0621 21.57 11.0725 21.64 11.0829 21.7C10.7083 20.15 9.26179 19 7.54471 19C5.82764 19 4.38114 20.16 4.0065 21.7C4.02732 21.63 4.02732 21.56 4.04813 21.5H3.38211V17.75H11.187C11.6137 17.75 11.9675 17.41 11.9675 17C11.9675 16.59 11.6137 16.25 11.187 16.25H0.780488C0.353821 16.25 0 16.59 0 17C0 17.41 0.353821 17.75 0.780488 17.75H1.82114V22C1.82114 22.55 2.28943 23 2.86179 23H3.94406C3.92325 22.84 3.91285 22.67 3.90244 22.5C3.90244 24.43 5.53626 26 7.54471 26C9.55317 26 11.187 24.43 11.187 22.5C11.187 22.28 11.1558 22.07 11.1246 21.87C11.1662 22.08 11.187 22.29 11.187 22.5C11.187 22.67 11.1766 22.84 11.1454 23H21.6247C21.6039 22.84 21.5935 22.67 21.5831 22.5C21.5831 24.43 23.2169 26 25.2254 26C27.2338 26 28.8676 24.43 28.8676 22.5C28.8676 22.28 28.8364 22.07 28.8052 21.87C28.8468 22.08 28.8676 22.29 28.8676 22.5C28.8676 22.67 28.8572 22.84 28.826 23H30.9489C31.5213 23 31.9896 22.55 31.9896 22V15.47C31.9896 15.17 31.8543 14.89 31.615 14.7H31.6254ZM3.96488 21.87C3.92325 22.07 3.90244 22.28 3.90244 22.5C3.90244 22.28 3.93366 22.08 3.96488 21.87ZM7.54471 24.5C6.4 24.5 5.46341 23.6 5.46341 22.5C5.46341 21.4 6.4 20.5 7.54471 20.5C8.68943 20.5 9.62602 21.4 9.62602 22.5C9.62602 23.6 8.68943 24.5 7.54471 24.5ZM25.2358 24.5C24.0911 24.5 23.1545 23.6 23.1545 22.5C23.1545 21.4 24.0911 20.5 25.2358 20.5C26.3805 20.5 27.3171 21.4 27.3171 22.5C27.3171 23.6 26.3805 24.5 25.2358 24.5ZM30.439 21.5H28.7324C28.7532 21.57 28.7636 21.64 28.774 21.7C28.3993 20.15 26.9528 19 25.2358 19C23.5187 19 22.0722 20.16 21.6976 21.7C21.7184 21.63 21.7184 21.56 21.7392 21.5H20.5528V11.5H25.1941L30.439 15.7V21.5ZM21.5935 22.5C21.5935 22.28 21.6247 22.08 21.6559 21.87C21.6143 22.07 21.5935 22.28 21.5935 22.5Z" fill="#FC6601"/>
<path d="M7.02439 14.75C7.45106 14.75 7.80488 14.41 7.80488 14C7.80488 13.59 7.45106 13.25 7.02439 13.25H1.82114C1.39447 13.25 1.04065 13.59 1.04065 14C1.04065 14.41 1.39447 14.75 1.82114 14.75H7.02439Z" fill="#FC6601"/>
</g>
</g>
<defs>
<clipPath id="clip0_1137_193266">
<rect width="32" height="32" fill="white"/>
</clipPath>
<clipPath id="clip1_1137_193266">
<rect width="32" height="21" fill="white" transform="translate(0 5)"/>
</clipPath>
</defs>
</svg>
