<svg width="41" height="13" viewBox="0 0 41 13" fill="none" xmlns="http://www.w3.org/2000/svg">
<g clip-path="url(#clip0_3964_3683)">
<path d="M17.834 12.8126H14.5938L16.6205 0.228271H19.8606L17.834 12.8126Z" fill="#00579F"/>
<path d="M29.5793 0.535766C28.9402 0.281139 27.9265 0 26.6731 0C23.4732 0 21.2198 1.71352 21.206 4.16335C21.1794 5.97082 22.8193 6.97474 24.0459 7.5774C25.2995 8.19324 25.7256 8.5952 25.7256 9.14413C25.7129 9.98719 24.7126 10.3758 23.7797 10.3758C22.486 10.3758 21.7929 10.1754 20.7395 9.70641L20.3128 9.50534L19.8594 12.3303C20.6193 12.6779 22.0195 12.9865 23.4732 13C26.8731 13 29.0866 11.313 29.1128 8.70232C29.1257 7.26975 28.2598 6.17207 26.3929 5.27509C25.2596 4.69929 24.5656 4.31103 24.5656 3.72189C24.5788 3.1863 25.1526 2.63772 26.4319 2.63772C27.4853 2.61085 28.2593 2.86513 28.8456 3.11957L29.1387 3.2532L29.5793 0.535766Z" fill="#00579F"/>
<path d="M33.8843 8.35443C34.1512 7.63148 35.178 4.83343 35.178 4.83343C35.1645 4.8603 35.4443 4.09713 35.6043 3.62863L35.8308 4.71297C35.8308 4.71297 36.4444 7.72525 36.5776 8.35443C36.0712 8.35443 34.5244 8.35443 33.8843 8.35443ZM37.8841 0.228271H35.3777C34.6048 0.228271 34.0176 0.455674 33.6841 1.2724L28.8711 12.8124H32.271C32.271 12.8124 32.8308 11.2592 32.9511 10.9247C33.3241 10.9247 36.6315 10.9247 37.1113 10.9247C37.2044 11.3665 37.498 12.8124 37.498 12.8124H40.4981L37.8841 0.228271Z" fill="#00579F"/>
<path d="M11.8867 0.228271L8.71339 8.80959L8.36662 7.0692C7.77995 5.06101 5.94 2.87916 3.88672 1.79429L6.79335 12.7993H10.2199L15.313 0.228271H11.8867Z" fill="#00579F"/>
<path d="M5.76663 0.228271H0.553334L0.5 0.482542C4.5667 1.52685 7.25999 4.04411 8.36654 7.06973L7.23323 1.2861C7.04665 0.482364 6.47326 0.254784 5.76663 0.228271Z" fill="#FAA61A"/>
</g>
<defs>
<clipPath id="clip0_3964_3683">
<rect width="40" height="13" fill="white" transform="translate(0.5)"/>
</clipPath>
</defs>
</svg>
