<svg width="197" height="28" viewBox="0 0 197 28" fill="none" xmlns="http://www.w3.org/2000/svg">
<path d="M147.893 17C147.786 17 147.696 16.968 147.621 16.904C147.557 16.8293 147.525 16.7387 147.525 16.632V15.48C147.525 15.3733 147.557 15.288 147.621 15.224C147.696 15.1493 147.786 15.112 147.893 15.112H149.045C149.152 15.112 149.237 15.1493 149.301 15.224C149.376 15.288 149.413 15.3733 149.413 15.48V16.632C149.413 16.7387 149.376 16.8293 149.301 16.904C149.237 16.968 149.152 17 149.045 17H147.893ZM151.924 17C151.818 17 151.727 16.968 151.652 16.904C151.588 16.8293 151.556 16.7387 151.556 16.632V15.48C151.556 15.3733 151.588 15.288 151.652 15.224C151.727 15.1493 151.818 15.112 151.924 15.112H153.076C153.183 15.112 153.268 15.1493 153.332 15.224C153.407 15.288 153.444 15.3733 153.444 15.48V16.632C153.444 16.7387 153.407 16.8293 153.332 16.904C153.268 16.968 153.183 17 153.076 17H151.924ZM155.956 17C155.849 17 155.758 16.968 155.684 16.904C155.62 16.8293 155.588 16.7387 155.588 16.632V15.48C155.588 15.3733 155.62 15.288 155.684 15.224C155.758 15.1493 155.849 15.112 155.956 15.112H157.108C157.214 15.112 157.3 15.1493 157.364 15.224C157.438 15.288 157.476 15.3733 157.476 15.48V16.632C157.476 16.7387 157.438 16.8293 157.364 16.904C157.3 16.968 157.214 17 157.108 17H155.956Z" fill="#9F9F9F"/>
<rect width="28" height="28" rx="5" fill="#F8F8F8"/>
<rect x="36" width="28" height="28" rx="5" fill="#F8F8F8"/>
<rect x="72" width="28" height="28" rx="5" fill="#F8F8F8"/>
<rect x="108" width="28" height="28" rx="5" fill="#F8F8F8"/>
<rect x="169" width="28" height="28" rx="5" fill="#F8F8F8"/>
</svg>
